<?xml version="1.0" encoding="UTF-8" ?>
<!DOCTYPE svg PUBLIC "-//W3C//DTD SVG 1.1//EN" "http://www.w3.org/Graphics/SVG/1.1/DTD/svg11.dtd">
<svg width="1000pt" height="1000pt" viewBox="0 0 1000 1000" version="1.1" xmlns="http://www.w3.org/2000/svg">
<g id="#77381fae">
<path fill="#77381f" opacity="0.68" d=" M 439.41 68.32 C 440.04 65.83 437.36 59.94 440.10 58.97 C 439.94 62.09 440.16 65.26 439.41 68.32 Z" />
</g>
<g id="#ad542efc">
<path fill="#ad542e" opacity="1.00" d=" M 440.10 58.97 L 441.00 58.87 C 443.12 65.90 447.99 71.99 447.39 79.66 C 446.96 90.40 449.27 101.97 444.74 112.11 C 443.65 109.32 442.74 106.45 441.26 103.84 C 438.98 97.97 433.23 94.68 429.06 90.98 C 435.41 85.24 438.03 76.67 439.41 68.32 C 440.16 65.26 439.94 62.09 440.10 58.97 Z" />
</g>
<g id="#ae6931fb">
<path fill="#ae6931" opacity="1.00" d=" M 441.00 58.87 C 448.21 66.91 453.03 81.22 466.22 83.44 C 465.91 83.84 465.30 84.63 464.99 85.02 C 462.18 88.38 459.78 92.30 459.20 96.71 C 459.12 97.21 458.97 98.21 458.89 98.71 C 458.83 103.01 458.29 107.30 454.27 109.45 C 453.44 119.94 454.85 130.54 453.05 140.95 C 450.68 141.36 448.31 141.73 445.93 142.02 C 442.91 142.41 439.96 143.20 437.03 143.99 C 437.49 141.48 437.82 138.94 438.30 136.43 C 440.14 132.94 433.27 135.42 431.65 133.35 C 419.12 125.97 415.92 111.12 417.37 97.79 C 417.68 96.72 418.82 96.23 419.59 95.54 C 424.79 97.16 417.71 102.67 419.98 106.02 C 419.55 117.86 427.61 134.04 441.05 133.98 C 441.67 130.84 438.54 129.37 436.82 127.36 C 439.68 124.80 441.45 129.78 443.81 130.96 C 448.47 126.18 445.69 118.01 444.74 112.11 C 449.27 101.97 446.96 90.40 447.39 79.66 C 447.99 71.99 443.12 65.90 441.00 58.87 Z" />
</g>
<g id="#ad6b2efc">
<path fill="#ad6b2e" opacity="1.00" d=" M 498.94 59.93 C 499.26 58.30 501.52 59.17 502.68 59.17 C 505.33 69.07 512.59 77.29 522.08 81.14 C 521.83 81.37 521.32 81.82 521.07 82.04 C 515.65 86.07 511.76 92.37 510.96 99.12 C 510.25 101.03 510.83 105.39 509.21 105.74 C 506.45 101.37 499.13 103.10 494.79 103.53 C 492.64 103.60 493.07 105.66 492.97 107.19 L 492.40 107.04 C 491.59 103.48 489.38 100.10 489.41 96.39 C 489.45 90.78 485.26 86.13 481.28 82.62 C 479.53 81.51 479.76 80.64 481.98 79.99 C 490.26 76.14 496.14 68.50 498.94 59.93 Z" />
</g>
<g id="#ab412efd">
<path fill="#ab412e" opacity="1.00" d=" M 555.92 64.97 C 557.56 62.68 558.06 57.91 561.91 58.98 C 562.04 62.75 562.30 66.51 562.69 70.27 C 563.44 78.29 567.41 85.69 572.72 91.65 C 567.16 94.32 562.95 99.08 559.74 104.25 C 556.53 112.09 551.96 123.74 558.59 130.21 C 557.19 133.14 560.30 135.25 562.89 135.69 C 563.70 135.81 565.34 136.06 566.16 136.18 C 566.52 139.10 566.82 142.04 567.06 144.98 C 560.77 143.26 554.46 141.51 547.97 140.77 C 544.27 128.85 551.48 114.16 543.26 103.81 C 543.50 98.51 542.37 93.01 539.04 88.80 C 539.28 91.13 539.84 93.41 540.36 95.69 C 537.73 95.38 538.48 89.44 535.96 88.03 C 532.00 84.80 536.26 82.50 539.11 82.14 C 547.20 79.59 552.16 72.13 555.92 64.97 Z" />
</g>
<g id="#3a130f57">
<path fill="#3a130f" opacity="0.34" d=" M 561.91 58.98 C 563.30 61.80 563.55 65.57 562.69 70.27 C 562.30 66.51 562.04 62.75 561.91 58.98 Z" />
</g>
<g id="#9f6430e3">
<path fill="#9f6430" opacity="0.89" d=" M 598.97 89.08 C 604.70 84.13 608.19 76.30 615.14 72.98 C 613.24 77.90 609.96 84.35 607.27 87.56 C 604.61 84.33 601.68 87.96 598.97 89.08 Z" />
</g>
<g id="#a67237eb">
<path fill="#a67237" opacity="0.92" d=" M 389.90 79.01 C 388.11 78.35 385.19 72.83 388.72 74.29 C 393.56 77.26 395.97 83.08 400.03 87.02 C 396.03 85.18 393.45 81.47 389.90 79.01 Z" />
</g>
<g id="#a6302ef9">
<path fill="#a6302e" opacity="0.98" d=" M 389.90 79.01 C 393.45 81.47 396.03 85.18 400.03 87.02 C 406.38 90.72 412.00 96.51 420.14 95.10 L 419.59 95.54 C 418.82 96.23 417.68 96.72 417.37 97.79 C 416.56 99.70 415.95 101.69 415.73 103.76 C 415.20 106.59 414.75 109.51 415.59 112.31 C 416.60 117.33 418.38 122.20 421.06 126.59 C 420.35 128.79 419.66 130.99 418.98 133.19 C 409.50 115.22 399.30 97.10 389.90 79.01 Z" />
</g>
<g id="#9a302de7">
<path fill="#9a302d" opacity="0.91" d=" M 510.96 99.12 C 511.76 92.37 515.65 86.07 521.07 82.04 C 516.84 87.20 514.92 93.90 510.96 99.12 Z" />
</g>
<g id="#8c2730d5">
<path fill="#8c2730" opacity="0.84" d=" M 466.22 83.44 C 469.79 84.59 464.39 89.54 463.03 92.13 C 463.31 89.67 464.10 87.32 464.99 85.02 C 465.30 84.63 465.91 83.84 466.22 83.44 Z" />
</g>
<g id="#952f2adf">
<path fill="#952f2a" opacity="0.87" d=" M 481.28 82.62 C 485.26 86.13 489.45 90.78 489.41 96.39 C 486.78 92.09 482.48 87.46 481.28 82.62 Z" />
</g>
<g id="#c2967bfb">
<path fill="#c2967b" opacity="1.00" d=" M 459.20 96.71 C 459.78 92.30 462.18 88.38 464.99 85.02 C 464.10 87.32 463.31 89.67 463.03 92.13 C 462.88 93.17 462.56 94.15 462.07 95.08 C 461.58 96.35 460.59 98.89 460.09 100.16 C 459.81 99.00 459.51 97.85 459.20 96.71 Z" />
</g>
<g id="#a7332ffb">
<path fill="#a7332f" opacity="1.00" d=" M 598.97 89.08 C 601.68 87.96 604.61 84.33 607.27 87.56 C 597.38 106.21 586.73 124.47 577.77 143.61 C 576.83 145.41 576.06 147.29 575.33 149.17 L 574.59 149.25 C 572.61 147.01 569.78 145.99 567.06 144.98 C 566.82 142.04 566.52 139.10 566.16 136.18 C 582.02 132.97 589.53 113.18 584.71 98.87 C 584.41 97.49 583.49 96.37 582.36 95.58 C 586.65 96.17 593.78 92.21 598.97 89.08 Z" />
</g>
<g id="#d0b9a4fd">
<path fill="#d0b9a4" opacity="1.00" d=" M 539.04 88.80 C 542.37 93.01 543.50 98.51 543.26 103.81 C 543.82 116.67 533.51 133.12 518.87 128.36 C 518.22 127.56 517.59 126.76 516.98 125.95 C 518.70 126.37 520.38 126.96 522.05 127.59 C 523.28 127.59 525.76 127.59 526.99 127.59 C 529.38 125.83 531.81 124.10 534.12 122.21 C 540.78 115.54 542.21 104.59 540.36 95.69 C 539.84 93.41 539.28 91.13 539.04 88.80 Z" />
</g>
<g id="#9d4831e3">
<path fill="#9d4831" opacity="0.89" d=" M 460.09 100.16 C 460.59 98.89 461.58 96.35 462.07 95.08 C 460.72 106.33 463.82 118.07 471.99 126.12 C 462.80 121.28 460.14 109.69 460.09 100.16 Z" />
</g>
<g id="#a2442fed">
<path fill="#a2442f" opacity="0.93" d=" M 540.36 95.69 C 542.21 104.59 540.78 115.54 534.12 122.21 C 538.01 113.85 540.45 105.01 540.36 95.69 Z" />
</g>
<g id="#ac7139f4">
<path fill="#ac7139" opacity="0.96" d=" M 581.30 101.72 C 581.43 99.46 578.18 95.12 582.36 95.58 C 583.49 96.37 584.41 97.49 584.71 98.87 C 586.02 113.83 579.33 132.66 562.89 135.69 C 560.30 135.25 557.19 133.14 558.59 130.21 C 559.80 129.12 562.44 126.48 562.17 129.88 C 561.66 131.23 558.78 132.94 561.27 133.81 C 572.63 134.48 578.97 121.66 581.33 112.28 C 582.07 108.75 582.06 105.24 581.30 101.72 Z" />
</g>
<g id="#53162088">
<path fill="#531620" opacity="0.53" d=" M 434.96 100.73 C 432.11 100.72 434.95 94.61 435.23 98.95 C 435.16 99.40 435.03 100.29 434.96 100.73 Z" />
</g>
<g id="#d6cbbafc">
<path fill="#d6cbba" opacity="1.00" d=" M 459.20 96.71 C 459.51 97.85 459.81 99.00 460.09 100.16 C 460.14 109.69 462.80 121.28 471.99 126.12 C 472.52 126.45 473.59 127.11 474.12 127.44 C 476.14 128.61 478.09 128.64 479.97 127.54 C 481.37 126.79 482.79 126.05 484.32 125.58 C 481.83 131.65 469.59 129.65 465.91 123.82 C 459.56 116.98 458.05 107.73 458.89 98.71 C 458.97 98.21 459.12 97.21 459.20 96.71 Z" />
</g>
<g id="#d5c5b1ff">
<path fill="#d5c5b1" opacity="1.00" d=" M 417.37 97.79 C 415.92 111.12 419.12 125.97 431.65 133.35 C 433.27 135.42 440.14 132.94 438.30 136.43 C 430.77 137.12 425.74 131.43 421.06 126.59 C 418.38 122.20 416.60 117.33 415.59 112.31 C 415.61 109.45 415.66 106.61 415.73 103.76 C 415.95 101.69 416.56 99.70 417.37 97.79 Z" />
</g>
<g id="#9a2a3bf9">
<path fill="#9a2a3b" opacity="0.98" d=" M 559.74 104.25 C 563.13 103.66 564.93 100.31 566.92 97.82 C 565.84 105.64 567.76 113.89 573.68 119.35 C 575.30 125.52 565.27 125.52 562.17 129.88 C 562.44 126.48 559.80 129.12 558.59 130.21 C 551.96 123.74 556.53 112.09 559.74 104.25 Z" />
<path fill="#9a2a3b" opacity="0.98" d=" M 435.23 98.95 C 437.23 100.59 439.23 102.22 441.26 103.84 C 442.74 106.45 443.65 109.32 444.74 112.11 C 445.69 118.01 448.47 126.18 443.81 130.96 C 441.45 129.78 439.68 124.80 436.82 127.36 C 433.53 126.62 430.35 123.18 426.99 121.79 C 431.51 115.73 436.05 108.91 434.96 100.73 C 435.03 100.29 435.16 99.40 435.23 98.95 Z" />
</g>
<g id="#b58546ff">
<path fill="#b58546" opacity="1.00" d=" M 454.27 109.45 C 458.29 107.30 458.83 103.01 458.89 98.71 C 458.05 107.73 459.56 116.98 465.91 123.82 C 464.44 129.11 466.86 135.62 463.28 140.17 C 459.82 140.25 456.44 140.40 453.05 140.95 C 454.85 130.54 453.44 119.94 454.27 109.45 Z" />
</g>
<g id="#d3bfa9ff">
<path fill="#d3bfa9" opacity="1.00" d=" M 562.89 135.69 C 579.33 132.66 586.02 113.83 584.71 98.87 C 589.53 113.18 582.02 132.97 566.16 136.18 C 565.34 136.06 563.70 135.81 562.89 135.69 Z" />
</g>
<g id="#4e2d1571">
<path fill="#4e2d15" opacity="0.44" d=" M 581.30 101.72 C 582.06 105.24 582.07 108.75 581.33 112.28 C 581.04 108.76 580.79 105.23 581.30 101.72 Z" />
</g>
<g id="#b27738ff">
<path fill="#b27738" opacity="1.00" d=" M 494.79 103.53 C 499.13 103.10 506.45 101.37 509.21 105.74 C 509.02 108.47 508.96 111.20 509.04 113.93 C 509.78 117.90 511.48 121.81 515.21 123.75 C 515.82 124.46 516.41 125.20 516.98 125.95 C 517.59 126.76 518.22 127.56 518.87 128.36 C 518.22 131.56 517.49 134.74 516.89 137.95 C 515.12 137.97 511.59 138.02 509.82 138.05 C 506.85 138.00 503.97 138.01 501.04 137.97 C 499.78 127.44 500.58 116.87 500.64 106.31 C 499.58 104.03 496.95 103.86 494.79 103.53 Z" />
</g>
<g id="#be7869ff">
<path fill="#be7869" opacity="1.00" d=" M 415.59 112.31 C 414.75 109.51 415.20 106.59 415.73 103.76 C 415.66 106.61 415.61 109.45 415.59 112.31 Z" />
</g>
<g id="#b58848ff">
<path fill="#b58848" opacity="1.00" d=" M 492.97 107.19 C 493.07 105.66 492.64 103.60 494.79 103.53 C 496.95 103.86 499.58 104.03 500.64 106.31 C 500.58 116.87 499.78 127.44 501.04 137.97 C 496.02 138.00 491.05 138.02 486.05 137.96 C 486.94 133.65 487.26 129.24 485.92 125.00 L 486.30 124.11 C 490.48 122.39 491.40 117.81 492.43 113.90 C 493.07 111.67 493.24 109.44 492.97 107.19 Z" />
</g>
<g id="#ae582fff">
<path fill="#ae582f" opacity="1.00" d=" M 543.26 103.81 C 551.48 114.16 544.27 128.85 547.97 140.77 C 545.95 140.49 543.95 140.14 541.93 139.97 C 533.59 139.09 525.19 139.20 516.89 137.95 C 517.49 134.74 518.22 131.56 518.87 128.36 C 533.51 133.12 543.82 116.67 543.26 103.81 Z" />
</g>
<g id="#643f1d8f">
<path fill="#643f1d" opacity="0.56" d=" M 492.40 107.04 L 492.97 107.19 C 493.24 109.44 493.07 111.67 492.43 113.90 C 491.44 111.88 491.13 109.00 492.40 107.04 Z" />
</g>
<g id="#9b2e32f5">
<path fill="#9b2e32" opacity="0.96" d=" M 480.06 118.24 C 484.16 116.73 488.30 115.32 492.43 113.90 C 491.40 117.81 490.48 122.39 486.30 124.11 C 484.06 122.33 481.11 121.10 480.06 118.24 Z" />
</g>
<g id="#992d36f3">
<path fill="#992d36" opacity="0.95" d=" M 509.04 113.93 C 513.31 115.57 517.59 117.06 522.06 118.13 C 520.98 121.17 517.74 122.20 515.21 123.75 C 511.48 121.81 509.78 117.90 509.04 113.93 Z" />
</g>
<g id="#bb9f60fe">
<path fill="#bb9f60" opacity="1.00" d=" M 465.91 123.82 C 469.59 129.65 481.83 131.65 484.32 125.58 C 484.72 125.44 485.52 125.15 485.92 125.00 C 487.26 129.24 486.94 133.65 486.05 137.96 C 482.90 138.05 479.83 138.05 476.74 138.53 C 472.21 138.78 467.70 139.16 463.28 140.17 C 466.86 135.62 464.44 129.11 465.91 123.82 Z" />
</g>
<g id="#ab492efc">
<path fill="#ab492e" opacity="1.00" d=" M 418.98 133.19 C 419.66 130.99 420.35 128.79 421.06 126.59 C 425.74 131.43 430.77 137.12 438.30 136.43 C 437.82 138.94 437.49 141.48 437.03 143.99 C 433.17 145.53 429.28 147.19 426.19 150.03 C 425.96 148.93 425.69 147.84 425.36 146.78 C 423.43 142.17 420.42 137.97 418.98 133.19 Z" />
</g>
<g id="#847f7a9d">
<path fill="#847f7a" opacity="0.62" d=" M 474.12 127.44 C 475.67 126.17 478.43 126.26 479.97 127.54 C 478.09 128.64 476.14 128.61 474.12 127.44 Z" />
</g>
<g id="#7c787498">
<path fill="#7c7874" opacity="0.60" d=" M 522.05 127.59 C 523.14 126.13 525.91 126.07 526.99 127.59 C 525.76 127.59 523.28 127.59 522.05 127.59 Z" />
</g>
<g id="#d5c8b0ff">
<path fill="#d5c8b0" opacity="1.00" d=" M 476.74 138.53 C 479.83 138.05 482.90 138.05 486.05 137.96 C 491.05 138.02 496.02 138.00 501.04 137.97 C 503.97 138.01 506.85 138.00 509.82 138.05 C 510.17 138.51 510.85 139.42 511.20 139.87 C 499.75 139.34 487.93 141.71 476.74 138.53 Z" />
</g>
<g id="#c8b082ff">
<path fill="#c8b082" opacity="1.00" d=" M 509.82 138.05 C 511.59 138.02 515.12 137.97 516.89 137.95 C 525.19 139.20 533.59 139.09 541.93 139.97 C 542.59 141.08 543.23 142.19 543.86 143.32 C 532.54 142.06 521.14 141.79 509.77 141.83 C 512.32 141.06 516.17 139.93 511.20 139.87 C 510.85 139.42 510.17 138.51 509.82 138.05 Z" />
</g>
<g id="#e0ddd8ff">
<path fill="#e0ddd8" opacity="1.00" d=" M 463.28 140.17 C 467.70 139.16 472.21 138.78 476.74 138.53 C 487.93 141.71 499.75 139.34 511.20 139.87 C 516.17 139.93 512.32 141.06 509.77 141.83 C 503.91 141.98 498.06 141.98 492.22 142.20 C 488.03 142.08 483.87 142.23 479.73 142.71 C 476.48 142.85 473.31 143.00 470.09 143.11 C 467.18 141.83 464.79 142.09 462.92 143.87 C 460.32 144.01 457.74 144.17 455.16 144.35 C 447.93 141.68 463.38 144.03 463.28 140.17 Z" />
</g>
<g id="#d1bda1ff">
<path fill="#d1bda1" opacity="1.00" d=" M 453.05 140.95 C 456.44 140.40 459.82 140.25 463.28 140.17 C 463.38 144.03 447.93 141.68 455.16 144.35 C 452.83 144.67 450.51 144.97 448.19 145.25 C 445.32 145.62 444.45 144.44 445.93 142.02 C 448.31 141.73 450.68 141.36 453.05 140.95 Z" />
</g>
<g id="#ba9854ff">
<path fill="#ba9854" opacity="1.00" d=" M 541.93 139.97 C 543.95 140.14 545.95 140.49 547.97 140.77 C 554.46 141.51 560.77 143.26 567.06 144.98 C 569.78 145.99 572.61 147.01 574.59 149.25 C 564.35 148.42 554.29 144.15 543.86 143.32 C 543.23 142.19 542.59 141.08 541.93 139.97 Z" />
</g>
<g id="#c4a072ff">
<path fill="#c4a072" opacity="1.00" d=" M 437.03 143.99 C 439.96 143.20 442.91 142.41 445.93 142.02 C 444.45 144.44 445.32 145.62 448.19 145.25 C 440.25 145.61 432.89 148.78 425.65 151.80 C 425.79 151.35 426.05 150.47 426.19 150.03 C 429.28 147.19 433.17 145.53 437.03 143.99 Z" />
</g>
<g id="#c7ac80ff">
<path fill="#c7ac80" opacity="1.00" d=" M 479.73 142.71 C 483.87 142.23 488.03 142.08 492.22 142.20 C 488.07 142.84 483.89 142.78 479.73 142.71 Z" />
</g>
<g id="#b17030fe">
<path fill="#b17030" opacity="1.00" d=" M 492.22 142.20 C 498.06 141.98 503.91 141.98 509.77 141.83 C 521.14 141.79 532.54 142.06 543.86 143.32 C 554.29 144.15 564.35 148.42 574.59 149.25 L 575.33 149.17 C 575.56 151.39 575.81 153.62 576.06 155.86 C 575.51 156.58 574.94 157.30 574.36 158.00 C 571.35 150.51 561.56 150.80 555.16 148.79 C 519.85 143.44 483.67 143.51 448.32 148.35 C 441.57 150.93 429.66 149.98 427.61 158.15 C 425.99 156.50 424.30 154.12 425.65 151.80 C 432.89 148.78 440.25 145.61 448.19 145.25 C 450.51 144.97 452.83 144.67 455.16 144.35 C 457.74 144.17 460.32 144.01 462.92 143.87 C 465.83 145.17 468.22 144.92 470.09 143.11 C 473.31 143.00 476.48 142.85 479.73 142.71 C 483.89 142.78 488.07 142.84 492.22 142.20 Z" />
</g>
<g id="#c9a983ff">
<path fill="#c9a983" opacity="1.00" d=" M 462.92 143.87 C 464.79 142.09 467.18 141.83 470.09 143.11 C 468.22 144.92 465.83 145.17 462.92 143.87 Z" />
</g>
<g id="#02010125">
<path fill="#020101" opacity="0.15" d=" M 575.33 149.17 C 576.06 147.29 576.83 145.41 577.77 143.61 C 588.61 154.91 583.42 171.88 578.85 184.83 C 577.96 184.62 577.10 184.36 576.26 184.06 C 574.80 182.69 573.24 181.44 571.70 180.17 C 575.92 172.81 578.32 164.32 576.06 155.86 C 575.81 153.62 575.56 151.39 575.33 149.17 Z" />
</g>
<g id="#9f2d39ff">
<path fill="#9f2d39" opacity="1.00" d=" M 448.32 148.35 C 483.67 143.51 519.85 143.44 555.16 148.79 C 561.56 150.80 571.35 150.51 574.36 158.00 C 573.13 159.70 571.12 160.41 569.27 161.19 C 569.61 156.27 563.10 154.31 559.70 155.65 C 558.20 162.16 559.36 169.40 558.81 176.24 C 555.14 175.89 551.55 175.46 547.94 174.87 C 553.51 173.19 557.48 166.31 554.10 160.99 C 551.46 157.08 547.37 153.75 542.21 155.42 C 536.67 150.05 528.05 151.19 521.01 150.04 C 515.65 149.89 510.33 149.94 504.99 150.03 C 496.02 150.01 487.06 149.90 478.10 149.99 C 472.39 150.13 466.74 151.18 461.10 151.94 C 454.77 150.90 449.45 154.39 444.02 156.61 C 440.14 155.89 431.49 154.64 431.87 161.03 C 430.40 160.15 428.83 159.36 427.61 158.15 C 429.66 149.98 441.57 150.93 448.32 148.35 Z" />
</g>
<g id="#0403022e">
<path fill="#040302" opacity="0.18" d=" M 425.36 146.78 C 425.69 147.84 425.96 148.93 426.19 150.03 C 426.05 150.47 425.79 151.35 425.65 151.80 C 424.30 154.12 425.99 156.50 427.61 158.15 C 428.83 159.36 430.40 160.15 431.87 161.03 C 432.11 161.51 432.61 162.46 432.86 162.94 C 428.42 165.31 427.62 171.22 429.99 175.29 C 430.79 176.52 431.61 177.74 432.39 179.00 C 430.29 180.28 428.18 181.54 426.21 183.02 C 424.18 176.44 419.84 170.28 420.98 163.02 C 420.48 157.13 424.45 152.38 425.36 146.78 Z" />
</g>
<g id="#af5f30ff">
<path fill="#af5f30" opacity="1.00" d=" M 461.10 151.94 C 466.74 151.18 472.39 150.13 478.10 149.99 C 472.48 155.84 474.55 165.61 475.85 173.02 C 471.59 173.31 467.38 174.08 463.12 174.22 C 458.34 173.94 467.17 169.21 464.56 165.78 C 464.59 161.89 463.21 158.21 460.27 155.70 C 460.56 154.45 460.83 153.20 461.10 151.94 Z" />
</g>
<g id="#af7a30ff">
<path fill="#af7a30" opacity="1.00" d=" M 478.10 149.99 C 487.06 149.90 496.02 150.01 504.99 150.03 C 504.97 150.77 504.94 152.25 504.93 152.99 C 494.55 148.84 486.43 162.88 495.03 170.00 C 495.91 171.09 496.92 172.07 497.93 173.06 C 490.56 172.93 483.20 172.98 475.85 173.02 C 474.55 165.61 472.48 155.84 478.10 149.99 Z" />
</g>
<g id="#af5c32ff">
<path fill="#af5c32" opacity="1.00" d=" M 504.99 150.03 C 510.33 149.94 515.65 149.89 521.01 150.04 C 520.99 157.67 520.99 165.30 521.00 172.93 C 515.33 172.97 509.66 173.05 504.00 173.07 C 504.88 172.07 506.33 171.33 506.43 169.85 C 506.80 169.20 507.20 168.56 507.62 167.94 C 508.96 170.05 510.98 167.30 509.44 165.91 C 510.96 160.93 508.98 155.99 504.93 152.99 C 504.94 152.25 504.97 150.77 504.99 150.03 Z" />
</g>
<g id="#ac432eff">
<path fill="#ac432e" opacity="1.00" d=" M 521.01 150.04 C 528.05 151.19 536.67 150.05 542.21 155.42 C 538.67 158.17 535.25 162.43 537.56 167.26 C 538.25 168.87 539.61 170.03 540.77 171.29 L 540.99 172.02 C 540.71 173.40 539.66 174.09 538.35 174.43 C 532.56 173.99 526.80 173.16 521.00 172.93 C 520.99 165.30 520.99 157.67 521.01 150.04 Z" />
</g>
<g id="#a93730fe">
<path fill="#a93730" opacity="1.00" d=" M 444.02 156.61 C 449.45 154.39 454.77 150.90 461.10 151.94 C 460.83 153.20 460.56 154.45 460.27 155.70 C 449.81 150.85 443.17 164.93 450.07 171.97 C 450.93 173.02 451.93 173.96 452.86 174.95 C 445.95 175.84 439.07 176.98 432.39 179.00 C 431.61 177.74 430.79 176.52 429.99 175.29 C 432.49 173.21 428.76 166.51 432.86 162.94 C 432.61 162.46 432.11 161.51 431.87 161.03 C 431.49 154.64 440.14 155.89 444.02 156.61 Z" />
</g>
<g id="#350b08ff">
<path fill="#350b08" opacity="1.00" d=" M 495.03 170.00 C 486.43 162.88 494.55 148.84 504.93 152.99 C 508.98 155.99 510.96 160.93 509.44 165.91 C 508.98 166.42 508.07 167.43 507.62 167.94 C 507.20 168.56 506.80 169.20 506.43 169.85 C 502.71 171.08 498.71 171.48 495.03 170.00 M 495.78 156.95 C 488.60 161.42 497.31 173.17 503.94 168.94 C 511.07 166.67 508.78 154.02 501.07 154.96 C 499.10 154.90 496.51 154.58 495.78 156.95 Z" />
</g>
<g id="#380a08ff">
<path fill="#380a08" opacity="1.00" d=" M 450.07 171.97 C 443.17 164.93 449.81 150.85 460.27 155.70 C 463.21 158.21 464.59 161.89 464.56 165.78 C 464.26 166.40 463.66 167.64 463.36 168.26 C 463.73 165.43 463.32 162.89 462.15 160.63 C 461.21 159.52 460.18 158.47 459.06 157.55 C 456.70 156.20 453.68 157.07 451.85 158.81 C 444.30 164.94 452.95 175.64 461.24 171.28 C 458.59 174.58 453.56 172.95 450.07 171.97 Z" />
</g>
<g id="#ddbf6bff">
<path fill="#ddbf6b" opacity="1.00" d=" M 495.78 156.95 C 496.51 154.58 499.10 154.90 501.07 154.96 C 503.40 158.46 495.99 161.59 495.78 156.95 Z" />
</g>
<g id="#c41005ff">
<path fill="#c41005" opacity="1.00" d=" M 501.07 154.96 C 508.78 154.02 511.07 166.67 503.94 168.94 C 497.31 173.17 488.60 161.42 495.78 156.95 C 495.99 161.59 503.40 158.46 501.07 154.96 Z" />
</g>
<g id="#2e0607ff">
<path fill="#2e0607" opacity="1.00" d=" M 542.21 155.42 C 547.37 153.75 551.46 157.08 554.10 160.99 C 556.65 169.06 548.33 176.48 540.99 172.02 L 540.77 171.29 C 546.20 173.57 554.49 170.02 552.68 163.34 C 551.65 159.45 548.35 156.21 544.06 156.92 C 542.37 157.58 540.73 158.50 539.57 159.92 C 538.02 162.05 537.88 164.75 537.56 167.26 C 535.25 162.43 538.67 158.17 542.21 155.42 Z" />
</g>
<g id="#ae5332ff">
<path fill="#ae5332" opacity="1.00" d=" M 559.70 155.65 C 563.10 154.31 569.61 156.27 569.27 161.19 C 569.40 162.02 569.54 162.86 569.70 163.70 C 568.14 165.56 570.35 166.94 572.14 166.79 C 572.08 169.47 571.99 172.15 571.89 174.83 C 570.76 176.07 569.64 177.33 568.72 178.73 C 565.44 177.85 562.09 177.08 558.81 176.24 C 559.36 169.40 558.20 162.16 559.70 155.65 Z" />
</g>
<g id="#05030251">
<path fill="#050302" opacity="0.32" d=" M 574.36 158.00 C 574.94 157.30 575.51 156.58 576.06 155.86 C 578.32 164.32 575.92 172.81 571.70 180.17 C 570.70 179.69 569.71 179.21 568.72 178.73 C 569.64 177.33 570.76 176.07 571.89 174.83 C 573.53 172.46 573.44 168.67 572.31 166.01 C 571.77 164.91 570.90 164.14 569.70 163.70 C 569.54 162.86 569.40 162.02 569.27 161.19 C 571.12 160.41 573.13 159.70 574.36 158.00 Z" />
</g>
<g id="#cd4426ff">
<path fill="#cd4426" opacity="1.00" d=" M 451.85 158.81 C 453.68 157.07 456.70 156.20 459.06 157.55 C 457.49 158.25 455.32 158.93 456.84 160.89 C 455.08 161.09 453.34 161.36 451.60 161.65 C 451.66 160.94 451.78 159.52 451.85 158.81 Z" />
</g>
<g id="#d8b866ff">
<path fill="#d8b866" opacity="1.00" d=" M 539.57 159.92 C 540.73 158.50 542.37 157.58 544.06 156.92 C 548.09 160.15 541.41 165.18 539.57 159.92 Z" />
</g>
<g id="#c1150fff">
<path fill="#c1150f" opacity="1.00" d=" M 544.06 156.92 C 548.35 156.21 551.65 159.45 552.68 163.34 C 554.49 170.02 546.20 173.57 540.77 171.29 C 539.61 170.03 538.25 168.87 537.56 167.26 C 537.88 164.75 538.02 162.05 539.57 159.92 C 541.41 165.18 548.09 160.15 544.06 156.92 M 543.15 167.50 C 542.80 169.28 545.66 169.62 546.94 169.64 C 549.30 167.77 544.36 167.39 543.15 167.50 Z" />
</g>
<g id="#e0c76cff">
<path fill="#e0c76c" opacity="1.00" d=" M 456.84 160.89 C 455.32 158.93 457.49 158.25 459.06 157.55 C 460.18 158.47 461.21 159.52 462.15 160.63 C 461.53 160.95 460.29 161.59 459.68 161.91 L 459.02 162.24 C 458.48 161.90 457.39 161.23 456.84 160.89 Z" />
</g>
<g id="#bc0903ff">
<path fill="#bc0903" opacity="1.00" d=" M 461.24 171.28 C 452.95 175.64 444.30 164.94 451.85 158.81 C 451.78 159.52 451.66 160.94 451.60 161.65 C 449.66 163.66 450.67 166.88 452.62 168.49 C 455.13 172.99 464.55 165.63 459.68 161.91 C 460.29 161.59 461.53 160.95 462.15 160.63 C 463.32 162.89 463.73 165.43 463.36 168.26 C 462.83 169.37 462.14 170.42 461.24 171.28 Z" />
</g>
<g id="#c80101ff">
<path fill="#c80101" opacity="1.00" d=" M 451.60 161.65 C 453.34 161.36 455.08 161.09 456.84 160.89 C 457.39 161.23 458.48 161.90 459.02 162.24 C 459.61 166.54 456.87 169.05 452.62 168.49 C 452.24 166.22 451.92 163.93 451.60 161.65 Z" />
</g>
<g id="#b8975ffe">
<path fill="#b8975f" opacity="1.00" d=" M 554.10 160.99 C 557.48 166.31 553.51 173.19 547.94 174.87 C 551.55 175.46 555.14 175.89 558.81 176.24 C 562.09 177.08 565.44 177.85 568.72 178.73 C 569.71 179.21 570.70 179.69 571.70 180.17 C 573.24 181.44 574.80 182.69 576.26 184.06 C 576.44 185.55 576.07 186.45 575.15 186.75 C 562.45 177.46 545.44 180.08 530.74 177.43 C 533.61 177.35 536.37 176.60 538.35 174.43 C 539.66 174.09 540.71 173.40 540.99 172.02 C 548.33 176.48 556.65 169.06 554.10 160.99 Z" />
</g>
<g id="#d36263ff">
<path fill="#d36263" opacity="1.00" d=" M 452.62 168.49 C 450.67 166.88 449.66 163.66 451.60 161.65 C 451.92 163.93 452.24 166.22 452.62 168.49 Z" />
</g>
<g id="#d25b55ff">
<path fill="#d25b55" opacity="1.00" d=" M 459.02 162.24 L 459.68 161.91 C 464.55 165.63 455.13 172.99 452.62 168.49 C 456.87 169.05 459.61 166.54 459.02 162.24 Z" />
</g>
<g id="#b1867cee">
<path fill="#b1867c" opacity="0.93" d=" M 429.99 175.29 C 427.62 171.22 428.42 165.31 432.86 162.94 C 428.76 166.51 432.49 173.21 429.99 175.29 Z" />
</g>
<g id="#bda787f5">
<path fill="#bda787" opacity="0.96" d=" M 572.14 166.79 C 570.35 166.94 568.14 165.56 569.70 163.70 C 570.90 164.14 571.77 164.91 572.31 166.01 L 572.14 166.79 Z" />
</g>
<g id="#c4a27efe">
<path fill="#c4a27e" opacity="1.00" d=" M 464.56 165.78 C 467.17 169.21 458.34 173.94 463.12 174.22 C 460.42 174.61 456.42 173.06 455.34 176.47 C 453.84 177.85 445.99 178.10 451.15 179.32 C 442.71 180.07 433.48 181.06 426.79 186.80 C 425.88 186.42 425.59 185.47 425.93 183.96 L 426.21 183.02 C 428.18 181.54 430.29 180.28 432.39 179.00 C 439.07 176.98 445.95 175.84 452.86 174.95 C 451.93 173.96 450.93 173.02 450.07 171.97 C 453.56 172.95 458.59 174.58 461.24 171.28 C 462.14 170.42 462.83 169.37 463.36 168.26 C 463.66 167.64 464.26 166.40 464.56 165.78 Z" />
</g>
<g id="#c2b1acff">
<path fill="#c2b1ac" opacity="1.00" d=" M 509.44 165.91 C 510.98 167.30 508.96 170.05 507.62 167.94 C 508.07 167.43 508.98 166.42 509.44 165.91 Z" />
</g>
<g id="#58545099">
<path fill="#585450" opacity="0.60" d=" M 572.31 166.01 C 573.44 168.67 573.53 172.46 571.89 174.83 C 571.99 172.15 572.08 169.47 572.14 166.79 L 572.31 166.01 Z" />
</g>
<g id="#d56263ff">
<path fill="#d56263" opacity="1.00" d=" M 543.15 167.50 C 544.36 167.39 549.30 167.77 546.94 169.64 C 545.66 169.62 542.80 169.28 543.15 167.50 Z" />
</g>
<g id="#cbb491ff">
<path fill="#cbb491" opacity="1.00" d=" M 495.03 170.00 C 498.71 171.48 502.71 171.08 506.43 169.85 C 506.33 171.33 504.88 172.07 504.00 173.07 C 509.66 173.05 515.33 172.97 521.00 172.93 C 526.80 173.16 532.56 173.99 538.35 174.43 C 536.37 176.60 533.61 177.35 530.74 177.43 C 516.43 176.51 502.09 177.36 487.77 176.75 C 494.46 175.90 501.21 176.05 507.95 176.01 C 506.92 173.05 499.96 176.94 497.93 173.06 C 496.92 172.07 495.91 171.09 495.03 170.00 Z" />
</g>
<g id="#dcd3c8ff">
<path fill="#dcd3c8" opacity="1.00" d=" M 463.12 174.22 C 467.38 174.08 471.59 173.31 475.85 173.02 C 483.20 172.98 490.56 172.93 497.93 173.06 C 499.96 176.94 506.92 173.05 507.95 176.01 C 501.21 176.05 494.46 175.90 487.77 176.75 C 483.94 176.92 480.11 177.11 476.29 177.34 C 473.39 177.35 470.55 177.19 467.70 177.62 C 462.17 178.04 456.67 178.79 451.15 179.32 C 445.99 178.10 453.84 177.85 455.34 176.47 C 456.42 173.06 460.42 174.61 463.12 174.22 Z" />
</g>
<g id="#c49278ff">
<path fill="#c49278" opacity="1.00" d=" M 467.70 177.62 C 470.55 177.19 473.39 177.35 476.29 177.34 C 473.46 177.87 470.53 177.60 467.70 177.62 Z" />
</g>
<g id="#ad4230ff">
<path fill="#ad4230" opacity="1.00" d=" M 476.29 177.34 C 480.11 177.11 483.94 176.92 487.77 176.75 C 502.09 177.36 516.43 176.51 530.74 177.43 C 545.44 180.08 562.45 177.46 575.15 186.75 C 573.44 186.75 570.00 186.75 568.28 186.75 C 554.28 182.56 539.42 181.59 524.89 180.89 C 517.64 180.31 510.38 179.90 503.12 179.92 C 492.79 180.06 482.42 179.49 472.16 180.89 C 470.33 180.92 466.68 180.99 464.86 181.02 C 458.69 182.80 448.17 179.57 445.91 186.96 C 445.20 186.98 443.80 187.01 443.10 187.03 C 441.37 187.06 437.92 187.10 436.19 187.13 C 433.02 187.06 429.92 187.07 426.79 186.80 C 433.48 181.06 442.71 180.07 451.15 179.32 C 456.67 178.79 462.17 178.04 467.70 177.62 C 470.53 177.60 473.46 177.87 476.29 177.34 Z" />
</g>
<g id="#caaa84ff">
<path fill="#caaa84" opacity="1.00" d=" M 472.16 180.89 C 482.42 179.49 492.79 180.06 503.12 179.92 C 507.35 188.17 495.71 183.77 490.72 185.70 C 484.51 185.99 478.31 186.00 472.12 186.06 C 472.94 184.40 472.83 182.58 472.16 180.89 Z" />
</g>
<g id="#bc8c56ff">
<path fill="#bc8c56" opacity="1.00" d=" M 503.12 179.92 C 510.38 179.90 517.64 180.31 524.89 180.89 C 524.45 182.54 524.11 184.21 523.83 185.90 C 512.79 186.04 501.74 186.17 490.72 185.70 C 495.71 183.77 507.35 188.17 503.12 179.92 Z" />
</g>
<g id="#b36a39ff">
<path fill="#b36a39" opacity="1.00" d=" M 445.91 186.96 C 448.17 179.57 458.69 182.80 464.86 181.02 C 462.25 185.35 466.58 187.42 471.12 186.09 L 470.94 187.01 C 467.99 187.04 465.13 187.07 462.22 187.20 C 456.77 187.12 451.35 187.00 445.91 186.96 Z" />
</g>
<g id="#be8b5cff">
<path fill="#be8b5c" opacity="1.00" d=" M 464.86 181.02 C 466.68 180.99 470.33 180.92 472.16 180.89 C 472.83 182.58 472.94 184.40 472.12 186.06 L 471.12 186.09 C 466.58 187.42 462.25 185.35 464.86 181.02 Z" />
</g>
<g id="#b37532ff">
<path fill="#b37532" opacity="1.00" d=" M 524.89 180.89 C 539.42 181.59 554.28 182.56 568.28 186.75 C 563.77 186.86 559.29 187.02 554.81 187.12 C 547.61 187.00 540.42 186.99 533.24 186.74 C 530.07 186.39 526.99 186.04 523.83 185.90 C 524.11 184.21 524.45 182.54 524.89 180.89 Z" />
</g>
<g id="#8b5644fe">
<path fill="#8b5644" opacity="1.00" d=" M 423.93 187.95 C 426.20 188.04 423.73 183.93 425.93 183.96 C 425.59 185.47 425.88 186.42 426.79 186.80 C 429.92 187.07 433.02 187.06 436.19 187.13 C 431.48 187.98 431.19 193.43 428.26 196.26 C 416.86 207.47 401.63 213.80 389.00 223.13 C 378.54 227.53 367.92 231.62 357.88 236.93 C 358.30 234.34 357.03 230.68 361.06 230.03 C 379.89 217.63 401.51 209.47 418.80 194.78 C 421.47 193.07 418.59 191.26 417.31 189.72 C 417.26 188.37 422.09 188.74 423.93 187.95 Z" />
</g>
<g id="#7a4b3cfe">
<path fill="#7a4b3c" opacity="1.00" d=" M 576.26 184.06 C 577.10 184.36 577.96 184.62 578.85 184.83 C 585.30 186.44 595.15 187.65 599.62 189.67 C 598.70 190.29 597.79 190.91 596.93 191.60 C 622.94 199.34 648.08 210.31 670.93 224.96 C 670.23 226.00 669.52 227.02 668.93 228.11 C 689.86 250.01 714.10 268.18 737.02 287.98 C 785.15 331.46 819.98 389.04 837.60 451.36 C 838.89 456.91 841.04 462.43 840.85 468.23 C 826.75 411.10 799.92 356.58 759.74 313.26 C 733.11 283.69 701.08 259.25 666.62 239.44 C 642.62 226.72 624.94 203.23 597.74 196.35 C 588.03 193.95 579.12 188.40 569.08 187.94 C 567.13 187.90 565.20 187.99 563.27 188.09 C 561.55 188.13 558.13 188.20 556.41 188.23 C 556.01 187.95 555.21 187.40 554.81 187.12 C 559.29 187.02 563.77 186.86 568.28 186.75 C 570.00 186.75 573.44 186.75 575.15 186.75 C 576.07 186.45 576.44 185.55 576.26 184.06 Z" />
</g>
<g id="#9c2e38ff">
<path fill="#9c2e38" opacity="1.00" d=" M 471.12 186.09 L 472.12 186.06 C 478.31 186.00 484.51 185.99 490.72 185.70 C 501.74 186.17 512.79 186.04 523.83 185.90 C 526.99 186.04 530.07 186.39 533.24 186.74 C 530.39 186.92 527.55 187.12 524.72 187.32 C 508.56 186.77 492.38 186.89 476.22 187.19 C 474.45 187.14 472.69 187.06 470.94 187.01 L 471.12 186.09 Z" />
</g>
<g id="#7b4a3bff">
<path fill="#7b4a3b" opacity="1.00" d=" M 436.19 187.13 C 437.92 187.10 441.37 187.06 443.10 187.03 C 438.52 189.27 440.78 195.28 437.79 198.79 C 431.57 205.21 423.52 209.37 416.11 214.22 C 407.00 217.00 398.07 220.26 389.00 223.13 C 401.63 213.80 416.86 207.47 428.26 196.26 C 431.19 193.43 431.48 187.98 436.19 187.13 Z" />
</g>
<g id="#683e32ff">
<path fill="#683e32" opacity="1.00" d=" M 443.10 187.03 C 443.80 187.01 445.20 186.98 445.91 186.96 C 451.35 187.00 456.77 187.12 462.22 187.20 C 459.04 187.56 455.93 187.99 452.76 188.15 C 438.01 185.02 453.06 197.10 456.21 201.00 C 453.53 205.29 447.71 205.43 443.61 207.83 C 442.12 208.22 440.65 208.66 439.18 209.10 C 431.35 210.14 423.77 212.38 416.11 214.22 C 423.52 209.37 431.57 205.21 437.79 198.79 C 440.78 195.28 438.52 189.27 443.10 187.03 Z" />
</g>
<g id="#422922fe">
<path fill="#422922" opacity="1.00" d=" M 462.22 187.20 C 465.13 187.07 467.99 187.04 470.94 187.01 C 472.69 187.06 474.45 187.14 476.22 187.19 C 471.73 187.66 467.26 187.81 462.79 188.20 C 477.01 196.31 495.13 193.30 511.00 194.03 C 522.70 193.27 536.03 194.64 546.40 188.25 C 539.17 187.97 531.91 188.18 524.72 187.32 C 527.55 187.12 530.39 186.92 533.24 186.74 C 540.42 186.99 547.61 187.00 554.81 187.12 C 555.21 187.40 556.01 187.95 556.41 188.23 C 546.36 198.48 530.23 196.09 517.65 200.59 C 550.53 205.30 584.52 208.64 614.84 223.19 C 675.89 249.85 732.05 290.24 772.20 343.79 C 809.27 395.51 833.95 456.62 838.52 520.41 C 842.97 567.31 839.23 615.54 823.10 660.05 C 817.47 673.83 813.35 688.86 803.11 700.04 C 799.14 709.14 794.14 720.47 783.25 722.15 C 784.97 728.77 780.47 737.97 772.90 737.93 C 778.40 734.14 782.52 728.18 782.26 721.26 C 785.54 719.13 790.38 719.47 792.07 715.06 C 806.08 694.27 818.02 671.26 824.02 646.88 C 832.29 621.94 836.75 595.42 835.84 569.13 C 833.55 564.56 830.07 560.53 829.63 555.20 C 823.32 557.98 827.70 573.74 818.90 575.97 C 819.40 574.32 819.11 572.59 818.74 570.96 C 818.85 569.28 819.08 565.93 819.19 564.25 C 819.70 560.75 820.04 557.28 819.84 553.77 C 819.92 546.91 820.22 540.06 819.82 533.22 C 819.75 529.39 819.55 525.57 819.21 521.78 C 819.08 519.88 818.95 517.99 818.84 516.11 C 818.68 514.55 818.37 511.44 818.21 509.89 C 809.14 418.59 756.50 333.41 680.11 282.95 C 679.32 281.31 678.51 279.68 677.90 277.98 C 694.78 282.60 708.01 295.24 722.31 304.70 C 724.59 306.48 728.89 313.28 729.80 307.13 C 722.19 300.12 714.53 293.12 706.97 286.09 C 702.49 276.88 693.10 271.86 685.70 265.31 C 646.44 236.57 600.50 216.44 552.14 209.76 C 524.71 203.17 495.83 200.67 468.15 207.31 C 429.64 217.09 390.78 230.43 359.14 255.22 C 359.12 261.60 368.68 255.54 372.04 258.14 C 370.87 261.61 366.10 262.32 364.71 265.88 C 338.40 280.19 313.93 297.72 292.04 318.17 C 292.26 316.79 291.96 315.11 293.33 314.24 C 303.77 305.75 312.56 295.49 323.24 287.26 C 326.75 282.82 322.56 274.87 328.98 271.97 C 341.54 262.98 352.54 251.82 365.89 243.99 C 368.64 242.83 363.67 242.76 362.68 242.10 C 377.98 234.11 393.31 226.10 409.12 219.14 C 418.80 214.75 429.48 213.44 439.18 209.10 C 440.65 208.66 442.12 208.22 443.61 207.83 C 457.95 206.96 473.21 204.09 487.20 200.35 C 475.38 198.03 461.79 197.07 452.76 188.15 C 455.93 187.99 459.04 187.56 462.22 187.20 Z" />
</g>
<g id="#2d1a16ff">
<path fill="#2d1a16" opacity="1.00" d=" M 476.22 187.19 C 492.38 186.89 508.56 186.77 524.72 187.32 C 531.91 188.18 539.17 187.97 546.40 188.25 C 536.03 194.64 522.70 193.27 511.00 194.03 C 495.13 193.30 477.01 196.31 462.79 188.20 C 467.26 187.81 471.73 187.66 476.22 187.19 Z" />
</g>
<g id="#533329ff">
<path fill="#533329" opacity="1.00" d=" M 456.21 201.00 C 453.06 197.10 438.01 185.02 452.76 188.15 C 461.79 197.07 475.38 198.03 487.20 200.35 C 473.21 204.09 457.95 206.96 443.61 207.83 C 447.71 205.43 453.53 205.29 456.21 201.00 Z" />
</g>
<g id="#4e3129ff">
<path fill="#4e3129" opacity="1.00" d=" M 556.41 188.23 C 558.13 188.20 561.55 188.13 563.27 188.09 C 560.92 194.40 553.63 196.33 550.06 201.74 C 575.33 209.29 602.04 212.64 626.30 223.72 C 659.95 237.51 688.70 260.65 717.23 282.74 C 763.24 320.12 798.80 369.89 819.63 425.35 C 843.87 489.01 847.58 559.20 839.28 626.27 C 834.43 648.04 825.78 668.68 816.99 689.09 C 814.49 694.47 811.38 699.54 808.82 704.90 C 806.79 707.30 806.57 702.33 804.22 703.06 C 803.48 705.57 803.02 708.14 802.63 710.73 C 801.31 718.79 792.49 722.64 785.11 723.26 C 787.17 728.75 784.10 733.63 780.96 738.04 C 777.67 739.04 769.70 736.47 771.09 741.77 C 775.10 742.95 780.32 741.46 783.18 745.11 C 772.68 759.72 760.58 773.08 747.93 785.83 C 742.87 790.07 739.03 795.86 733.12 799.02 C 711.37 811.74 690.90 827.09 668.01 838.01 C 614.00 865.22 552.76 877.95 492.40 874.58 C 465.36 873.00 439.80 863.43 415.24 852.68 C 416.53 850.84 418.02 849.13 419.01 847.11 C 412.72 843.84 405.86 841.74 399.57 838.48 C 397.93 838.04 397.90 836.48 399.04 835.45 C 419.62 843.36 441.15 848.11 462.76 852.11 C 469.98 855.97 478.70 855.38 486.03 858.91 C 490.38 863.05 476.89 858.62 477.99 864.75 C 508.31 872.72 539.97 870.00 570.47 864.58 C 631.82 856.71 689.97 829.06 736.31 788.35 C 749.83 775.93 763.98 763.43 773.69 747.67 C 777.13 741.21 764.81 744.44 767.56 738.61 C 769.30 738.17 771.10 738.10 772.90 737.93 C 780.47 737.97 784.97 728.77 783.25 722.15 C 794.14 720.47 799.14 709.14 803.11 700.04 C 813.35 688.86 817.47 673.83 823.10 660.05 C 839.23 615.54 842.97 567.31 838.52 520.41 C 833.95 456.62 809.27 395.51 772.20 343.79 C 732.05 290.24 675.89 249.85 614.84 223.19 C 584.52 208.64 550.53 205.30 517.65 200.59 C 530.23 196.09 546.36 198.48 556.41 188.23 Z" />
</g>
<g id="#5f3a2fff">
<path fill="#5f3a2f" opacity="1.00" d=" M 563.27 188.09 C 565.20 187.99 567.13 187.90 569.08 187.94 C 569.14 193.41 570.47 199.73 576.33 201.66 C 623.40 220.95 672.74 238.18 711.40 272.58 C 754.92 307.35 790.63 351.84 813.12 402.94 C 835.51 451.26 845.31 504.44 848.77 557.24 C 848.46 580.50 845.80 603.90 839.28 626.27 C 847.58 559.20 843.87 489.01 819.63 425.35 C 798.80 369.89 763.24 320.12 717.23 282.74 C 688.70 260.65 659.95 237.51 626.30 223.72 C 602.04 212.64 575.33 209.29 550.06 201.74 C 553.63 196.33 560.92 194.40 563.27 188.09 Z" />
</g>
<g id="#6b4235ff">
<path fill="#6b4235" opacity="1.00" d=" M 569.08 187.94 C 579.12 188.40 588.03 193.95 597.74 196.35 C 624.94 203.23 642.62 226.72 666.62 239.44 C 701.08 259.25 733.11 283.69 759.74 313.26 C 799.92 356.58 826.75 411.10 840.85 468.23 C 845.59 488.38 848.27 509.07 849.23 529.74 C 849.00 538.90 849.00 548.07 848.77 557.24 C 845.31 504.44 835.51 451.26 813.12 402.94 C 790.63 351.84 754.92 307.35 711.40 272.58 C 672.74 238.18 623.40 220.95 576.33 201.66 C 570.47 199.73 569.14 193.41 569.08 187.94 Z" />
</g>
<g id="#9a614cfd">
<path fill="#9a614c" opacity="1.00" d=" M 345.23 216.32 C 368.32 205.28 392.30 195.30 417.31 189.72 C 418.59 191.26 421.47 193.07 418.80 194.78 C 401.51 209.47 379.89 217.63 361.06 230.03 C 357.03 230.68 358.30 234.34 357.88 236.93 C 357.48 237.15 356.66 237.58 356.26 237.80 C 354.68 233.05 348.40 234.49 344.98 231.88 C 345.59 227.87 348.01 224.54 350.00 221.12 C 346.48 222.41 342.97 222.29 342.59 217.81 C 343.46 217.30 344.35 216.81 345.23 216.32 Z" />
</g>
<g id="#8a5748ff">
<path fill="#8a5748" opacity="1.00" d=" M 596.93 191.60 C 597.79 190.91 598.70 190.29 599.62 189.67 C 618.27 194.27 637.80 200.74 654.59 208.75 C 654.55 209.06 654.47 209.69 654.43 210.00 C 709.53 239.49 760.91 278.31 797.43 329.60 C 844.60 393.72 868.49 473.67 868.03 553.00 C 868.38 584.13 866.10 616.31 853.05 645.03 C 843.89 668.04 829.40 688.62 812.76 706.78 C 810.93 710.17 805.14 706.74 804.13 708.88 C 804.05 710.18 804.00 711.50 803.97 712.82 L 803.89 713.70 L 803.23 714.33 C 803.08 713.43 802.78 711.63 802.63 710.73 C 803.02 708.14 803.48 705.57 804.22 703.06 C 806.57 702.33 806.79 707.30 808.82 704.90 C 827.59 685.20 840.66 660.99 851.16 636.06 C 870.40 599.85 864.64 557.08 856.47 518.58 C 847.32 470.19 832.95 422.56 812.15 377.86 C 800.66 353.73 785.30 331.81 770.13 309.92 C 749.22 286.15 724.28 266.42 702.24 243.80 C 693.47 236.72 683.73 230.86 674.32 224.70 C 673.25 223.75 672.01 224.59 670.93 224.96 C 648.08 210.31 622.94 199.34 596.93 191.60 Z" />
</g>
<g id="#34343435">
<path fill="#343434" opacity="0.21" d=" M 317.02 211.93 C 317.76 207.77 316.31 200.09 320.80 199.09 C 322.44 203.49 322.27 209.04 323.04 213.92 C 320.44 220.38 327.04 223.86 332.21 223.06 L 331.72 223.62 C 330.14 224.52 328.56 225.42 326.98 226.31 C 318.83 223.67 324.12 211.58 319.98 207.03 C 317.07 211.39 319.23 219.73 316.20 225.24 C 313.72 228.28 310.17 225.88 307.21 225.12 C 304.95 227.11 309.18 230.10 307.86 232.74 C 305.26 235.94 300.64 235.72 296.91 235.99 C 296.13 235.94 294.57 235.85 293.78 235.80 C 298.35 236.29 303.54 234.25 304.49 229.39 C 306.11 226.35 300.36 223.94 303.00 221.13 C 309.47 226.82 320.57 221.19 317.02 211.93 Z" />
</g>
<g id="#3b241dfe">
<path fill="#3b241d" opacity="1.00" d=" M 468.15 207.31 C 495.83 200.67 524.71 203.17 552.14 209.76 C 600.50 216.44 646.44 236.57 685.70 265.31 C 693.10 271.86 702.49 276.88 706.97 286.09 C 714.53 293.12 722.19 300.12 729.80 307.13 C 728.89 313.28 724.59 306.48 722.31 304.70 C 708.01 295.24 694.78 282.60 677.90 277.98 C 678.51 279.68 679.32 281.31 680.11 282.95 C 664.06 272.65 647.27 263.49 629.78 255.90 C 640.07 249.29 653.35 264.13 664.87 260.94 C 663.01 254.85 658.57 250.01 653.04 246.94 C 625.53 229.87 594.42 219.01 562.58 213.53 C 526.73 208.02 489.06 204.77 453.91 215.81 C 445.04 219.18 433.85 222.42 428.93 230.91 C 427.56 231.67 426.10 232.26 424.69 232.95 C 437.57 232.78 450.36 230.35 463.27 231.15 C 459.90 233.03 455.54 233.06 452.83 236.01 C 422.18 241.75 392.66 252.16 364.71 265.88 C 366.10 262.32 370.87 261.61 372.04 258.14 C 368.68 255.54 359.12 261.60 359.14 255.22 C 390.78 230.43 429.64 217.09 468.15 207.31 Z" />
</g>
<g id="#60606061">
<path fill="#606060" opacity="0.38" d=" M 316.20 225.24 C 319.23 219.73 317.07 211.39 319.98 207.03 C 324.12 211.58 318.83 223.67 326.98 226.31 C 325.73 227.03 324.46 227.71 323.19 228.38 C 320.48 225.36 323.64 216.56 319.24 216.04 C 318.35 220.92 319.36 232.50 311.34 229.15 C 315.19 237.84 295.99 234.82 305.13 239.99 C 304.67 240.15 303.75 240.45 303.29 240.60 C 302.96 240.49 302.31 240.27 301.99 240.16 C 298.58 239.73 294.63 239.62 296.91 235.99 C 300.64 235.72 305.26 235.94 307.86 232.74 C 309.18 230.10 304.95 227.11 307.21 225.12 C 310.17 225.88 313.72 228.28 316.20 225.24 Z" />
</g>
<g id="#321e19fe">
<path fill="#321e19" opacity="1.00" d=" M 453.91 215.81 C 489.06 204.77 526.73 208.02 562.58 213.53 C 594.42 219.01 625.53 229.87 653.04 246.94 C 658.57 250.01 663.01 254.85 664.87 260.94 C 653.35 264.13 640.07 249.29 629.78 255.90 C 600.25 243.65 568.97 235.66 537.12 232.80 C 535.56 232.64 532.45 232.32 530.90 232.16 C 528.32 232.03 525.77 231.90 523.23 231.75 C 513.11 230.60 502.86 230.58 492.76 231.77 C 490.20 231.88 487.65 232.01 485.11 232.14 C 483.56 232.31 480.45 232.64 478.90 232.81 C 470.10 232.91 461.52 234.99 452.83 236.01 C 455.54 233.06 459.90 233.03 463.27 231.15 C 450.36 230.35 437.57 232.78 424.69 232.95 C 426.10 232.26 427.56 231.67 428.93 230.91 C 433.85 222.42 445.04 219.18 453.91 215.81 M 504.26 211.65 C 498.34 212.70 483.97 210.78 483.93 217.97 C 482.29 217.75 481.69 218.37 482.13 219.83 C 485.94 223.38 491.64 221.63 496.30 222.66 C 540.88 223.17 584.57 233.47 627.26 245.52 C 630.19 245.72 630.95 241.58 634.01 241.62 C 625.32 232.58 612.40 229.60 601.10 224.87 C 569.93 214.94 536.96 209.77 504.26 211.65 Z" />
</g>
<g id="#4e3129fe">
<path fill="#4e3129" opacity="1.00" d=" M 416.11 214.22 C 423.77 212.38 431.35 210.14 439.18 209.10 C 429.48 213.44 418.80 214.75 409.12 219.14 C 393.31 226.10 377.98 234.11 362.68 242.10 C 356.53 243.12 352.18 248.80 347.40 252.33 C 343.16 260.84 332.68 262.11 326.20 268.21 C 322.74 272.58 324.22 279.03 321.82 283.95 C 315.12 285.68 319.08 272.17 312.65 274.58 C 270.84 303.92 239.42 345.66 215.12 390.11 C 209.36 405.00 201.05 418.74 195.87 433.89 C 183.01 469.53 174.57 506.93 172.73 544.86 C 166.45 601.10 186.18 656.19 213.80 704.24 C 226.86 724.58 240.37 745.54 259.16 761.08 C 259.05 757.94 255.98 756.06 255.80 752.96 C 261.93 755.80 266.67 760.84 272.26 764.55 C 278.56 764.71 269.03 758.49 272.12 756.06 C 279.88 758.99 284.68 767.79 293.12 769.03 C 314.93 790.41 340.60 807.23 367.21 821.96 C 351.94 818.26 339.02 807.51 324.49 801.43 C 320.36 797.75 314.84 800.73 310.15 798.80 C 303.02 796.00 297.34 790.41 290.03 788.05 C 290.30 789.37 290.66 790.68 290.95 792.03 C 268.40 778.33 251.12 757.76 233.37 738.62 C 219.88 724.63 211.55 706.86 200.77 691.11 C 176.97 643.83 166.32 590.53 166.74 537.74 C 166.92 535.90 167.07 534.07 167.24 532.25 C 174.79 476.62 190.46 420.97 219.11 372.08 C 236.90 342.36 258.00 314.03 283.85 290.95 C 289.99 291.83 292.20 286.77 294.42 282.34 C 299.81 277.31 306.06 273.36 311.83 268.80 C 313.72 266.90 316.12 269.30 318.05 270.01 C 318.83 272.78 318.01 276.64 320.91 278.21 C 322.28 274.00 322.59 269.51 323.05 265.13 C 327.00 261.60 331.54 258.59 336.45 256.62 C 345.21 258.18 341.58 248.31 344.90 243.79 C 348.25 241.02 352.45 239.77 356.26 237.80 C 356.66 237.58 357.48 237.15 357.88 236.93 C 367.92 231.62 378.54 227.53 389.00 223.13 C 398.07 220.26 407.00 217.00 416.11 214.22 Z" />
</g>
<g id="#96604efb">
<path fill="#96604e" opacity="1.00" d=" M 654.43 210.00 C 654.47 209.69 654.55 209.06 654.59 208.75 C 771.33 258.14 857.27 373.07 871.01 499.18 C 870.80 500.79 870.88 502.44 871.52 503.96 C 872.10 505.63 872.10 507.43 872.01 509.19 C 871.77 510.79 871.91 512.43 872.51 513.95 C 872.84 516.60 873.01 519.29 873.00 522.01 C 873.06 525.76 873.29 529.51 873.70 533.26 C 874.01 540.06 874.40 546.94 873.73 553.74 C 873.29 557.47 873.04 561.22 872.98 564.99 C 872.85 566.77 872.61 570.32 872.49 572.10 C 872.35 573.52 872.08 576.37 871.95 577.80 C 871.99 579.54 872.12 581.35 871.52 583.04 C 870.89 584.55 870.80 586.20 871.02 587.83 C 870.90 588.62 870.67 590.21 870.56 591.01 C 869.91 592.17 869.77 593.52 869.99 594.83 C 864.72 638.62 849.59 681.04 828.83 719.86 L 828.31 719.64 C 823.12 716.71 816.88 718.92 811.28 718.74 C 807.07 716.67 809.17 709.10 804.13 708.88 C 805.14 706.74 810.93 710.17 812.76 706.78 C 829.40 688.62 843.89 668.04 853.05 645.03 C 866.10 616.31 868.38 584.13 868.03 553.00 C 868.49 473.67 844.60 393.72 797.43 329.60 C 760.91 278.31 709.53 239.49 654.43 210.00 Z" />
</g>
<g id="#291915ff">
<path fill="#291915" opacity="1.00" d=" M 504.26 211.65 C 536.96 209.77 569.93 214.94 601.10 224.87 C 612.40 229.60 625.32 232.58 634.01 241.62 C 630.95 241.58 630.19 245.72 627.26 245.52 C 584.57 233.47 540.88 223.17 496.30 222.66 C 491.64 221.63 485.94 223.38 482.13 219.83 C 481.69 218.37 482.29 217.75 483.93 217.97 C 483.97 210.78 498.34 212.70 504.26 211.65 Z" />
</g>
<g id="#16161616">
<path fill="#161616" opacity="0.09" d=" M 299.22 217.24 C 305.87 219.45 312.19 216.37 317.02 211.93 C 320.57 221.19 309.47 226.82 303.00 221.13 C 300.36 223.94 306.11 226.35 304.49 229.39 C 303.54 234.25 298.35 236.29 293.78 235.80 C 278.83 230.85 293.50 251.91 282.11 251.63 C 277.52 250.31 280.88 257.42 277.02 257.99 C 273.72 258.65 268.34 260.70 274.04 262.72 C 273.15 263.50 272.28 264.31 271.41 265.12 C 270.80 262.20 267.16 263.06 265.08 261.82 C 263.72 256.99 269.83 258.35 272.74 256.75 C 275.24 254.73 274.69 251.06 275.20 248.25 C 279.10 247.35 284.39 247.56 285.70 242.80 C 285.91 239.10 279.30 240.39 281.08 236.19 C 284.77 234.41 288.86 234.48 292.80 234.88 C 295.48 232.39 297.71 229.36 298.98 225.91 C 299.46 222.78 294.90 219.31 299.22 217.24 Z" />
</g>
<g id="#1a1a1a1c">
<path fill="#1a1a1a" opacity="0.11" d=" M 323.04 213.92 C 327.62 215.13 331.40 220.42 336.62 217.59 C 339.13 215.44 342.25 214.14 345.23 216.32 C 344.35 216.81 343.46 217.30 342.59 217.81 C 340.74 218.67 338.89 219.54 337.09 220.49 C 335.43 221.28 333.80 222.13 332.21 223.06 C 327.04 223.86 320.44 220.38 323.04 213.92 Z" />
</g>
<g id="#8c8c8b8d">
<path fill="#8c8c8b" opacity="0.55" d=" M 319.24 216.04 C 323.64 216.56 320.48 225.36 323.19 228.38 L 322.56 228.75 C 317.39 231.33 312.70 234.75 307.88 237.92 C 306.94 238.58 306.03 239.29 305.13 239.99 C 295.99 234.82 315.19 237.84 311.34 229.15 C 319.36 232.50 318.35 220.92 319.24 216.04 Z" />
</g>
<g id="#a26f5cfe">
<path fill="#a26f5c" opacity="1.00" d=" M 337.09 220.49 C 338.89 219.54 340.74 218.67 342.59 217.81 C 342.97 222.29 346.48 222.41 350.00 221.12 C 348.01 224.54 345.59 227.87 344.98 231.88 C 348.40 234.49 354.68 233.05 356.26 237.80 C 352.45 239.77 348.25 241.02 344.90 243.79 C 342.49 245.01 340.09 246.23 337.75 247.55 L 336.92 247.98 C 336.61 244.40 337.77 240.74 341.11 238.97 C 350.88 242.21 346.93 232.81 341.11 234.92 C 336.08 231.43 338.12 225.57 337.09 220.49 Z" />
</g>
<g id="#b38574fc">
<path fill="#b38574" opacity="1.00" d=" M 332.21 223.06 C 333.80 222.13 335.43 221.28 337.09 220.49 C 338.12 225.57 336.08 231.43 341.11 234.92 C 337.10 236.93 331.05 233.15 332.64 228.66 C 332.92 226.73 335.29 223.40 331.72 223.62 L 332.21 223.06 Z" />
</g>
<g id="#c5a498ff">
<path fill="#c5a498" opacity="1.00" d=" M 326.98 226.31 C 328.56 225.42 330.14 224.52 331.72 223.62 C 335.29 223.40 332.92 226.73 332.64 228.66 C 331.05 233.15 337.10 236.93 341.11 234.92 C 346.93 232.81 350.88 242.21 341.11 238.97 C 335.31 237.32 331.88 243.37 333.50 248.48 C 329.44 249.55 322.90 250.50 322.77 255.99 C 322.51 257.01 322.26 258.04 322.03 259.08 C 319.31 261.13 318.42 257.10 317.71 255.18 C 316.48 250.77 310.94 250.98 307.43 249.53 C 307.32 246.19 306.64 242.95 305.13 239.99 C 306.03 239.29 306.94 238.58 307.88 237.92 C 311.12 240.81 310.67 246.52 315.56 247.54 C 318.65 248.65 319.71 259.12 322.13 252.11 C 322.89 248.39 326.25 246.80 329.36 245.36 C 328.08 240.33 334.45 239.97 334.85 236.33 C 329.20 235.65 328.53 228.82 322.56 228.75 L 323.19 228.38 C 324.46 227.71 325.73 227.03 326.98 226.31 Z" />
</g>
<g id="#825244ff">
<path fill="#825244" opacity="1.00" d=" M 670.93 224.96 C 672.01 224.59 673.25 223.75 674.32 224.70 C 683.73 230.86 693.47 236.72 702.24 243.80 C 724.28 266.42 749.22 286.15 770.13 309.92 C 785.30 331.81 800.66 353.73 812.15 377.86 C 832.95 422.56 847.32 470.19 856.47 518.58 C 864.64 557.08 870.40 599.85 851.16 636.06 C 840.66 660.99 827.59 685.20 808.82 704.90 C 811.38 699.54 814.49 694.47 816.99 689.09 C 831.46 670.48 840.72 648.67 848.69 626.67 C 857.67 607.92 854.97 586.57 853.34 566.59 C 850.78 554.48 853.43 541.44 849.23 529.74 C 848.27 509.07 845.59 488.38 840.85 468.23 C 841.04 462.43 838.89 456.91 837.60 451.36 C 819.98 389.04 785.15 331.46 737.02 287.98 C 714.10 268.18 689.86 250.01 668.93 228.11 C 669.52 227.02 670.23 226.00 670.93 224.96 Z" />
</g>
<g id="#dcc7bffe">
<path fill="#dcc7bf" opacity="1.00" d=" M 307.88 237.92 C 312.70 234.75 317.39 231.33 322.56 228.75 C 328.53 228.82 329.20 235.65 334.85 236.33 C 334.45 239.97 328.08 240.33 329.36 245.36 C 326.25 246.80 322.89 248.39 322.13 252.11 C 319.71 259.12 318.65 248.65 315.56 247.54 C 310.67 246.52 311.12 240.81 307.88 237.92 Z" />
</g>
<g id="#1b100d83">
<path fill="#1b100d" opacity="0.51" d=" M 492.76 231.77 C 502.86 230.58 513.11 230.60 523.23 231.75 C 513.07 232.00 502.91 232.23 492.76 231.77 Z" />
</g>
<g id="#190f0c79">
<path fill="#190f0c" opacity="0.47" d=" M 478.90 232.81 C 480.45 232.64 483.56 232.31 485.11 232.14 C 483.56 232.31 480.45 232.64 478.90 232.81 Z" />
</g>
<g id="#170e0b73">
<path fill="#170e0b" opacity="0.45" d=" M 530.90 232.16 C 532.45 232.32 535.56 232.64 537.12 232.80 C 535.56 232.64 532.45 232.32 530.90 232.16 Z" />
</g>
<g id="#45444446">
<path fill="#454444" opacity="0.27" d=" M 282.11 251.63 C 293.50 251.91 278.83 230.85 293.78 235.80 C 294.57 235.85 296.13 235.94 296.91 235.99 C 294.63 239.62 298.58 239.73 301.99 240.16 C 298.39 239.86 294.85 239.10 291.24 239.14 C 288.52 241.67 291.54 246.04 291.24 249.31 L 290.47 249.86 C 289.62 250.41 288.78 250.99 288.01 251.64 C 286.31 253.04 284.68 254.52 283.00 255.93 C 280.85 257.45 278.56 258.81 276.79 260.78 C 276.08 261.50 275.40 262.24 274.74 263.00 L 274.04 262.72 C 268.34 260.70 273.72 258.65 277.02 257.99 C 280.88 257.42 277.52 250.31 282.11 251.63 Z" />
</g>
<g id="#1c1a1a1e">
<path fill="#1c1a1a" opacity="0.12" d=" M 291.24 239.14 C 294.85 239.10 298.39 239.86 301.99 240.16 C 302.31 240.27 302.96 240.49 303.29 240.60 C 299.29 243.53 295.38 246.58 291.24 249.31 C 291.54 246.04 288.52 241.67 291.24 239.14 Z" />
</g>
<g id="#b28b7dff">
<path fill="#b28b7d" opacity="1.00" d=" M 333.50 248.48 C 331.88 243.37 335.31 237.32 341.11 238.97 C 337.77 240.74 336.61 244.40 336.92 247.98 C 332.25 250.74 327.71 253.74 322.77 255.99 C 322.90 250.50 329.44 249.55 333.50 248.48 Z" />
</g>
<g id="#af8170fe">
<path fill="#af8170" opacity="1.00" d=" M 303.29 240.60 C 303.75 240.45 304.67 240.15 305.13 239.99 C 306.64 242.95 307.32 246.19 307.43 249.53 C 310.94 250.98 316.48 250.77 317.71 255.18 C 318.42 257.10 319.31 261.13 322.03 259.08 C 321.06 261.28 323.96 267.57 320.13 266.99 C 316.68 267.33 320.22 261.38 318.20 259.66 C 315.74 256.04 310.81 256.22 306.98 255.86 C 309.64 257.39 312.73 262.78 306.03 262.04 C 299.09 261.02 303.01 269.85 297.63 270.58 C 293.00 271.58 290.57 275.45 290.96 280.09 C 290.10 280.81 289.20 281.49 288.32 282.19 C 286.78 278.75 287.34 272.95 282.00 273.00 C 276.15 272.96 276.25 266.92 274.74 263.00 C 275.40 262.24 276.08 261.50 276.79 260.78 C 279.71 266.57 285.14 270.25 289.14 274.88 C 292.07 275.20 290.92 270.30 293.69 269.72 C 298.45 268.41 298.52 262.76 302.72 260.65 C 303.21 258.17 299.17 258.62 298.58 256.55 C 299.69 250.06 292.62 253.59 290.47 249.86 L 291.24 249.31 C 295.38 246.58 299.29 243.53 303.29 240.60 Z" />
</g>
<g id="#462b24fe">
<path fill="#462b24" opacity="1.00" d=" M 347.40 252.33 C 352.18 248.80 356.53 243.12 362.68 242.10 C 363.67 242.76 368.64 242.83 365.89 243.99 C 352.54 251.82 341.54 262.98 328.98 271.97 C 322.56 274.87 326.75 282.82 323.24 287.26 C 312.56 295.49 303.77 305.75 293.33 314.24 C 291.96 315.11 292.26 316.79 292.04 318.17 C 258.23 351.25 231.54 391.48 214.97 435.83 C 206.51 452.30 201.27 470.84 196.86 488.97 C 195.06 493.99 195.99 500.29 192.14 504.39 C 190.75 496.10 195.88 485.26 192.25 479.27 C 185.39 498.74 181.11 519.97 179.86 540.75 C 178.01 541.84 174.77 541.59 176.50 545.60 C 173.69 577.44 179.09 609.37 188.34 639.77 C 197.51 667.50 208.94 695.02 227.06 718.17 C 226.44 712.73 222.44 708.33 221.90 702.85 C 226.82 705.75 228.99 712.16 234.12 715.16 C 232.36 706.65 228.51 699.05 225.92 690.84 C 234.24 703.00 243.34 714.74 254.12 724.94 C 266.41 740.19 278.56 755.74 293.12 769.03 C 284.68 767.79 279.88 758.99 272.12 756.06 C 269.03 758.49 278.56 764.71 272.26 764.55 C 266.67 760.84 261.93 755.80 255.80 752.96 C 255.98 756.06 259.05 757.94 259.16 761.08 C 240.37 745.54 226.86 724.58 213.80 704.24 C 186.18 656.19 166.45 601.10 172.73 544.86 C 174.57 506.93 183.01 469.53 195.87 433.89 C 201.05 418.74 209.36 405.00 215.12 390.11 C 239.42 345.66 270.84 303.92 312.65 274.58 C 319.08 272.17 315.12 285.68 321.82 283.95 C 324.22 279.03 322.74 272.58 326.20 268.21 C 332.68 262.11 343.16 260.84 347.40 252.33 Z" />
</g>
<g id="#60433bff">
<path fill="#60433b" opacity="1.00" d=" M 337.75 247.55 C 340.09 246.23 342.49 245.01 344.90 243.79 C 341.58 248.31 345.21 258.18 336.45 256.62 C 331.54 258.59 327.00 261.60 323.05 265.13 C 320.51 255.98 332.51 253.38 338.96 252.77 C 339.24 250.91 338.56 249.17 337.75 247.55 Z" />
</g>
<g id="#755c55ff">
<path fill="#755c55" opacity="1.00" d=" M 322.77 255.99 C 327.71 253.74 332.25 250.74 336.92 247.98 L 337.75 247.55 C 338.56 249.17 339.24 250.91 338.96 252.77 C 332.51 253.38 320.51 255.98 323.05 265.13 C 322.59 269.51 322.28 274.00 320.91 278.21 C 318.01 276.64 318.83 272.78 318.05 270.01 C 317.92 266.87 318.09 263.73 317.07 260.74 C 317.35 260.47 317.92 259.93 318.20 259.66 C 320.22 261.38 316.68 267.33 320.13 266.99 C 323.96 267.57 321.06 261.28 322.03 259.08 C 322.26 258.04 322.51 257.01 322.77 255.99 Z" />
</g>
<g id="#c39e90fd">
<path fill="#c39e90" opacity="1.00" d=" M 288.01 251.64 C 288.78 250.99 289.62 250.41 290.47 249.86 C 292.62 253.59 299.69 250.06 298.58 256.55 C 299.17 258.62 303.21 258.17 302.72 260.65 C 298.52 262.76 298.45 268.41 293.69 269.72 C 290.92 270.30 292.07 275.20 289.14 274.88 C 285.14 270.25 279.71 266.57 276.79 260.78 C 278.56 258.81 280.85 257.45 283.00 255.93 C 278.53 261.44 284.53 268.19 289.85 270.02 C 292.89 267.09 296.81 264.21 298.01 260.11 C 295.73 256.31 291.73 253.89 288.01 251.64 Z" />
</g>
<g id="#d9c1b8fe">
<path fill="#d9c1b8" opacity="1.00" d=" M 283.00 255.93 C 284.68 254.52 286.31 253.04 288.01 251.64 C 291.73 253.89 295.73 256.31 298.01 260.11 C 296.81 264.21 292.89 267.09 289.85 270.02 C 284.53 268.19 278.53 261.44 283.00 255.93 Z" />
</g>
<g id="#9f6d5bff">
<path fill="#9f6d5b" opacity="1.00" d=" M 306.98 255.86 C 310.81 256.22 315.74 256.04 318.20 259.66 C 317.92 259.93 317.35 260.47 317.07 260.74 C 307.78 266.35 299.33 273.20 290.96 280.09 C 290.57 275.45 293.00 271.58 297.63 270.58 C 303.01 269.85 299.09 261.02 306.03 262.04 C 312.73 262.78 309.64 257.39 306.98 255.86 Z" />
</g>
<g id="#5a382eff">
<path fill="#5a382e" opacity="1.00" d=" M 290.96 280.09 C 299.33 273.20 307.78 266.35 317.07 260.74 C 318.09 263.73 317.92 266.87 318.05 270.01 C 316.12 269.30 313.72 266.90 311.83 268.80 C 306.06 273.36 299.81 277.31 294.42 282.34 C 292.20 286.77 289.99 291.83 283.85 290.95 C 258.00 314.03 236.90 342.36 219.11 372.08 C 190.46 420.97 174.79 476.62 167.24 532.25 C 166.57 505.29 173.23 478.90 178.75 452.73 C 181.59 445.23 183.82 437.54 185.94 429.82 C 188.39 424.39 190.48 418.78 192.19 413.07 C 206.02 381.92 223.17 352.18 244.92 325.81 C 258.00 310.54 271.74 295.83 287.29 283.04 C 287.55 282.83 288.06 282.40 288.32 282.19 C 289.20 281.49 290.10 280.81 290.96 280.09 Z" />
</g>
<g id="#a36853fe">
<path fill="#a36853" opacity="1.00" d=" M 271.41 265.12 C 272.28 264.31 273.15 263.50 274.04 262.72 L 274.74 263.00 C 276.25 266.92 276.15 272.96 282.00 273.00 C 287.34 272.95 286.78 278.75 288.32 282.19 C 288.06 282.40 287.55 282.83 287.29 283.04 C 283.98 278.23 279.45 281.88 276.29 285.24 C 262.54 299.81 248.44 314.06 234.31 328.28 C 205.67 360.95 192.88 403.90 165.07 437.07 C 159.13 443.43 158.55 455.51 152.71 460.34 C 154.68 451.79 156.29 442.00 159.77 434.31 C 169.32 427.88 174.50 415.73 181.35 406.34 C 196.07 379.65 208.93 351.79 227.34 327.33 C 235.00 314.52 245.86 303.98 253.10 290.88 C 245.06 293.01 240.70 302.99 232.90 304.31 C 243.55 289.44 257.93 277.49 271.41 265.12 Z" />
</g>
<g id="#985f4cfe">
<path fill="#985f4c" opacity="1.00" d=" M 276.29 285.24 C 279.45 281.88 283.98 278.23 287.29 283.04 C 271.74 295.83 258.00 310.54 244.92 325.81 C 222.93 343.83 211.05 371.00 197.22 395.25 C 185.94 417.17 170.27 436.64 160.38 459.29 C 153.83 479.16 149.88 499.80 146.66 520.44 C 147.89 520.74 144.50 531.78 143.92 526.24 C 143.93 523.11 144.02 520.08 143.97 516.99 C 143.99 514.98 143.86 512.90 144.48 510.97 C 145.09 509.44 145.21 507.79 144.98 506.19 C 144.94 504.45 144.80 502.63 145.45 500.99 C 146.07 499.80 146.19 498.45 146.00 497.16 C 146.11 496.36 146.33 494.78 146.44 493.99 C 147.08 492.81 147.21 491.46 147.01 490.17 C 147.57 480.36 150.20 468.80 152.71 460.34 C 158.55 455.51 159.13 443.43 165.07 437.07 C 192.88 403.90 205.67 360.95 234.31 328.28 C 248.44 314.06 262.54 299.81 276.29 285.24 Z" />
</g>
<g id="#ad6f58fc">
<path fill="#ad6f58" opacity="1.00" d=" M 232.90 304.31 C 240.70 302.99 245.06 293.01 253.10 290.88 C 245.86 303.98 235.00 314.52 227.34 327.33 C 208.93 351.79 196.07 379.65 181.35 406.34 C 174.50 415.73 169.32 427.88 159.77 434.31 C 173.72 387.10 198.84 343.20 230.70 305.72 C 231.26 304.83 231.99 304.36 232.90 304.31 Z" />
</g>
<g id="#8d5847ff">
<path fill="#8d5847" opacity="1.00" d=" M 197.22 395.25 C 211.05 371.00 222.93 343.83 244.92 325.81 C 223.17 352.18 206.02 381.92 192.19 413.07 C 176.34 436.84 164.96 463.78 160.01 492.00 C 154.25 517.38 146.89 542.75 146.89 568.99 C 146.85 571.09 146.01 573.18 144.32 574.50 C 144.04 572.67 144.02 570.82 143.99 568.99 C 143.91 566.16 143.91 563.42 143.42 560.68 C 142.61 549.09 143.01 537.45 143.04 525.85 L 143.92 526.24 C 144.50 531.78 147.89 520.74 146.66 520.44 C 149.88 499.80 153.83 479.16 160.38 459.29 C 170.27 436.64 185.94 417.17 197.22 395.25 Z" />
</g>
<g id="#805245fc">
<path fill="#805245" opacity="1.00" d=" M 160.01 492.00 C 164.96 463.78 176.34 436.84 192.19 413.07 C 190.48 418.78 188.39 424.39 185.94 429.82 C 177.09 442.81 174.25 458.85 169.55 473.63 C 160.26 506.18 156.01 539.83 150.39 573.12 C 149.65 627.22 171.66 678.67 198.26 724.71 C 212.82 752.27 230.93 777.96 252.72 800.28 C 273.08 821.18 297.46 837.62 322.38 852.59 C 384.20 888.39 457.03 908.61 528.59 899.53 C 538.54 897.71 549.00 896.22 557.74 890.84 C 561.75 889.08 566.70 888.16 569.13 884.11 C 558.87 880.13 546.42 889.26 536.72 883.11 C 590.51 878.45 643.96 861.84 689.23 832.09 C 694.22 829.14 699.13 826.05 704.02 822.93 C 701.24 829.45 694.35 832.13 689.04 836.09 C 674.28 851.92 656.43 867.18 634.57 871.50 C 619.77 875.11 604.84 878.17 590.15 882.20 C 576.23 886.24 564.65 895.62 550.76 899.63 C 483.57 911.17 413.55 899.65 352.05 870.88 C 350.18 870.55 346.05 867.14 345.80 870.75 C 237.83 818.46 159.68 709.14 146.01 589.84 C 146.19 588.52 146.07 587.18 145.45 586.01 C 145.03 584.64 144.90 583.24 145.06 581.80 C 144.92 580.37 144.64 577.52 144.50 576.09 C 144.45 575.70 144.37 574.90 144.32 574.50 C 146.01 573.18 146.85 571.09 146.89 568.99 C 146.89 542.75 154.25 517.38 160.01 492.00 Z" />
</g>
<g id="#7a4e41ff">
<path fill="#7a4e41" opacity="1.00" d=" M 169.55 473.63 C 174.25 458.85 177.09 442.81 185.94 429.82 C 183.82 437.54 181.59 445.23 178.75 452.73 C 173.67 464.82 171.92 478.13 168.82 490.85 C 165.01 524.46 154.80 557.55 157.32 591.69 C 161.74 632.86 178.21 671.71 198.67 707.33 C 209.73 723.48 218.19 740.83 228.74 757.26 C 238.59 776.69 251.40 794.76 267.27 809.73 C 295.64 836.13 332.49 849.66 365.95 868.04 C 382.79 876.85 401.34 880.96 418.83 888.23 C 449.13 897.25 481.37 900.89 512.83 896.72 C 526.58 895.11 540.82 893.60 553.39 887.38 C 547.56 885.17 536.78 889.75 533.87 883.02 L 534.98 882.87 C 535.41 882.93 536.29 883.05 536.72 883.11 C 546.42 889.26 558.87 880.13 569.13 884.11 C 566.70 888.16 561.75 889.08 557.74 890.84 C 549.00 896.22 538.54 897.71 528.59 899.53 C 457.03 908.61 384.20 888.39 322.38 852.59 C 297.46 837.62 273.08 821.18 252.72 800.28 C 230.93 777.96 212.82 752.27 198.26 724.71 C 171.66 678.67 149.65 627.22 150.39 573.12 C 156.01 539.83 160.26 506.18 169.55 473.63 Z" />
</g>
<g id="#3f2721fd">
<path fill="#3f2721" opacity="1.00" d=" M 196.86 488.97 C 201.27 470.84 206.51 452.30 214.97 435.83 C 206.86 460.88 199.72 486.51 197.80 512.89 C 197.64 514.45 197.31 517.55 197.15 519.11 C 197.00 521.64 196.86 524.20 196.72 526.76 C 195.83 537.54 195.28 548.52 196.66 559.29 C 196.86 561.80 197.03 564.34 197.18 566.90 C 197.33 568.45 197.65 571.57 197.81 573.12 C 202.62 627.67 223.14 680.00 254.12 724.94 C 243.34 714.74 234.24 703.00 225.92 690.84 C 228.51 699.05 232.36 706.65 234.12 715.16 C 228.99 712.16 226.82 705.75 221.90 702.85 C 222.44 708.33 226.44 712.73 227.06 718.17 C 208.94 695.02 197.51 667.50 188.34 639.77 C 179.09 609.37 173.69 577.44 176.50 545.60 C 174.77 541.59 178.01 541.84 179.86 540.75 C 181.11 519.97 185.39 498.74 192.25 479.27 C 195.88 485.26 190.75 496.10 192.14 504.39 C 195.99 500.29 195.06 493.99 196.86 488.97 Z" />
</g>
<g id="#734a3eff">
<path fill="#734a3e" opacity="1.00" d=" M 168.82 490.85 C 171.92 478.13 173.67 464.82 178.75 452.73 C 173.23 478.90 166.57 505.29 167.24 532.25 C 167.07 534.07 166.92 535.90 166.74 537.74 C 162.25 552.71 163.53 568.55 162.12 583.95 C 167.14 636.25 190.37 684.90 218.33 728.68 C 231.17 748.16 244.29 767.54 256.75 787.25 C 278.63 811.15 308.12 826.34 336.48 841.60 C 356.16 853.10 378.41 859.41 397.99 871.00 C 430.10 885.80 465.40 895.60 501.03 892.27 C 511.18 890.51 522.88 893.69 532.19 888.28 C 529.20 887.44 518.61 887.34 524.17 884.08 C 527.38 883.78 530.66 883.51 533.87 883.02 C 536.78 889.75 547.56 885.17 553.39 887.38 C 540.82 893.60 526.58 895.11 512.83 896.72 C 481.37 900.89 449.13 897.25 418.83 888.23 C 401.34 880.96 382.79 876.85 365.95 868.04 C 332.49 849.66 295.64 836.13 267.27 809.73 C 251.40 794.76 238.59 776.69 228.74 757.26 C 218.19 740.83 209.73 723.48 198.67 707.33 C 178.21 671.71 161.74 632.86 157.32 591.69 C 154.80 557.55 165.01 524.46 168.82 490.85 Z" />
</g>
<g id="#59382d90">
<path fill="#59382d" opacity="0.56" d=" M 146.44 493.99 C 145.34 493.14 145.18 490.01 147.01 490.17 C 147.21 491.46 147.08 492.81 146.44 493.99 Z" />
</g>
<g id="#4c2f267a">
<path fill="#4c2f26" opacity="0.48" d=" M 145.45 500.99 C 144.34 500.14 144.16 497.00 146.00 497.16 C 146.19 498.45 146.07 499.80 145.45 500.99 Z" />
</g>
<g id="#4f33297c">
<path fill="#4f3329" opacity="0.49" d=" M 871.01 499.18 C 872.98 499.34 872.55 502.81 871.52 503.96 C 870.88 502.44 870.80 500.79 871.01 499.18 Z" />
</g>
<g id="#51322985">
<path fill="#513229" opacity="0.52" d=" M 144.48 510.97 C 143.44 509.82 143.01 506.34 144.98 506.19 C 145.21 507.79 145.09 509.44 144.48 510.97 Z" />
</g>
<g id="#50332a7e">
<path fill="#50332a" opacity="0.49" d=" M 872.01 509.19 C 873.98 509.34 873.56 512.82 872.51 513.95 C 871.91 512.43 871.77 510.79 872.01 509.19 Z" />
</g>
<g id="#2014117d">
<path fill="#201411" opacity="0.49" d=" M 818.21 509.89 C 818.37 511.44 818.68 514.55 818.84 516.11 C 818.68 514.55 818.37 511.44 818.21 509.89 Z" />
</g>
<g id="#20130f7f">
<path fill="#20130f" opacity="0.50" d=" M 197.15 519.11 C 197.31 517.55 197.64 514.45 197.80 512.89 C 197.64 514.45 197.31 517.55 197.15 519.11 Z" />
</g>
<g id="#4d302782">
<path fill="#4d3027" opacity="0.51" d=" M 143.04 525.85 C 143.81 523.53 141.52 518.00 143.97 516.99 C 144.02 520.08 143.93 523.11 143.92 526.24 L 143.04 525.85 Z" />
</g>
<g id="#1d121072">
<path fill="#1d1210" opacity="0.45" d=" M 819.21 521.78 C 819.55 525.57 819.75 529.39 819.82 533.22 C 819.42 529.40 819.22 525.59 819.21 521.78 Z" />
</g>
<g id="#54372c85">
<path fill="#54372c" opacity="0.52" d=" M 873.00 522.01 C 874.28 524.82 874.51 528.57 873.70 533.26 C 873.29 529.51 873.06 525.76 873.00 522.01 Z" />
</g>
<g id="#1d110d75">
<path fill="#1d110d" opacity="0.46" d=" M 196.66 559.29 C 195.28 548.52 195.83 537.54 196.72 526.76 C 197.09 537.60 197.17 548.45 196.66 559.29 Z" />
</g>
<g id="#754c3fff">
<path fill="#754c3f" opacity="1.00" d=" M 849.23 529.74 C 853.43 541.44 850.78 554.48 853.34 566.59 C 854.97 586.57 857.67 607.92 848.69 626.67 C 840.72 648.67 831.46 670.48 816.99 689.09 C 825.78 668.68 834.43 648.04 839.28 626.27 C 845.80 603.90 848.46 580.50 848.77 557.24 C 849.00 548.07 849.00 538.90 849.23 529.74 Z" />
</g>
<g id="#6d463bff">
<path fill="#6d463b" opacity="1.00" d=" M 162.12 583.95 C 163.53 568.55 162.25 552.71 166.74 537.74 C 166.32 590.53 176.97 643.83 200.77 691.11 C 208.00 708.20 218.48 723.72 228.86 739.03 C 232.33 745.07 236.58 750.60 240.87 756.08 C 275.85 804.35 328.33 836.82 382.70 859.29 C 427.53 877.04 475.84 886.49 524.17 884.08 C 518.61 887.34 529.20 887.44 532.19 888.28 C 522.88 893.69 511.18 890.51 501.03 892.27 C 465.40 895.60 430.10 885.80 397.99 871.00 C 378.41 859.41 356.16 853.10 336.48 841.60 C 308.12 826.34 278.63 811.15 256.75 787.25 C 244.29 767.54 231.17 748.16 218.33 728.68 C 190.37 684.90 167.14 636.25 162.12 583.95 Z" />
</g>
<g id="#1b110f72">
<path fill="#1b110f" opacity="0.45" d=" M 819.19 564.25 C 818.97 560.74 819.21 557.21 819.84 553.77 C 820.04 557.28 819.70 560.75 819.19 564.25 Z" />
</g>
<g id="#53362c86">
<path fill="#53362c" opacity="0.53" d=" M 872.98 564.99 C 873.04 561.22 873.29 557.47 873.73 553.74 C 874.53 558.42 874.28 562.17 872.98 564.99 Z" />
</g>
<g id="#34211dfe">
<path fill="#34211d" opacity="1.00" d=" M 818.90 575.97 C 827.70 573.74 823.32 557.98 829.63 555.20 C 830.07 560.53 833.55 564.56 835.84 569.13 C 836.75 595.42 832.29 621.94 824.02 646.88 C 816.79 664.58 810.45 682.85 800.01 699.02 C 796.39 704.51 793.18 711.17 786.76 713.87 C 777.90 717.56 776.21 727.86 770.66 734.65 C 767.82 736.15 764.33 736.65 762.14 739.20 C 762.52 741.43 763.46 743.52 763.81 745.76 C 755.27 751.88 749.47 761.29 740.00 766.14 C 755.40 746.00 770.93 725.37 780.71 701.80 C 782.13 695.55 777.69 704.53 774.93 705.10 C 798.29 665.87 813.72 621.64 818.24 576.13 L 818.90 575.97 Z" />
</g>
<g id="#4d30278b">
<path fill="#4d3027" opacity="0.55" d=" M 143.42 560.68 C 143.91 563.42 143.91 566.16 143.99 568.99 C 141.69 568.05 143.45 563.11 143.42 560.68 Z" />
</g>
<g id="#1c110e76">
<path fill="#1c110e" opacity="0.46" d=" M 197.18 566.90 C 197.33 568.45 197.65 571.57 197.81 573.12 C 197.65 571.57 197.33 568.45 197.18 566.90 Z" />
</g>
<g id="#1d12107f">
<path fill="#1d1210" opacity="0.50" d=" M 818.24 576.13 C 817.55 574.42 817.66 572.48 818.74 570.96 C 819.11 572.59 819.40 574.32 818.90 575.97 L 818.24 576.13 Z" />
</g>
<g id="#55372d8a">
<path fill="#55372d" opacity="0.54" d=" M 871.95 577.80 C 872.08 576.37 872.35 573.52 872.49 572.10 C 873.75 573.43 874.21 577.51 871.95 577.80 Z" />
</g>
<g id="#4229227a">
<path fill="#422922" opacity="0.48" d=" M 144.50 576.09 C 144.64 577.52 144.92 580.37 145.06 581.80 C 142.78 581.52 143.24 577.43 144.50 576.09 Z" />
</g>
<g id="#4d32297e">
<path fill="#4d3229" opacity="0.49" d=" M 871.02 587.83 C 870.80 586.20 870.89 584.55 871.52 583.04 C 872.55 584.17 872.98 587.65 871.02 587.83 Z" />
</g>
<g id="#432a237d">
<path fill="#432a23" opacity="0.49" d=" M 145.45 586.01 C 146.07 587.18 146.19 588.52 146.01 589.84 C 144.17 589.99 144.33 586.84 145.45 586.01 Z" />
</g>
<g id="#57392e8e">
<path fill="#57392e" opacity="0.56" d=" M 869.99 594.83 C 869.77 593.52 869.91 592.17 870.56 591.01 C 871.64 591.84 871.81 594.98 869.99 594.83 Z" />
</g>
<g id="#3a2622fd">
<path fill="#3a2622" opacity="1.00" d=" M 800.01 699.02 C 810.45 682.85 816.79 664.58 824.02 646.88 C 818.02 671.26 806.08 694.27 792.07 715.06 C 790.38 719.47 785.54 719.13 782.26 721.26 C 782.52 728.18 778.40 734.14 772.90 737.93 C 771.10 738.10 769.30 738.17 767.56 738.61 C 761.38 739.48 768.10 744.49 771.08 745.32 C 746.70 780.72 710.54 806.99 670.99 823.09 C 668.96 823.73 666.86 823.29 664.85 822.86 C 671.45 815.22 682.78 811.56 686.04 801.22 C 685.55 801.14 684.58 800.96 684.10 800.88 C 720.66 775.70 751.50 742.77 774.93 705.10 C 777.69 704.53 782.13 695.55 780.71 701.80 C 770.93 725.37 755.40 746.00 740.00 766.14 C 749.47 761.29 755.27 751.88 763.81 745.76 C 763.46 743.52 762.52 741.43 762.14 739.20 C 764.33 736.65 767.82 736.15 770.66 734.65 C 776.21 727.86 777.90 717.56 786.76 713.87 C 793.18 711.17 796.39 704.51 800.01 699.02 Z" />
</g>
<g id="#54362dff">
<path fill="#54362d" opacity="1.00" d=" M 200.77 691.11 C 211.55 706.86 219.88 724.63 233.37 738.62 C 251.12 757.76 268.40 778.33 290.95 792.03 C 290.66 790.68 290.30 789.37 290.03 788.05 C 297.34 790.41 303.02 796.00 310.15 798.80 C 314.84 800.73 320.36 797.75 324.49 801.43 C 339.02 807.51 351.94 818.26 367.21 821.96 C 377.91 826.22 388.23 831.40 399.04 835.45 C 397.90 836.48 397.93 838.04 399.57 838.48 C 405.86 841.74 412.72 843.84 419.01 847.11 C 418.02 849.13 416.53 850.84 415.24 852.68 C 439.80 863.43 465.36 873.00 492.40 874.58 C 552.76 877.95 614.00 865.22 668.01 838.01 C 690.90 827.09 711.37 811.74 733.12 799.02 C 724.64 808.34 713.76 815.04 704.02 822.93 C 699.13 826.05 694.22 829.14 689.23 832.09 C 673.88 838.64 658.78 846.91 643.00 852.99 C 579.66 877.74 508.44 887.72 441.99 870.05 C 420.79 863.69 399.92 855.69 380.03 845.93 C 359.41 834.93 336.87 827.66 317.25 814.75 C 284.53 793.72 252.99 769.75 228.86 739.03 C 218.48 723.72 208.00 708.20 200.77 691.11 Z" />
</g>
<g id="#a67d6efd">
<path fill="#a67d6e" opacity="1.00" d=" M 804.13 708.88 C 809.17 709.10 807.07 716.67 811.28 718.74 C 816.88 718.92 823.12 716.71 828.31 719.64 C 827.79 722.25 826.08 724.37 824.78 726.63 C 823.68 728.34 822.60 730.07 821.62 731.85 C 820.93 733.00 820.23 734.14 819.54 735.29 L 818.66 735.16 C 817.24 731.45 820.23 728.33 821.10 724.90 C 817.10 726.01 812.53 730.14 808.75 726.25 C 805.64 723.37 810.00 711.23 803.97 712.82 C 804.00 711.50 804.05 710.18 804.13 708.88 Z" />
</g>
<g id="#5c443cff">
<path fill="#5c443c" opacity="1.00" d=" M 785.11 723.26 C 792.49 722.64 801.31 718.79 802.63 710.73 C 802.78 711.63 803.08 713.43 803.23 714.33 C 801.05 718.42 799.01 722.65 796.11 726.29 C 793.31 726.13 790.68 725.23 788.06 724.34 C 785.87 725.97 789.03 728.81 788.98 731.03 C 788.65 734.89 785.13 738.80 780.96 738.04 C 784.10 733.63 787.17 728.75 785.11 723.26 Z" />
</g>
<g id="#c6aba2ff">
<path fill="#c6aba2" opacity="1.00" d=" M 803.97 712.82 C 810.00 711.23 805.64 723.37 808.75 726.25 C 812.53 730.14 817.10 726.01 821.10 724.90 C 820.23 728.33 817.24 731.45 818.66 735.16 C 818.66 735.64 818.68 736.58 818.69 737.06 C 818.31 737.42 817.55 738.13 817.17 738.49 C 815.16 737.01 814.08 734.81 813.39 732.49 C 805.80 734.68 808.62 726.51 805.79 723.24 C 802.21 721.35 804.14 727.89 802.90 729.93 C 802.64 733.74 797.50 732.34 796.78 735.84 C 796.36 739.36 789.89 737.67 791.29 741.54 C 794.55 742.94 796.87 745.08 796.91 749.11 C 800.29 751.05 803.52 753.50 805.06 757.24 C 804.55 757.84 804.06 758.45 803.56 759.06 C 801.56 752.43 789.02 757.39 791.92 748.01 C 792.93 742.56 782.38 743.05 787.94 738.11 C 794.88 739.33 790.52 727.15 797.25 729.33 C 804.76 728.57 802.88 719.17 803.89 713.70 L 803.97 712.82 Z" />
</g>
<g id="#a38276ff">
<path fill="#a38276" opacity="1.00" d=" M 803.23 714.33 L 803.89 713.70 C 802.88 719.17 804.76 728.57 797.25 729.33 C 790.52 727.15 794.88 739.33 787.94 738.11 C 790.53 735.44 792.42 732.19 791.25 728.41 C 792.94 727.89 794.93 727.82 796.11 726.29 C 799.01 722.65 801.05 718.42 803.23 714.33 Z" />
</g>
<g id="#e5d9d4fe">
<path fill="#e5d9d4" opacity="1.00" d=" M 802.90 729.93 C 804.14 727.89 802.21 721.35 805.79 723.24 C 808.62 726.51 805.80 734.68 813.39 732.49 C 814.08 734.81 815.16 737.01 817.17 738.49 C 815.75 742.85 812.44 746.23 810.07 750.08 C 808.40 752.47 806.83 754.92 805.06 757.24 C 803.52 753.50 800.29 751.05 796.91 749.11 C 796.87 745.08 794.55 742.94 791.29 741.54 C 789.89 737.67 796.36 739.36 796.78 735.84 C 797.50 732.34 802.64 733.74 802.90 729.93 Z" />
</g>
<g id="#6e5953ff">
<path fill="#6e5953" opacity="1.00" d=" M 788.06 724.34 C 790.68 725.23 793.31 726.13 796.11 726.29 C 794.93 727.82 792.94 727.89 791.25 728.41 C 792.42 732.19 790.53 735.44 787.94 738.11 C 784.70 739.07 778.06 736.98 779.03 741.77 C 780.37 741.86 781.73 741.95 783.10 742.04 C 783.47 743.05 784.25 744.21 783.18 745.11 C 780.32 741.46 775.10 742.95 771.09 741.77 C 769.70 736.47 777.67 739.04 780.96 738.04 C 785.13 738.80 788.65 734.89 788.98 731.03 C 789.03 728.81 785.87 725.97 788.06 724.34 Z" />
</g>
<g id="#1919181b">
<path fill="#191918" opacity="0.11" d=" M 821.62 731.85 C 822.60 730.07 823.68 728.34 824.78 726.63 C 829.01 729.99 829.26 739.17 836.02 737.99 C 833.97 738.04 831.92 738.10 829.89 738.12 L 829.07 738.00 C 824.80 738.34 822.52 735.38 821.62 731.85 Z" />
</g>
<g id="#3b3b3a3e">
<path fill="#3b3b3a" opacity="0.24" d=" M 819.54 735.29 C 820.23 734.14 820.93 733.00 821.62 731.85 C 822.52 735.38 824.80 738.34 829.07 738.00 C 826.02 737.20 821.49 738.50 819.54 735.29 Z" />
</g>
<g id="#64646464">
<path fill="#646464" opacity="0.39" d=" M 818.66 735.16 L 819.54 735.29 C 821.49 738.50 826.02 737.20 829.07 738.00 L 829.89 738.12 C 842.13 739.38 828.84 742.59 825.33 742.39 C 820.08 742.44 819.52 748.57 821.68 752.16 C 823.28 755.58 818.15 752.98 816.28 753.43 C 813.12 755.10 810.07 757.12 807.89 759.99 C 807.17 754.21 813.68 749.80 818.90 751.76 C 818.82 748.15 816.86 743.73 821.06 741.91 C 823.11 741.46 825.16 741.06 827.22 740.61 C 824.65 738.78 821.33 738.70 818.69 737.06 C 818.68 736.58 818.66 735.64 818.66 735.16 Z" />
</g>
<g id="#a5a4a4a6">
<path fill="#a5a4a4" opacity="0.65" d=" M 817.17 738.49 C 817.55 738.13 818.31 737.42 818.69 737.06 C 821.33 738.70 824.65 738.78 827.22 740.61 C 825.16 741.06 823.11 741.46 821.06 741.91 C 815.43 741.46 815.71 745.70 816.94 749.87 C 815.22 749.92 811.79 750.03 810.07 750.08 C 812.44 746.23 815.75 742.85 817.17 738.49 Z" />
</g>
<g id="#a98578fe">
<path fill="#a98578" opacity="1.00" d=" M 779.03 741.77 C 778.06 736.98 784.70 739.07 787.94 738.11 C 782.38 743.05 792.93 742.56 791.92 748.01 C 789.02 757.39 801.56 752.43 803.56 759.06 L 803.53 759.83 C 802.76 760.58 801.99 761.33 801.21 762.08 C 796.12 760.40 784.40 762.24 786.85 753.02 C 785.18 750.04 787.48 742.34 783.10 742.04 C 781.73 741.95 780.37 741.86 779.03 741.77 Z" />
</g>
<g id="#37373737">
<path fill="#373737" opacity="0.22" d=" M 829.89 738.12 C 831.92 738.10 833.97 738.04 836.02 737.99 C 839.91 735.93 845.08 741.57 839.02 741.96 C 834.73 742.11 830.45 742.32 826.24 743.18 C 822.24 747.11 823.71 752.69 826.10 757.00 C 818.90 754.95 808.54 758.65 808.06 767.13 C 808.02 765.02 807.88 762.92 807.80 760.84 L 807.89 759.99 C 810.07 757.12 813.12 755.10 816.28 753.43 C 818.15 752.98 823.28 755.58 821.68 752.16 C 819.52 748.57 820.08 742.44 825.33 742.39 C 828.84 742.59 842.13 739.38 829.89 738.12 Z" />
</g>
<g id="#5c3b32ff">
<path fill="#5c3b32" opacity="1.00" d=" M 228.86 739.03 C 252.99 769.75 284.53 793.72 317.25 814.75 C 336.87 827.66 359.41 834.93 380.03 845.93 C 399.92 855.69 420.79 863.69 441.99 870.05 C 508.44 887.72 579.66 877.74 643.00 852.99 C 658.78 846.91 673.88 838.64 689.23 832.09 C 643.96 861.84 590.51 878.45 536.72 883.11 C 536.29 883.05 535.41 882.93 534.98 882.87 C 514.54 881.92 493.83 883.45 473.42 880.60 C 447.83 878.05 422.95 870.69 399.38 860.56 C 371.17 849.36 343.98 835.68 318.06 819.90 C 288.08 804.28 263.06 781.22 240.87 756.08 C 236.58 750.60 232.33 745.07 228.86 739.03 Z" />
</g>
<g id="#432c26fe">
<path fill="#432c26" opacity="1.00" d=" M 771.08 745.32 C 768.10 744.49 761.38 739.48 767.56 738.61 C 764.81 744.44 777.13 741.21 773.69 747.67 C 763.98 763.43 749.83 775.93 736.31 788.35 C 689.97 829.06 631.82 856.71 570.47 864.58 C 539.97 870.00 508.31 872.72 477.99 864.75 C 476.89 858.62 490.38 863.05 486.03 858.91 C 478.70 855.38 469.98 855.97 462.76 852.11 C 466.84 852.22 470.85 852.78 474.92 853.24 C 476.35 854.53 478.36 854.37 480.08 853.79 C 481.75 853.89 485.09 854.07 486.76 854.17 C 489.87 854.51 493.06 854.94 496.22 854.87 C 504.37 855.16 512.54 855.05 520.70 854.70 C 523.86 854.71 527.16 855.18 530.29 854.32 C 532.14 854.10 534.01 853.95 535.89 853.82 C 537.45 853.66 540.57 853.34 542.13 853.18 C 542.82 853.08 544.21 852.87 544.90 852.77 C 546.61 853.36 548.65 853.54 550.11 852.23 C 550.80 852.13 552.18 851.94 552.87 851.84 C 554.29 852.38 556.01 852.43 557.13 851.22 C 602.58 844.26 645.99 826.47 684.10 800.88 C 684.58 800.96 685.55 801.14 686.04 801.22 C 682.78 811.56 671.45 815.22 664.85 822.86 C 666.86 823.29 668.96 823.73 670.99 823.09 C 710.54 806.99 746.70 780.72 771.08 745.32 Z" />
</g>
<g id="#9a6856fd">
<path fill="#9a6856" opacity="1.00" d=" M 783.10 742.04 C 787.48 742.34 785.18 750.04 786.85 753.02 C 784.40 762.24 796.12 760.40 801.21 762.08 C 800.95 762.50 800.41 763.33 800.15 763.75 C 743.18 839.46 655.86 892.08 561.84 904.99 C 560.52 904.78 559.18 904.91 558.01 905.55 C 556.65 906.00 555.26 906.15 553.83 906.00 C 552.52 905.77 551.18 905.91 550.01 906.55 C 548.64 906.96 547.24 907.09 545.80 906.95 C 544.37 907.08 541.52 907.36 540.10 907.49 C 538.32 907.61 534.77 907.85 533.00 907.97 C 529.52 907.90 526.07 907.83 522.68 908.59 C 512.90 909.18 503.03 909.35 493.26 908.74 C 490.14 908.30 487.10 908.02 483.99 907.95 C 482.22 907.83 478.68 907.60 476.90 907.49 C 475.48 907.34 472.63 907.05 471.21 906.91 C 470.32 906.83 468.53 906.68 467.63 906.61 C 499.67 905.84 532.37 907.84 563.73 899.56 C 592.14 888.75 623.57 887.68 651.01 874.02 C 664.91 868.23 675.35 857.13 686.94 847.94 C 695.51 840.16 705.36 833.66 712.46 824.40 C 719.79 814.51 729.78 807.11 738.02 798.04 C 741.24 794.09 747.91 791.57 747.93 785.83 C 760.58 773.08 772.68 759.72 783.18 745.11 C 784.25 744.21 783.47 743.05 783.10 742.04 Z" />
</g>
<g id="#8a8a8a8b">
<path fill="#8a8a8a" opacity="0.55" d=" M 816.94 749.87 C 815.71 745.70 815.43 741.46 821.06 741.91 C 816.86 743.73 818.82 748.15 818.90 751.76 C 813.68 749.80 807.17 754.21 807.89 759.99 L 807.80 760.84 C 808.73 765.70 804.67 772.58 804.27 764.72 C 804.02 763.08 803.78 761.45 803.53 759.83 L 803.56 759.06 C 804.06 758.45 804.55 757.84 805.06 757.24 C 806.83 754.92 808.40 752.47 810.07 750.08 C 811.79 750.03 815.22 749.92 816.94 749.87 Z" />
</g>
<g id="#15151515">
<path fill="#151515" opacity="0.08" d=" M 826.24 743.18 C 830.45 742.32 834.73 742.11 839.02 741.96 C 829.44 740.51 830.06 753.08 828.77 759.70 C 822.10 763.22 808.31 764.81 808.01 774.05 C 807.91 772.28 807.80 770.52 807.71 768.76 C 807.80 768.36 807.97 767.54 808.06 767.13 C 808.54 758.65 818.90 754.95 826.10 757.00 C 823.71 752.69 822.24 747.11 826.24 743.18 Z" />
</g>
<g id="#644035ff">
<path fill="#644035" opacity="1.00" d=" M 240.87 756.08 C 263.06 781.22 288.08 804.28 318.06 819.90 C 343.98 835.68 371.17 849.36 399.38 860.56 C 422.95 870.69 447.83 878.05 473.42 880.60 C 493.83 883.45 514.54 881.92 534.98 882.87 L 533.87 883.02 C 530.66 883.51 527.38 883.78 524.17 884.08 C 475.84 886.49 427.53 877.04 382.70 859.29 C 328.33 836.82 275.85 804.35 240.87 756.08 Z" />
</g>
<g id="#2f2f2f30">
<path fill="#2f2f2f" opacity="0.19" d=" M 803.53 759.83 C 803.78 761.45 804.02 763.08 804.27 764.72 C 805.56 768.36 801.01 776.12 806.71 777.25 C 806.73 774.18 807.12 771.62 807.71 768.76 C 807.80 770.52 807.91 772.28 808.01 774.05 C 807.27 776.64 809.31 785.12 804.09 784.00 C 801.46 777.73 806.49 767.87 800.15 763.75 C 800.41 763.33 800.95 762.50 801.21 762.08 C 801.99 761.33 802.76 760.58 803.53 759.83 Z" />
</g>
<g id="#59595959">
<path fill="#595959" opacity="0.35" d=" M 804.27 764.72 C 804.67 772.58 808.73 765.70 807.80 760.84 C 807.88 762.92 808.02 765.02 808.06 767.13 C 807.97 767.54 807.80 768.36 807.71 768.76 C 807.12 771.62 806.73 774.18 806.71 777.25 C 801.01 776.12 805.56 768.36 804.27 764.72 Z" />
</g>
<g id="#8b5b4cfd">
<path fill="#8b5b4c" opacity="1.00" d=" M 733.12 799.02 C 739.03 795.86 742.87 790.07 747.93 785.83 C 747.91 791.57 741.24 794.09 738.02 798.04 C 729.78 807.11 719.79 814.51 712.46 824.40 C 705.36 833.66 695.51 840.16 686.94 847.94 C 675.35 857.13 664.91 868.23 651.01 874.02 C 623.57 887.68 592.14 888.75 563.73 899.56 C 532.37 907.84 499.67 905.84 467.63 906.61 L 466.95 906.47 C 465.74 905.95 464.44 905.78 463.16 905.98 C 422.36 901.73 382.34 889.35 345.80 870.75 C 346.05 867.14 350.18 870.55 352.05 870.88 C 413.55 899.65 483.57 911.17 550.76 899.63 C 564.65 895.62 576.23 886.24 590.15 882.20 C 604.84 878.17 619.77 875.11 634.57 871.50 C 656.43 867.18 674.28 851.92 689.04 836.09 C 694.35 832.13 701.24 829.45 704.02 822.93 C 713.76 815.04 724.64 808.34 733.12 799.02 Z" />
</g>
<g id="#2114117a">
<path fill="#211411" opacity="0.48" d=" M 552.87 851.84 C 553.91 850.49 555.70 850.61 557.13 851.22 C 556.01 852.43 554.29 852.38 552.87 851.84 Z" />
</g>
<g id="#1d120f6f">
<path fill="#1d120f" opacity="0.44" d=" M 544.90 852.77 C 546.34 851.45 548.38 851.61 550.11 852.23 C 548.65 853.54 546.61 853.36 544.90 852.77 Z" />
</g>
<g id="#21151177">
<path fill="#211511" opacity="0.47" d=" M 474.92 853.24 C 476.61 852.61 478.66 852.42 480.08 853.79 C 478.36 854.37 476.35 854.53 474.92 853.24 Z" />
</g>
<g id="#2115117d">
<path fill="#211511" opacity="0.49" d=" M 535.89 853.82 C 537.45 853.66 540.57 853.34 542.13 853.18 C 540.57 853.34 537.45 853.66 535.89 853.82 Z" />
</g>
<g id="#1e13106f">
<path fill="#1e1310" opacity="0.44" d=" M 486.76 854.17 C 489.94 854.09 493.05 854.37 496.22 854.87 C 493.06 854.94 489.87 854.51 486.76 854.17 Z" />
</g>
<g id="#20141076">
<path fill="#201410" opacity="0.46" d=" M 520.70 854.70 C 523.83 853.82 527.04 854.13 530.29 854.32 C 527.16 855.18 523.86 854.71 520.70 854.70 Z" />
</g>
<g id="#4c322970">
<path fill="#4c3229" opacity="0.44" d=" M 558.01 905.55 C 559.18 904.91 560.52 904.78 561.84 904.99 C 561.99 906.82 558.84 906.64 558.01 905.55 Z" />
</g>
<g id="#4f342b82">
<path fill="#4f342b" opacity="0.51" d=" M 463.16 905.98 C 464.44 905.78 465.74 905.95 466.95 906.47 C 466.16 907.66 462.94 907.85 463.16 905.98 Z" />
</g>
<g id="#52352c7a">
<path fill="#52352c" opacity="0.48" d=" M 550.01 906.55 C 551.18 905.91 552.52 905.77 553.83 906.00 C 553.98 907.82 550.84 907.64 550.01 906.55 Z" />
</g>
<g id="#4a302878">
<path fill="#4a3028" opacity="0.47" d=" M 471.21 906.91 C 472.63 907.05 475.48 907.34 476.90 907.49 C 475.57 908.78 471.43 909.22 471.21 906.91 Z" />
</g>
<g id="#4c312871">
<path fill="#4c3128" opacity="0.44" d=" M 540.10 907.49 C 541.52 907.36 544.37 907.08 545.80 906.95 C 545.52 909.21 541.43 908.76 540.10 907.49 Z" />
</g>
<g id="#54362d85">
<path fill="#54362d" opacity="0.52" d=" M 483.99 907.95 C 487.10 908.02 490.14 908.30 493.26 908.74 C 490.77 907.90 484.95 910.60 483.99 907.95 Z" />
</g>
<g id="#593a3087">
<path fill="#593a30" opacity="0.53" d=" M 522.68 908.59 C 526.07 907.83 529.52 907.90 533.00 907.97 C 532.16 910.91 525.55 908.42 522.68 908.59 Z" />
</g>
</svg>
