<?xml version="1.0" encoding="iso-8859-1"?>
<!-- Generator: Adobe Illustrator 19.0.0, SVG Export Plug-In . SVG Version: 6.00 Build 0)  -->
<svg xmlns="http://www.w3.org/2000/svg" xmlns:xlink="http://www.w3.org/1999/xlink" version="1.1" id="Capa_1" x="0px" y="0px" viewBox="0 0 409.904 409.904" style="enable-background:new 0 0 409.904 409.904;" xml:space="preserve" width="100" height="100">
<path style="fill:var(--main-content-text-color);" d="M121.971,266.723l17.454,132.33c0.84,6.372,6.381,11.064,12.805,10.843l46.825-1.609  c8.627-0.296,14.357-9.051,11.176-17.076l-51.139-129.016L121.971,266.723z"/>
<path style="fill:var(--main-content-text-color);" d="M124.38,283.328l1.072,9.247c0,0,44.227-4.155,43.423-5.495c-0.804-1.34-8.577-22.918-8.577-22.918  l-39.402,9.918L124.38,283.328"/>
<path style="fill:var(--main-content-text-color);" d="M123.836,120.806l-35.321,17.377c-37.943,18.666-53.569,64.557-34.903,102.5l0,0  c18.666,37.943,64.557,53.569,102.5,34.903l35.321-17.377C191.433,258.209,122.918,120.493,123.836,120.806z"/>
<path style="fill:var(--main-content-text-color);" d="M46.799,195.194l-1.553,0.764c-18.435,9.069-26.047,31.327-17.001,49.714l4.952,10.066  c9.046,18.387,31.323,25.94,49.759,16.871l0,0L46.799,195.194z"/>
<g>
	<g>
		<path style="fill:var(--main-content-text-color);" d="M313.317,282.156c-21.41,0-79.869-5.358-127.218-21.097    c-1.847-0.614-70.514-134.273-69.895-136.187C135.905,64.021,182.735,5.114,184.73,2.71c1.624-1.957,4.132-2.955,6.652-2.659    c2.525,0.299,4.727,1.856,5.849,4.138l131.375,267.043c1.123,2.281,1.013,4.976-0.292,7.158c-1.304,2.182-3.625,3.555-6.167,3.647    C322.015,282.043,318.84,282.156,313.317,282.156z"/>
	</g>
</g>
<g>
	<g>
		<path style="fill:var(--main-content-text-color);" d="M305.567,125.102c-2.769,0-5.431-1.539-6.735-4.191c-1.829-3.716-0.298-8.212,3.419-10.04    l50.74-24.962c3.716-1.829,8.211-0.298,10.04,3.419c1.829,3.716,0.298,8.212-3.419,10.04l-50.74,24.962    C307.807,124.854,306.678,125.102,305.567,125.102z"/>
	</g>
	<g>
		<path style="fill:var(--main-content-text-color);" d="M284.806,81.58c-1.386,0-2.787-0.383-4.041-1.187c-3.487-2.235-4.502-6.875-2.267-10.362    l28.028-44.088c2.235-3.487,6.874-4.502,10.362-2.267c3.487,2.235,4.502,6.875,2.267,10.362l-28.028,44.088    C289.696,80.36,287.277,81.58,284.806,81.58z"/>
	</g>
	<g>
		<path style="fill:var(--main-content-text-color);" d="M377.978,175.273c-0.228,0-0.457-0.01-0.688-0.031l-51.323-5.199    c-4.125-0.375-7.166-4.023-6.791-8.148c0.375-4.126,4.022-7.172,8.148-6.791l51.323,5.199c4.125,0.375,7.166,4.023,6.791,8.148    C385.084,172.346,381.813,175.273,377.978,175.273z"/>
	</g>
</g>
</svg>
