<?xml version="1.0" encoding="UTF-8" ?>
<!DOCTYPE svg PUBLIC "-//W3C//DTD SVG 1.1//EN" "http://www.w3.org/Graphics/SVG/1.1/DTD/svg11.dtd">
<svg width="1000pt" height="1000pt" viewBox="0 0 1000 1000" version="1.1" xmlns="http://www.w3.org/2000/svg">
<g id="#898196ff">
<path fill="#898196" opacity="1.00" d=" M 439.28 58.88 C 439.65 58.91 440.39 58.98 440.75 59.01 C 442.87 62.72 444.56 66.69 447.16 70.11 C 447.51 70.19 448.22 70.36 448.58 70.44 L 448.79 70.49 C 452.28 74.82 455.80 79.73 461.25 81.67 C 463.54 82.62 466.43 82.70 467.76 85.15 C 461.95 91.45 460.39 100.72 462.59 108.86 C 463.75 115.54 467.40 121.44 472.08 126.24 C 465.83 123.63 463.19 116.71 461.20 110.74 C 458.45 101.89 461.44 92.71 465.01 84.58 C 459.97 90.79 457.90 99.00 458.46 106.90 L 456.96 107.03 C 452.58 107.52 448.31 108.69 444.06 109.82 C 443.51 108.33 442.89 106.86 442.19 105.44 C 439.29 99.35 434.46 94.06 428.22 91.32 C 438.00 83.83 439.83 70.39 439.28 58.88 Z" />
</g>
<g id="#b7b3bfff">
<path fill="#b7b3bf" opacity="1.00" d=" M 440.75 59.01 C 441.21 59.07 442.13 59.18 442.59 59.24 C 444.31 63.11 446.33 66.84 448.58 70.44 C 448.22 70.36 447.51 70.19 447.16 70.11 C 444.56 66.69 442.87 62.72 440.75 59.01 Z" />
<path fill="#b7b3bf" opacity="1.00" d=" M 559.12 59.13 C 559.60 59.11 560.57 59.07 561.06 59.05 C 558.46 62.96 556.98 67.77 552.98 70.57 C 555.23 66.87 557.27 63.05 559.12 59.13 Z" />
<path fill="#b7b3bf" opacity="1.00" d=" M 444.06 109.82 C 448.31 108.69 452.58 107.52 456.96 107.03 C 456.83 116.70 456.84 126.38 456.94 136.05 C 456.78 137.65 457.90 138.82 458.78 140.00 C 452.66 140.63 446.62 141.87 440.63 143.21 C 440.55 141.20 440.49 139.18 440.45 137.17 C 440.07 136.78 439.33 135.98 438.96 135.59 C 439.28 135.29 439.94 134.69 440.27 134.39 L 441.32 133.44 C 443.15 131.60 445.35 129.75 445.84 127.06 C 447.04 121.30 446.04 115.30 444.06 109.82 Z" />
</g>
<g id="#897f94ff">
<path fill="#897f94" opacity="1.00" d=" M 499.09 58.99 C 500.25 59.02 501.42 59.05 502.59 59.09 C 505.13 68.89 512.38 77.46 521.93 81.01 C 519.95 85.15 516.70 88.49 514.60 92.57 C 512.34 96.39 510.95 100.60 509.67 104.83 C 504.50 102.19 498.29 104.07 492.69 103.71 C 493.10 110.71 492.97 119.34 486.90 124.03 C 485.06 122.85 483.17 121.76 481.23 120.74 C 480.73 119.81 480.23 118.88 479.74 117.95 C 484.12 117.15 488.30 115.62 492.35 113.81 C 493.26 104.98 489.59 96.40 484.92 89.12 C 483.10 86.48 481.09 83.96 479.66 81.07 C 489.26 77.41 496.47 68.84 499.09 58.99 Z" />
</g>
<g id="#878296ff">
<path fill="#878296" opacity="1.00" d=" M 561.06 59.05 L 562.29 58.67 C 561.70 70.34 563.70 83.49 573.17 91.43 C 566.78 94.24 562.01 99.79 559.13 106.04 C 558.66 106.92 558.23 107.82 557.83 108.73 C 553.25 107.78 548.65 106.94 544.09 105.96 C 543.73 104.20 543.38 102.43 543.08 100.66 C 542.41 94.52 540.00 88.61 536.08 83.83 C 539.99 92.06 543.28 101.46 540.46 110.57 C 538.47 116.54 535.88 123.41 529.70 126.15 C 536.03 119.77 539.67 111.04 539.92 102.07 C 540.10 96.11 538.22 89.97 534.08 85.59 C 534.44 84.79 534.82 84.00 535.20 83.21 C 538.88 82.32 542.69 81.22 545.55 78.60 C 548.39 76.27 550.42 73.17 552.98 70.57 C 556.98 67.77 558.46 62.96 561.06 59.05 Z" />
</g>
<g id="#bfbbc7ff">
<path fill="#bfbbc7" opacity="1.00" d=" M 385.69 72.82 C 387.70 73.86 390.14 74.52 391.39 76.58 C 394.11 80.36 397.41 83.66 400.57 87.06 C 395.41 84.94 392.14 80.19 388.19 76.49 C 387.25 75.34 386.48 74.06 385.69 72.82 Z" />
<path fill="#bfbbc7" opacity="1.00" d=" M 508.68 180.14 C 516.58 179.96 524.44 180.88 532.33 181.07 C 532.55 182.91 532.76 184.75 532.98 186.60 C 519.59 185.62 506.15 186.20 492.74 185.79 C 495.50 185.57 498.25 185.26 501.03 185.22 C 505.76 185.03 510.77 186.10 515.30 184.32 C 515.61 183.36 515.90 182.39 516.15 181.42 C 513.66 181.00 511.18 180.53 508.68 180.14 Z" />
</g>
<g id="#bebac5ff">
<path fill="#bebac5" opacity="1.00" d=" M 610.31 76.47 C 611.48 74.47 613.82 73.89 615.79 72.98 C 614.76 74.56 613.86 76.23 612.66 77.69 C 609.06 80.63 606.29 84.71 601.77 86.36 C 604.69 83.13 607.73 79.99 610.31 76.47 Z" />
<path fill="#bebac5" opacity="1.00" d=" M 492.69 103.71 C 498.29 104.07 504.50 102.19 509.67 104.83 C 509.29 107.77 508.76 110.76 509.25 113.73 C 509.99 117.82 511.38 122.20 515.14 124.50 L 516.44 125.36 L 516.63 125.54 C 517.73 126.60 518.86 127.65 520.07 128.61 C 519.90 131.20 519.74 133.79 519.60 136.38 C 517.89 136.88 516.20 137.39 514.49 137.84 C 503.25 138.16 492.00 137.49 480.76 137.94 C 482.13 137.47 483.49 136.97 484.86 136.49 C 485.33 132.75 486.31 128.89 485.04 125.19 L 485.04 125.18 C 485.50 124.89 486.43 124.32 486.90 124.03 C 492.97 119.34 493.10 110.71 492.69 103.71 Z" />
</g>
<g id="#838095ff">
<path fill="#838095" opacity="1.00" d=" M 388.19 76.49 C 392.14 80.19 395.41 84.94 400.57 87.06 C 406.05 90.99 411.79 95.97 419.06 95.30 C 419.93 95.76 420.81 96.22 421.69 96.69 C 419.92 101.43 419.81 106.53 420.10 111.52 C 417.08 109.26 418.02 104.98 417.45 101.72 C 417.59 100.34 417.72 98.96 417.84 97.58 C 414.09 104.90 415.10 113.80 418.26 121.16 C 416.92 122.30 415.61 123.46 414.31 124.63 C 406.06 108.34 396.73 92.61 388.19 76.49 Z" />
</g>
<g id="#838094ff">
<path fill="#838094" opacity="1.00" d=" M 601.77 86.36 C 606.29 84.71 609.06 80.63 612.66 77.69 C 607.67 87.79 601.68 97.40 596.44 107.38 C 591.93 115.46 587.89 123.79 583.40 131.88 C 582.62 130.44 581.65 128.89 582.24 127.19 C 581.82 126.66 581.41 126.12 581.01 125.58 C 586.24 117.06 588.35 105.62 583.28 96.56 C 584.04 101.29 584.79 106.08 584.33 110.88 C 583.65 110.68 582.29 110.26 581.62 110.05 C 581.88 105.57 581.38 101.07 579.98 96.80 C 580.76 96.30 581.54 95.80 582.33 95.30 C 590.03 96.03 596.08 90.64 601.77 86.36 Z" />
</g>
<g id="#fdfdfdff">
<path fill="#fdfdfd" opacity="1.00" d=" M 536.08 83.83 C 540.00 88.61 542.41 94.52 543.08 100.66 C 542.90 104.83 542.92 109.06 541.90 113.13 C 539.52 119.15 535.90 125.03 530.01 128.15 C 526.80 129.24 523.36 129.27 520.07 128.61 C 518.86 127.65 517.73 126.60 516.63 125.54 C 520.71 127.24 525.62 128.68 529.70 126.15 C 535.88 123.41 538.47 116.54 540.46 110.57 C 543.28 101.46 539.99 92.06 536.08 83.83 Z" />
<path fill="#fdfdfd" opacity="1.00" d=" M 458.46 106.90 C 457.90 99.00 459.97 90.79 465.01 84.58 C 461.44 92.71 458.45 101.89 461.20 110.74 C 463.19 116.71 465.83 123.63 472.08 126.24 C 475.49 128.36 479.56 127.38 483.17 126.46 C 478.88 131.64 470.94 128.66 466.75 124.77 C 462.09 119.89 459.64 113.45 458.46 106.90 Z" />
<path fill="#fdfdfd" opacity="1.00" d=" M 495.57 156.37 C 496.57 155.80 497.59 155.25 498.67 154.80 C 499.10 154.94 499.96 155.22 500.39 155.36 C 500.86 156.19 501.34 157.02 501.84 157.84 C 498.90 157.45 495.94 160.05 496.66 163.09 C 497.27 167.04 504.73 167.35 504.85 163.03 C 505.25 161.09 504.46 159.20 502.60 158.38 C 503.17 158.33 504.32 158.23 504.90 158.17 L 504.93 159.05 C 505.42 161.28 505.21 163.52 504.58 165.69 C 502.18 166.39 499.70 166.48 497.34 165.60 C 496.90 164.50 496.47 163.41 496.05 162.32 C 496.41 161.19 496.78 160.07 497.15 158.95 C 496.76 158.30 495.97 157.01 495.57 156.37 Z" />
<path fill="#fdfdfd" opacity="1.00" d=" M 454.99 160.11 C 456.18 159.55 457.04 158.52 458.06 157.71 L 459.08 157.72 C 459.97 158.27 460.86 158.86 461.73 159.45 L 462.25 160.14 C 461.56 160.58 460.18 161.46 459.49 161.90 C 459.59 162.71 459.79 164.32 459.89 165.13 C 460.73 165.20 462.39 165.34 463.22 165.40 L 463.21 165.50 C 461.74 165.82 459.80 165.51 459.14 167.22 C 459.01 167.71 458.74 168.71 458.60 169.20 C 457.22 168.95 455.82 169.13 454.46 169.30 C 453.38 168.63 452.29 167.99 451.22 167.33 C 451.22 166.12 451.24 164.91 451.26 163.70 C 450.58 163.65 449.22 163.55 448.54 163.50 L 448.53 163.47 C 451.28 163.51 453.45 160.91 451.78 158.34 C 452.53 159.60 453.60 160.19 454.99 160.11 M 452.73 160.87 C 452.08 162.54 451.65 164.27 451.24 166.00 C 452.96 167.23 454.63 169.16 457.00 168.50 C 458.15 166.69 460.30 164.33 458.86 162.12 C 457.63 159.85 454.74 161.18 452.73 160.87 Z" />
<path fill="#fdfdfd" opacity="1.00" d=" M 396.11 201.17 C 398.45 200.56 400.87 200.30 403.29 200.14 C 402.42 201.58 401.52 203.06 400.17 204.11 C 394.03 209.13 387.54 213.71 380.70 217.72 C 376.25 220.69 371.25 222.72 366.90 225.84 C 363.31 228.35 359.33 230.21 355.68 232.62 C 353.15 234.10 352.65 237.77 349.60 238.50 C 344.07 240.11 338.77 243.18 336.07 248.48 C 331.39 251.44 326.48 254.04 322.04 257.37 C 320.80 258.13 319.54 258.85 318.30 259.61 C 317.49 260.11 316.70 260.63 315.92 261.16 C 300.55 271.71 286.08 283.55 272.47 296.29 C 269.77 296.30 267.94 298.44 265.98 299.97 C 255.42 308.21 243.81 315.02 233.32 323.36 C 226.67 329.58 220.16 335.99 214.37 343.04 C 213.57 342.45 212.78 341.86 211.99 341.27 C 202.67 353.64 194.88 367.04 187.58 380.66 C 184.71 385.82 182.84 391.58 179.07 396.20 C 179.41 391.85 181.68 388.04 182.97 383.95 C 185.72 375.72 190.63 368.45 194.88 360.95 C 205.41 342.37 218.26 325.22 231.91 308.84 C 235.49 305.11 238.86 301.21 242.21 297.27 C 250.09 289.47 257.69 281.37 266.24 274.29 C 270.84 269.55 278.24 266.27 278.85 258.89 C 279.64 258.28 280.44 257.67 281.25 257.07 C 283.89 255.10 286.46 253.02 289.10 251.03 C 290.70 251.54 292.48 252.12 294.02 251.07 C 298.23 248.78 302.21 245.97 305.74 242.73 C 307.05 241.86 306.37 240.34 306.21 239.11 C 310.55 235.20 316.80 233.44 319.82 228.17 C 320.90 228.31 321.99 228.42 323.08 228.52 C 323.69 228.69 324.89 229.04 325.49 229.21 C 328.39 227.55 331.54 226.44 334.80 225.74 C 340.75 224.39 345.79 220.76 351.34 218.40 C 365.99 212.00 380.58 205.19 396.11 201.17 Z" />
</g>
<g id="#7e8091ff">
<path fill="#7e8091" opacity="1.00" d=" M 434.10 96.90 C 436.19 100.27 438.90 103.21 442.19 105.44 C 442.89 106.86 443.51 108.33 444.06 109.82 C 446.04 115.30 447.04 121.30 445.84 127.06 C 445.35 129.75 443.15 131.60 441.32 133.44 C 441.57 132.08 440.41 131.24 439.61 130.36 C 436.11 126.78 431.75 124.19 427.20 122.18 C 427.41 119.30 430.07 117.69 431.45 115.38 C 435.13 109.99 435.46 103.12 434.10 96.90 Z" />
</g>
<g id="#7e8191ff">
<path fill="#7e8191" opacity="1.00" d=" M 559.13 106.04 C 562.30 103.29 565.31 100.36 567.76 96.92 C 565.48 104.08 566.99 112.38 572.15 117.93 C 573.08 119.18 575.36 120.90 573.64 122.48 C 568.30 124.92 563.46 128.38 559.63 132.86 C 552.69 126.74 555.24 116.36 557.83 108.73 C 558.23 107.82 558.66 106.92 559.13 106.04 Z" />
</g>
<g id="#f2f2f3ff">
<path fill="#f2f2f3" opacity="1.00" d=" M 583.28 96.56 C 588.35 105.62 586.24 117.06 581.01 125.58 C 576.98 131.68 570.20 137.60 562.32 135.75 C 561.60 134.96 560.87 134.19 560.15 133.42 C 562.08 135.01 564.29 134.22 566.44 133.69 C 568.63 133.57 570.90 133.22 572.51 131.56 C 578.44 126.17 583.50 119.06 584.33 110.88 C 584.79 106.08 584.04 101.29 583.28 96.56 Z" />
<path fill="#f2f2f3" opacity="1.00" d=" M 418.26 121.16 C 415.10 113.80 414.09 104.90 417.84 97.58 C 417.72 98.96 417.59 100.34 417.45 101.72 C 415.53 110.54 418.57 119.87 424.38 126.61 C 427.70 130.51 431.89 135.09 437.52 134.49 C 438.21 134.47 439.58 134.42 440.27 134.39 C 439.94 134.69 439.28 135.29 438.96 135.59 C 437.62 135.78 436.29 135.98 434.96 136.17 C 427.03 134.86 421.50 128.04 418.26 121.16 Z" />
<path fill="#f2f2f3" opacity="1.00" d=" M 265.98 299.97 C 267.94 298.44 269.77 296.30 272.47 296.29 C 266.60 302.00 260.95 307.93 255.28 313.85 C 249.85 316.22 245.41 320.22 240.58 323.57 C 235.53 327.09 230.95 331.21 226.83 335.78 C 217.53 346.06 209.17 357.21 202.36 369.29 C 195.65 381.65 188.95 394.17 179.64 404.83 C 179.14 403.88 178.63 402.94 178.13 402.01 C 176.50 405.35 174.77 408.70 172.14 411.39 C 171.20 409.78 170.28 408.18 169.35 406.57 C 172.63 398.55 176.13 390.63 179.96 382.86 C 180.96 383.22 181.97 383.58 182.97 383.95 C 181.68 388.04 179.41 391.85 179.07 396.20 C 182.84 391.58 184.71 385.82 187.58 380.66 C 194.88 367.04 202.67 353.64 211.99 341.27 C 212.78 341.86 213.57 342.45 214.37 343.04 C 220.16 335.99 226.67 329.58 233.32 323.36 C 243.81 315.02 255.42 308.21 265.98 299.97 Z" />
</g>
<g id="#9d99a9ff">
<path fill="#9d99a9" opacity="1.00" d=" M 543.08 100.66 C 543.38 102.43 543.73 104.20 544.09 105.96 C 548.65 106.94 553.25 107.78 557.83 108.73 C 555.24 116.36 552.69 126.74 559.63 132.86 L 560.15 133.42 C 560.87 134.19 561.60 134.96 562.32 135.75 C 562.43 135.99 562.64 136.48 562.74 136.72 C 563.29 136.94 564.37 137.38 564.92 137.60 C 564.75 139.76 564.56 141.92 564.33 144.08 C 557.07 142.28 549.71 140.55 542.21 140.26 C 543.64 134.94 542.92 129.41 543.08 123.98 C 543.13 120.33 543.46 116.54 541.90 113.13 C 542.92 109.06 542.90 104.83 543.08 100.66 Z" />
</g>
<g id="#aeaab8ff">
<path fill="#aeaab8" opacity="1.00" d=" M 424.38 126.61 C 418.57 119.87 415.53 110.54 417.45 101.72 C 418.02 104.98 417.08 109.26 420.10 111.52 C 422.01 121.25 427.96 130.79 437.52 134.49 C 431.89 135.09 427.70 130.51 424.38 126.61 Z" />
<path fill="#aeaab8" opacity="1.00" d=" M 581.62 110.05 C 582.29 110.26 583.65 110.68 584.33 110.88 C 583.50 119.06 578.44 126.17 572.51 131.56 C 570.90 133.22 568.63 133.57 566.44 133.69 C 574.87 128.74 580.44 119.69 581.62 110.05 Z" />
<path fill="#aeaab8" opacity="1.00" d=" M 520.07 128.61 C 523.36 129.27 526.80 129.24 530.01 128.15 C 530.72 128.81 531.43 129.47 532.16 130.13 C 532.17 133.14 531.90 136.15 531.32 139.11 C 525.71 138.77 520.10 138.23 514.49 137.84 C 516.20 137.39 517.89 136.88 519.60 136.38 C 519.74 133.79 519.90 131.20 520.07 128.61 Z" />
</g>
<g id="#c3bfc9ff">
<path fill="#c3bfc9" opacity="1.00" d=" M 456.96 107.03 L 458.46 106.90 C 459.64 113.45 462.09 119.89 466.75 124.77 C 465.95 128.82 465.79 132.94 465.94 137.06 C 466.68 137.66 467.44 138.25 468.20 138.84 C 465.04 139.12 461.92 139.63 458.78 140.00 C 457.90 138.82 456.78 137.65 456.94 136.05 C 456.84 126.38 456.83 116.70 456.96 107.03 Z" />
</g>
<g id="#7f7e91ff">
<path fill="#7f7e91" opacity="1.00" d=" M 509.25 113.73 C 513.26 115.65 517.47 117.15 521.87 117.90 C 521.15 121.54 516.81 121.66 515.14 124.50 C 511.38 122.20 509.99 117.82 509.25 113.73 Z" />
</g>
<g id="#a5a1b1ff">
<path fill="#a5a1b1" opacity="1.00" d=" M 530.01 128.15 C 535.90 125.03 539.52 119.15 541.90 113.13 C 543.46 116.54 543.13 120.33 543.08 123.98 C 542.92 129.41 543.64 134.94 542.21 140.26 C 538.60 139.68 534.96 139.38 531.32 139.11 C 531.90 136.15 532.17 133.14 532.16 130.13 C 531.43 129.47 530.72 128.81 530.01 128.15 Z" />
</g>
<g id="#9996a7ff">
<path fill="#9996a7" opacity="1.00" d=" M 414.31 124.63 C 415.61 123.46 416.92 122.30 418.26 121.16 C 421.50 128.04 427.03 134.86 434.96 136.17 C 433.93 136.73 432.91 137.31 432.03 138.08 C 431.68 140.70 431.86 143.36 431.90 146.00 C 430.01 147.01 428.23 148.21 426.61 149.59 C 422.63 141.21 418.68 132.81 414.31 124.63 Z" />
</g>
<g id="#cecad2ff">
<path fill="#cecad2" opacity="1.00" d=" M 466.75 124.77 C 470.94 128.66 478.88 131.64 483.17 126.46 C 483.64 126.15 484.57 125.51 485.04 125.19 C 486.31 128.89 485.33 132.75 484.86 136.49 C 483.49 136.97 482.13 137.47 480.76 137.94 C 480.21 138.11 479.11 138.45 478.56 138.62 C 475.86 138.89 473.15 139.14 470.45 139.40 C 469.89 139.26 468.76 138.98 468.20 138.84 C 467.44 138.25 466.68 137.66 465.94 137.06 C 465.79 132.94 465.95 128.82 466.75 124.77 Z" />
</g>
<g id="#8c899cff">
<path fill="#8c899c" opacity="1.00" d=" M 562.32 135.75 C 570.20 137.60 576.98 131.68 581.01 125.58 C 581.41 126.12 581.82 126.66 582.24 127.19 C 581.65 128.89 582.62 130.44 583.40 131.88 L 583.49 132.06 C 580.50 137.65 578.10 143.57 575.07 149.12 L 574.77 149.26 C 571.64 146.90 568.15 145.03 564.33 144.08 C 564.56 141.92 564.75 139.76 564.92 137.60 C 564.37 137.38 563.29 136.94 562.74 136.72 C 562.64 136.48 562.43 135.99 562.32 135.75 Z" />
</g>
<g id="#a7a3b2ff">
<path fill="#a7a3b2" opacity="1.00" d=" M 434.96 136.17 C 436.29 135.98 437.62 135.78 438.96 135.59 C 439.33 135.98 440.07 136.78 440.45 137.17 C 440.49 139.18 440.55 141.20 440.63 143.21 C 437.67 143.96 434.74 144.88 431.90 146.00 C 431.86 143.36 431.68 140.70 432.03 138.08 C 432.91 137.31 433.93 136.73 434.96 136.17 Z" />
</g>
<g id="#dbd7deff">
<path fill="#dbd7de" opacity="1.00" d=" M 478.56 138.62 C 479.11 138.45 480.21 138.11 480.76 137.94 C 492.00 137.49 503.25 138.16 514.49 137.84 C 520.10 138.23 525.71 138.77 531.32 139.11 C 534.96 139.38 538.60 139.68 542.21 140.26 C 543.12 140.88 544.00 141.55 544.90 142.20 C 544.42 142.50 543.46 143.08 542.98 143.37 C 532.36 141.39 521.57 142.06 510.85 141.82 C 512.29 141.49 513.72 141.08 515.15 140.67 C 503.02 139.12 490.80 138.47 478.56 138.62 Z" />
</g>
<g id="#dad8deff">
<path fill="#dad8de" opacity="1.00" d=" M 458.78 140.00 C 461.92 139.63 465.04 139.12 468.20 138.84 C 468.76 138.98 469.89 139.26 470.45 139.40 C 464.37 141.46 457.90 141.79 451.77 143.65 C 452.38 143.86 453.59 144.30 454.19 144.51 C 448.31 145.40 442.30 145.69 436.59 147.46 C 432.85 148.59 429.37 150.44 425.63 151.57 C 425.87 151.08 426.36 150.09 426.61 149.59 C 428.23 148.21 430.01 147.01 431.90 146.00 C 434.74 144.88 437.67 143.96 440.63 143.21 C 446.62 141.87 452.66 140.63 458.78 140.00 Z" />
</g>
<g id="#ffffffff">
<path fill="#ffffff" opacity="1.00" d=" M 470.45 139.40 C 473.15 139.14 475.86 138.89 478.56 138.62 C 490.80 138.47 503.02 139.12 515.15 140.67 C 513.72 141.08 512.29 141.49 510.85 141.82 C 491.94 142.02 473.02 142.76 454.19 144.51 C 453.59 144.30 452.38 143.86 451.77 143.65 C 457.90 141.79 464.37 141.46 470.45 139.40 Z" />
</g>
<g id="#cbc6cfff">
<path fill="#cbc6cf" opacity="1.00" d=" M 542.21 140.26 C 549.71 140.55 557.07 142.28 564.33 144.08 C 568.15 145.03 571.64 146.90 574.77 149.26 C 574.33 149.41 573.44 149.70 573.00 149.85 C 563.33 146.29 553.10 144.92 542.98 143.37 C 543.46 143.08 544.42 142.50 544.90 142.20 C 544.00 141.55 543.12 140.88 542.21 140.26 Z" />
</g>
<g id="#a9a4b3ff">
<path fill="#a9a4b3" opacity="1.00" d=" M 454.19 144.51 C 473.02 142.76 491.94 142.02 510.85 141.82 C 521.57 142.06 532.36 141.39 542.98 143.37 C 553.10 144.92 563.33 146.29 573.00 149.85 C 573.44 149.70 574.33 149.41 574.77 149.26 L 575.07 149.12 C 576.82 151.98 576.54 155.23 574.61 157.94 C 573.42 156.02 572.20 153.93 570.00 153.04 C 561.56 149.13 552.15 148.15 543.03 146.96 C 518.42 144.39 493.57 144.25 468.90 146.08 C 456.43 147.15 443.79 148.53 431.97 152.89 C 429.57 153.60 428.07 155.64 426.62 157.52 C 425.66 155.73 425.21 153.75 425.16 151.72 L 425.63 151.57 C 429.37 150.44 432.85 148.59 436.59 147.46 C 442.30 145.69 448.31 145.40 454.19 144.51 Z" />
</g>
<g id="#868094ff">
<path fill="#868094" opacity="1.00" d=" M 468.90 146.08 C 493.57 144.25 518.42 144.39 543.03 146.96 C 552.15 148.15 561.56 149.13 570.00 153.04 C 572.20 153.93 573.42 156.02 574.61 157.94 C 572.88 159.30 571.04 160.53 569.03 161.43 C 568.99 161.80 568.90 162.54 568.86 162.91 C 568.35 165.88 574.64 168.27 570.41 170.39 C 570.99 170.84 571.49 171.36 571.93 171.96 C 571.50 173.27 570.68 174.49 570.75 175.93 C 569.95 176.84 569.22 177.81 568.73 178.92 C 561.95 176.65 554.81 175.71 547.73 174.90 C 550.18 173.88 552.69 172.49 553.93 170.02 C 555.48 167.55 554.94 164.52 554.48 161.82 L 553.78 160.83 C 551.95 158.53 550.06 155.72 546.92 155.27 C 542.33 154.39 537.65 158.26 537.40 162.87 C 537.31 164.80 537.56 166.76 538.09 168.63 C 538.46 170.93 540.11 172.62 541.58 174.30 C 534.18 173.88 526.80 172.82 519.37 173.07 C 514.20 172.88 509.02 172.67 503.85 172.75 C 506.00 171.36 508.44 170.10 509.74 167.77 C 511.40 165.39 510.63 162.36 510.35 159.70 L 509.95 159.05 C 508.10 156.58 506.37 153.34 503.00 152.86 C 499.22 151.93 494.94 153.54 492.93 156.91 C 492.09 159.00 491.93 161.29 491.69 163.51 C 490.66 168.00 494.89 170.91 498.24 172.85 C 487.04 172.69 475.81 172.86 464.68 174.16 C 463.62 174.14 461.52 174.10 460.47 174.09 C 464.26 170.90 466.69 165.59 464.19 160.84 C 464.03 160.61 463.72 160.14 463.57 159.91 C 461.57 156.27 456.95 153.85 452.97 155.77 C 448.50 157.44 446.35 162.75 447.78 167.19 C 448.02 168.36 448.35 169.53 448.71 170.68 C 449.78 172.65 451.78 173.75 453.58 174.95 C 446.76 175.82 439.94 176.87 433.30 178.69 C 433.02 178.36 432.45 177.71 432.17 177.38 C 431.45 176.63 430.73 175.89 430.00 175.16 C 430.49 175.14 431.45 175.08 431.93 175.05 C 431.06 174.01 430.17 172.98 429.29 171.95 C 430.11 171.48 430.93 171.02 431.76 170.56 C 431.20 170.15 430.07 169.31 429.51 168.89 C 431.04 166.55 433.52 164.57 432.71 161.44 C 430.44 160.53 428.44 159.12 426.62 157.52 C 428.07 155.64 429.57 153.60 431.97 152.89 C 443.79 148.53 456.43 147.15 468.90 146.08 Z" />
</g>
<g id="#393a41ff">
<path fill="#393a41" opacity="1.00" d=" M 492.93 156.91 C 494.94 153.54 499.22 151.93 503.00 152.86 C 506.37 153.34 508.10 156.58 509.95 159.05 C 509.87 161.96 510.23 165.14 508.35 167.61 L 508.44 165.77 C 508.58 162.59 508.61 159.22 506.74 156.48 C 504.37 154.96 501.48 153.61 498.67 154.80 C 497.59 155.25 496.57 155.80 495.57 156.37 C 494.26 158.06 493.29 159.99 492.66 162.03 C 492.63 162.43 492.59 163.25 492.57 163.66 C 492.55 164.34 492.51 165.70 492.49 166.38 C 492.29 165.66 491.89 164.23 491.69 163.51 C 491.93 161.29 492.09 159.00 492.93 156.91 Z" />
<path fill="#393a41" opacity="1.00" d=" M 537.40 162.87 C 537.65 158.26 542.33 154.39 546.92 155.27 C 550.06 155.72 551.95 158.53 553.78 160.83 C 554.24 163.35 554.35 165.97 553.61 168.46 L 553.50 166.79 C 553.22 163.71 552.39 160.41 549.63 158.61 C 549.42 158.50 549.01 158.27 548.81 158.16 L 548.06 157.78 C 544.90 156.82 541.59 157.39 539.35 159.93 C 538.42 161.81 537.96 163.87 537.98 165.96 C 538.13 166.80 538.43 168.48 538.58 169.31 L 538.09 168.63 C 537.56 166.76 537.31 164.80 537.40 162.87 Z" />
<path fill="#393a41" opacity="1.00" d=" M 551.65 216.19 C 555.81 215.83 559.94 216.47 564.04 217.10 C 569.66 217.96 575.39 217.92 580.93 219.30 C 615.87 226.79 649.07 241.12 679.66 259.43 C 698.75 271.12 716.79 284.56 733.26 299.73 C 740.03 306.63 746.93 313.39 753.72 320.27 C 763.88 331.88 773.59 343.93 782.16 356.79 C 789.79 367.86 796.34 379.62 803.03 391.26 C 807.81 399.75 812.00 408.56 815.58 417.62 C 823.15 435.59 828.97 454.33 832.69 473.47 C 832.21 478.37 833.96 483.08 834.41 487.92 C 835.14 495.29 837.07 502.74 835.56 510.15 C 831.86 495.97 829.76 481.30 824.34 467.62 C 820.25 451.09 814.03 435.14 807.74 419.34 C 805.33 409.88 800.41 401.34 796.64 392.39 C 794.13 385.94 789.69 380.54 786.47 374.47 C 780.48 363.25 771.94 353.74 764.13 343.80 C 758.01 336.93 752.48 329.50 745.62 323.33 C 742.19 320.08 739.26 316.34 735.76 313.16 C 729.69 307.62 724.80 300.87 718.16 295.96 C 713.73 292.73 710.36 288.30 705.86 285.16 C 701.34 282.04 697.70 277.78 692.84 275.13 C 683.89 269.40 675.06 263.46 665.74 258.35 C 657.66 254.20 649.42 250.39 641.02 246.93 C 635.46 244.72 629.59 243.37 624.12 240.94 C 618.81 238.63 613.31 236.81 607.76 235.20 C 594.93 230.92 582.02 226.84 569.07 222.95 C 563.22 220.83 556.75 219.99 551.65 216.19 Z" />
</g>
<g id="#e07c31ff">
<path fill="#e07c31" opacity="1.00" d=" M 498.67 154.80 C 501.48 153.61 504.37 154.96 506.74 156.48 C 506.28 156.90 505.36 157.75 504.90 158.17 C 504.32 158.23 503.17 158.33 502.60 158.38 C 502.41 158.25 502.03 157.98 501.84 157.84 C 501.34 157.02 500.86 156.19 500.39 155.36 C 499.96 155.22 499.10 154.94 498.67 154.80 Z" />
</g>
<g id="#573a3eff">
<path fill="#573a3e" opacity="1.00" d=" M 452.97 155.77 C 456.95 153.85 461.57 156.27 463.57 159.91 L 461.73 159.45 C 460.86 158.86 459.97 158.27 459.08 157.72 C 456.73 156.38 453.99 157.12 451.78 158.34 C 450.26 159.74 449.17 161.52 448.53 163.47 C 448.20 164.69 447.99 165.94 447.78 167.19 C 446.35 162.75 448.50 157.44 452.97 155.77 Z" />
</g>
<g id="#e98f36ff">
<path fill="#e98f36" opacity="1.00" d=" M 451.78 158.34 C 453.99 157.12 456.73 156.38 459.08 157.72 L 458.06 157.71 C 457.04 158.52 456.18 159.55 454.99 160.11 C 453.60 160.19 452.53 159.60 451.78 158.34 Z" />
</g>
<g id="#ee8e2cff">
<path fill="#ee8e2c" opacity="1.00" d=" M 492.66 162.03 C 493.29 159.99 494.26 158.06 495.57 156.37 C 495.97 157.01 496.76 158.30 497.15 158.95 C 496.78 160.07 496.41 161.19 496.05 162.32 C 495.20 162.25 493.50 162.10 492.66 162.03 Z" />
</g>
<g id="#ed2228ff">
<path fill="#ed2228" opacity="1.00" d=" M 506.74 156.48 C 508.61 159.22 508.58 162.59 508.44 165.77 C 505.70 167.46 502.87 170.06 499.39 169.47 C 496.22 168.95 494.42 165.97 492.57 163.66 C 492.59 163.25 492.63 162.43 492.66 162.03 C 493.50 162.10 495.20 162.25 496.05 162.32 C 496.47 163.41 496.90 164.50 497.34 165.60 C 499.70 166.48 502.18 166.39 504.58 165.69 C 505.21 163.52 505.42 161.28 504.93 159.05 L 504.90 158.17 C 505.36 157.75 506.28 156.90 506.74 156.48 Z" />
</g>
<g id="#ecebebff">
<path fill="#ecebeb" opacity="1.00" d=" M 539.35 159.93 C 541.59 157.39 544.90 156.82 548.06 157.78 C 547.38 157.87 546.02 158.05 545.34 158.14 C 544.82 160.14 549.50 160.75 548.81 158.16 C 549.01 158.27 549.42 158.50 549.63 158.61 C 549.43 159.17 549.03 160.29 548.84 160.85 C 549.70 161.71 550.57 162.58 551.45 163.44 C 551.01 164.73 550.59 166.02 550.17 167.31 C 548.66 168.27 547.29 169.42 546.10 170.75 C 546.21 170.27 546.43 169.32 546.53 168.85 C 544.98 168.92 543.48 169.24 542.04 169.81 C 542.32 169.30 542.88 168.29 543.16 167.79 C 541.98 165.80 540.21 165.11 537.98 165.96 C 539.23 165.54 540.48 165.12 541.74 164.69 C 541.81 164.04 541.97 162.74 542.04 162.09 C 541.14 161.37 540.24 160.65 539.35 159.93 M 543.11 166.76 C 543.51 167.28 544.32 168.32 544.72 168.84 C 545.57 168.68 547.28 168.37 548.13 168.21 C 548.95 167.18 549.79 166.17 550.52 165.07 C 551.05 161.85 546.78 159.11 544.08 160.95 C 541.65 161.84 541.86 164.98 543.11 166.76 Z" />
<path fill="#ecebeb" opacity="1.00" d=" M 300.80 242.61 C 302.30 241.57 303.78 240.49 305.32 239.49 L 306.21 239.11 C 306.37 240.34 307.05 241.86 305.74 242.73 C 302.21 245.97 298.23 248.78 294.02 251.07 C 292.48 252.12 290.70 251.54 289.10 251.03 C 289.58 250.68 290.53 249.98 291.01 249.62 C 291.53 249.24 292.05 248.86 292.57 248.48 C 295.28 246.49 298.03 244.53 300.80 242.61 Z" />
<path fill="#ecebeb" opacity="1.00" d=" M 274.40 262.66 C 275.83 261.35 277.28 260.05 278.85 258.89 C 278.24 266.27 270.84 269.55 266.24 274.29 C 257.69 281.37 250.09 289.47 242.21 297.27 C 238.86 301.21 235.49 305.11 231.91 308.84 C 218.26 325.22 205.41 342.37 194.88 360.95 C 190.63 368.45 185.72 375.72 182.97 383.95 C 181.97 383.58 180.96 383.22 179.96 382.86 C 202.04 337.74 233.56 297.27 271.91 264.83 C 272.75 264.12 273.57 263.39 274.40 262.66 Z" />
</g>
<g id="#ed1f2bff">
<path fill="#ed1f2b" opacity="1.00" d=" M 496.66 163.09 C 495.94 160.05 498.90 157.45 501.84 157.84 C 502.03 157.98 502.41 158.25 502.60 158.38 C 504.46 159.20 505.25 161.09 504.85 163.03 C 504.73 167.35 497.27 167.04 496.66 163.09 Z" />
</g>
<g id="#f79126ff">
<path fill="#f79126" opacity="1.00" d=" M 545.34 158.14 C 546.02 158.05 547.38 157.87 548.06 157.78 L 548.81 158.16 C 549.50 160.75 544.82 160.14 545.34 158.14 Z" />
</g>
<g id="#e5202dff">
<path fill="#e5202d" opacity="1.00" d=" M 448.53 163.47 C 449.17 161.52 450.26 159.74 451.78 158.34 C 453.45 160.91 451.28 163.51 448.53 163.47 Z" />
</g>
<g id="#f2f1f3ff">
<path fill="#f2f1f3" opacity="1.00" d=" M 509.95 159.05 L 510.35 159.70 C 510.63 162.36 511.40 165.39 509.74 167.77 C 508.44 170.10 506.00 171.36 503.85 172.75 C 509.02 172.67 514.20 172.88 519.37 173.07 C 516.79 173.51 514.20 173.94 511.61 174.28 C 511.53 174.64 511.37 175.37 511.29 175.74 C 503.48 176.99 495.56 175.80 487.74 176.83 C 475.17 177.18 462.61 178.01 450.12 179.51 C 449.82 179.20 449.21 178.59 448.91 178.28 C 454.13 176.80 459.90 176.98 464.68 174.16 C 475.81 172.86 487.04 172.69 498.24 172.85 C 494.89 170.91 490.66 168.00 491.69 163.51 C 491.89 164.23 492.29 165.66 492.49 166.38 C 495.13 172.51 504.73 173.12 508.35 167.61 C 510.23 165.14 509.87 161.96 509.95 159.05 Z" />
</g>
<g id="#ed2231ff">
<path fill="#ed2231" opacity="1.00" d=" M 549.63 158.61 C 552.39 160.41 553.22 163.71 553.50 166.79 C 551.64 168.47 549.97 170.49 547.68 171.59 C 545.22 172.27 542.65 171.52 540.18 171.36 C 539.61 170.70 539.08 170.02 538.58 169.31 C 538.43 168.48 538.13 166.80 537.98 165.96 C 540.21 165.11 541.98 165.80 543.16 167.79 C 542.88 168.29 542.32 169.30 542.04 169.81 C 543.48 169.24 544.98 168.92 546.53 168.85 C 546.43 169.32 546.21 170.27 546.10 170.75 C 547.29 169.42 548.66 168.27 550.17 167.31 C 550.59 166.02 551.01 164.73 551.45 163.44 C 550.57 162.58 549.70 161.71 548.84 160.85 C 549.03 160.29 549.43 159.17 549.63 158.61 Z" />
</g>
<g id="#a64d27ff">
<path fill="#a64d27" opacity="1.00" d=" M 461.73 159.45 L 463.57 159.91 C 463.72 160.14 464.03 160.61 464.19 160.84 C 465.14 165.40 463.61 170.95 458.96 172.80 C 455.40 174.57 451.64 172.76 448.71 170.68 C 448.35 169.53 448.02 168.36 447.78 167.19 C 447.99 165.94 448.20 164.69 448.53 163.47 L 448.54 163.50 C 448.59 167.64 451.61 171.78 455.94 172.02 C 459.72 172.40 462.65 168.98 463.21 165.50 L 463.22 165.40 C 463.01 163.63 462.71 161.86 462.25 160.14 L 461.73 159.45 Z" />
</g>
<g id="#eb882aff">
<path fill="#eb882a" opacity="1.00" d=" M 537.98 165.96 C 537.96 163.87 538.42 161.81 539.35 159.93 C 540.24 160.65 541.14 161.37 542.04 162.09 C 541.97 162.74 541.81 164.04 541.74 164.69 C 540.48 165.12 539.23 165.54 537.98 165.96 Z" />
</g>
<g id="#d9d6ddff">
<path fill="#d9d6dd" opacity="1.00" d=" M 432.71 161.44 C 433.52 164.57 431.04 166.55 429.51 168.89 C 430.07 169.31 431.20 170.15 431.76 170.56 C 430.93 171.02 430.11 171.48 429.29 171.95 C 430.17 172.98 431.06 174.01 431.93 175.05 C 431.45 175.08 430.49 175.14 430.00 175.16 L 429.31 174.81 C 428.95 171.89 429.21 168.94 429.13 166.00 C 430.46 164.62 432.62 163.58 432.71 161.44 Z" />
<path fill="#d9d6dd" opacity="1.00" d=" M 464.19 160.84 C 466.69 165.59 464.26 170.90 460.47 174.09 C 461.52 174.10 463.62 174.14 464.68 174.16 C 459.90 176.98 454.13 176.80 448.91 178.28 C 449.21 178.59 449.82 179.20 450.12 179.51 C 441.76 180.45 432.74 181.42 426.10 187.15 L 425.10 187.50 C 424.60 182.93 428.95 180.83 432.28 178.99 C 432.25 178.59 432.20 177.79 432.17 177.38 C 432.45 177.71 433.02 178.36 433.30 178.69 C 439.94 176.87 446.76 175.82 453.58 174.95 C 451.78 173.75 449.78 172.65 448.71 170.68 C 451.64 172.76 455.40 174.57 458.96 172.80 C 463.61 170.95 465.14 165.40 464.19 160.84 Z" />
</g>
<g id="#ed2230ff">
<path fill="#ed2230" opacity="1.00" d=" M 452.73 160.87 C 454.74 161.18 457.63 159.85 458.86 162.12 C 460.30 164.33 458.15 166.69 457.00 168.50 C 454.63 169.16 452.96 167.23 451.24 166.00 C 451.65 164.27 452.08 162.54 452.73 160.87 Z" />
</g>
<g id="#f68e24ff">
<path fill="#f68e24" opacity="1.00" d=" M 459.49 161.90 C 460.18 161.46 461.56 160.58 462.25 160.14 C 462.71 161.86 463.01 163.63 463.22 165.40 C 462.39 165.34 460.73 165.20 459.89 165.13 C 459.79 164.32 459.59 162.71 459.49 161.90 Z" />
</g>
<g id="#ed202cff">
<path fill="#ed202c" opacity="1.00" d=" M 543.11 166.76 C 541.86 164.98 541.65 161.84 544.08 160.95 C 546.78 159.11 551.05 161.85 550.52 165.07 C 549.79 166.17 548.95 167.18 548.13 168.21 C 547.28 168.37 545.57 168.68 544.72 168.84 C 544.32 168.32 543.51 167.28 543.11 166.76 Z" />
</g>
<g id="#dad6ddff">
<path fill="#dad6dd" opacity="1.00" d=" M 553.78 160.83 L 554.48 161.82 C 554.94 164.52 555.48 167.55 553.93 170.02 C 552.69 172.49 550.18 173.88 547.73 174.90 C 546.49 175.10 545.27 175.31 544.04 175.52 C 544.20 176.54 544.36 177.57 544.54 178.60 C 525.68 176.39 506.68 176.90 487.74 176.83 C 495.56 175.80 503.48 176.99 511.29 175.74 C 511.37 175.37 511.53 174.64 511.61 174.28 C 514.20 173.94 516.79 173.51 519.37 173.07 C 526.80 172.82 534.18 173.88 541.58 174.30 C 540.11 172.62 538.46 170.93 538.09 168.63 L 538.58 169.31 C 539.08 170.02 539.61 170.70 540.18 171.36 C 544.32 175.08 551.52 173.73 553.61 168.46 C 554.35 165.97 554.24 163.35 553.78 160.83 Z" />
</g>
<g id="#e8e8eaff">
<path fill="#e8e8ea" opacity="1.00" d=" M 568.86 162.91 C 570.04 163.88 571.21 164.87 572.38 165.87 C 572.01 169.17 574.10 173.71 570.75 175.93 C 570.68 174.49 571.50 173.27 571.93 171.96 C 571.49 171.36 570.99 170.84 570.41 170.39 C 574.64 168.27 568.35 165.88 568.86 162.91 Z" />
<path fill="#e8e8ea" opacity="1.00" d=" M 840.98 668.96 C 843.35 666.00 845.38 662.59 848.81 660.72 C 848.73 663.73 848.41 666.76 847.48 669.64 C 845.18 676.96 842.83 684.31 839.32 691.17 C 835.78 698.09 833.21 705.48 829.27 712.20 C 826.57 716.78 825.81 722.24 822.72 726.63 C 821.25 728.64 820.55 731.04 820.54 733.52 C 820.34 733.86 819.94 734.54 819.74 734.89 C 818.56 736.81 817.59 738.84 816.51 740.83 C 815.81 738.69 813.70 736.41 815.31 734.18 C 819.25 726.69 822.32 718.79 826.46 711.40 C 828.56 706.61 831.93 701.86 831.54 696.41 C 827.02 700.24 822.30 703.85 818.20 708.14 C 815.34 710.95 812.47 713.95 808.80 715.69 C 807.43 715.42 806.19 714.80 804.92 714.30 C 803.14 718.82 801.17 723.70 796.48 725.92 C 797.84 723.67 799.14 721.38 800.48 719.12 C 801.05 718.12 801.64 717.13 802.21 716.13 C 804.06 712.87 806.00 709.67 807.91 706.44 C 809.81 702.97 811.68 699.49 813.46 695.96 C 818.35 693.20 821.75 688.61 825.78 684.82 C 830.81 679.50 836.48 674.77 840.98 668.96 Z" />
</g>
<g id="#e5242cff">
<path fill="#e5242c" opacity="1.00" d=" M 448.54 163.50 C 449.22 163.55 450.58 163.65 451.26 163.70 C 451.24 164.91 451.22 166.12 451.22 167.33 C 452.29 167.99 453.38 168.63 454.46 169.30 C 455.82 169.13 457.22 168.95 458.60 169.20 C 458.74 168.71 459.01 167.71 459.14 167.22 C 459.80 165.51 461.74 165.82 463.21 165.50 C 462.65 168.98 459.72 172.40 455.94 172.02 C 451.61 171.78 448.59 167.64 448.54 163.50 Z" />
</g>
<g id="#a3582cff">
<path fill="#a3582c" opacity="1.00" d=" M 492.57 163.66 C 494.42 165.97 496.22 168.95 499.39 169.47 C 502.87 170.06 505.70 167.46 508.44 165.77 L 508.35 167.61 C 504.73 173.12 495.13 172.51 492.49 166.38 C 492.51 165.70 492.55 164.34 492.57 163.66 Z" />
</g>
<g id="#a25526ff">
<path fill="#a25526" opacity="1.00" d=" M 547.68 171.59 C 549.97 170.49 551.64 168.47 553.50 166.79 L 553.61 168.46 C 551.52 173.73 544.32 175.08 540.18 171.36 C 542.65 171.52 545.22 172.27 547.68 171.59 Z" />
</g>
<g id="#cfcccdff">
<path fill="#cfcccd" opacity="1.00" d=" M 544.04 175.52 C 545.27 175.31 546.49 175.10 547.73 174.90 C 554.81 175.71 561.95 176.65 568.73 178.92 C 572.11 179.74 574.25 182.63 576.97 184.41 C 646.37 197.53 711.60 231.46 762.29 280.62 C 811.91 328.43 847.66 390.50 863.71 457.54 C 879.28 522.06 876.97 590.82 856.86 654.10 C 849.83 676.39 840.52 697.95 829.41 718.51 C 827.59 721.72 825.80 724.95 823.91 728.12 C 823.60 728.64 822.98 729.66 822.67 730.18 C 821.97 731.29 821.24 732.40 820.54 733.52 C 820.55 731.04 821.25 728.64 822.72 726.63 C 825.81 722.24 826.57 716.78 829.27 712.20 C 833.21 705.48 835.78 698.09 839.32 691.17 C 842.83 684.31 845.18 676.96 847.48 669.64 C 848.41 666.76 848.73 663.73 848.81 660.72 C 845.38 662.59 843.35 666.00 840.98 668.96 C 836.48 674.77 830.81 679.50 825.78 684.82 C 821.75 688.61 818.35 693.20 813.46 695.96 C 816.87 688.70 820.30 681.45 823.55 674.11 C 829.08 669.63 832.22 663.13 836.66 657.71 C 839.77 653.09 842.35 648.12 845.82 643.74 C 849.70 637.73 856.11 633.61 858.88 626.85 C 864.31 614.97 865.82 601.81 867.66 589.01 C 869.76 573.44 870.23 557.72 870.65 542.05 C 869.89 531.37 870.05 520.65 868.87 510.00 C 861.79 428.79 825.75 350.52 768.88 292.16 C 766.65 289.42 764.36 286.70 761.56 284.51 C 757.08 281.01 753.41 276.63 749.13 272.91 C 720.45 247.63 688.03 226.45 652.96 211.15 C 628.43 200.51 602.77 192.46 576.50 187.46 L 575.82 187.33 C 574.10 185.58 572.20 183.90 569.80 183.19 C 561.65 180.43 553.01 179.73 544.54 178.60 C 544.36 177.57 544.20 176.54 544.04 175.52 Z" />
</g>
<g id="#848094ff">
<path fill="#848094" opacity="1.00" d=" M 450.12 179.51 C 462.61 178.01 475.17 177.18 487.74 176.83 C 506.68 176.90 525.68 176.39 544.54 178.60 C 553.01 179.73 561.65 180.43 569.80 183.19 C 572.20 183.90 574.10 185.58 575.82 187.33 C 566.96 187.66 558.88 183.26 550.07 182.89 C 544.17 182.19 538.27 181.38 532.33 181.07 C 524.44 180.88 516.58 179.96 508.68 180.14 C 505.86 180.03 503.03 180.00 500.20 180.03 C 489.99 179.90 479.80 180.32 469.62 180.98 C 463.05 180.99 456.57 182.16 450.06 182.79 C 444.42 183.54 438.71 184.49 433.57 187.06 C 431.08 187.15 428.59 187.14 426.10 187.15 C 432.74 181.42 441.76 180.45 450.12 179.51 Z" />
</g>
<g id="#dddbe1ff">
<path fill="#dddbe1" opacity="1.00" d=" M 469.62 180.98 C 479.80 180.32 489.99 179.90 500.20 180.03 C 500.48 181.76 500.75 183.49 501.03 185.22 C 498.25 185.26 495.50 185.57 492.74 185.79 C 485.11 186.16 477.46 185.84 469.85 186.49 C 471.03 185.35 472.12 184.11 473.14 182.82 C 471.97 182.19 470.80 181.58 469.62 180.98 Z" />
</g>
<g id="#cecbd4ff">
<path fill="#cecbd4" opacity="1.00" d=" M 500.20 180.03 C 503.03 180.00 505.86 180.03 508.68 180.14 C 511.18 180.53 513.66 181.00 516.15 181.42 C 515.90 182.39 515.61 183.36 515.30 184.32 C 510.77 186.10 505.76 185.03 501.03 185.22 C 500.75 183.49 500.48 181.76 500.20 180.03 Z" />
</g>
<g id="#bdbdc2ff">
<path fill="#bdbdc2" opacity="1.00" d=" M 450.06 182.79 C 456.57 182.16 463.05 180.99 469.62 180.98 C 470.80 181.58 471.97 182.19 473.14 182.82 C 472.12 184.11 471.03 185.35 469.85 186.49 C 466.50 186.94 463.14 187.33 459.76 187.34 C 459.32 187.31 458.45 187.25 458.01 187.22 C 454.09 191.59 448.96 194.64 445.06 199.04 C 441.42 203.28 437.22 207.00 432.64 210.21 C 425.66 211.90 418.73 213.84 411.78 215.68 C 412.85 214.15 414.02 212.69 415.44 211.46 C 424.15 203.61 432.25 194.98 441.95 188.31 C 436.63 188.10 431.30 188.01 425.99 187.56 L 425.10 187.50 L 426.10 187.15 C 428.59 187.14 431.08 187.15 433.57 187.06 C 439.68 187.28 445.85 187.66 451.91 186.67 C 452.75 184.99 450.88 183.98 450.06 182.79 Z" />
</g>
<g id="#b2acbaff">
<path fill="#b2acba" opacity="1.00" d=" M 532.33 181.07 C 538.27 181.38 544.17 182.19 550.07 182.89 C 547.98 184.65 546.08 187.11 543.18 187.41 C 539.76 187.42 536.37 186.99 532.98 186.60 C 532.76 184.75 532.55 182.91 532.33 181.07 Z" />
</g>
<g id="#a7a3b3ff">
<path fill="#a7a3b3" opacity="1.00" d=" M 433.57 187.06 C 438.71 184.49 444.42 183.54 450.06 182.79 C 450.88 183.98 452.75 184.99 451.91 186.67 C 445.85 187.66 439.68 187.28 433.57 187.06 Z" />
</g>
<g id="#a5a6acff">
<path fill="#a5a6ac" opacity="1.00" d=" M 550.07 182.89 C 558.88 183.26 566.96 187.66 575.82 187.33 L 576.50 187.46 C 573.03 187.92 569.56 188.33 566.06 188.44 C 631.59 199.09 693.92 228.48 743.84 272.25 C 749.40 276.62 754.32 281.69 759.27 286.73 C 798.71 324.45 828.33 371.92 846.98 423.08 C 858.10 454.60 864.97 487.62 867.17 520.97 C 867.30 531.65 868.71 542.30 867.77 552.99 C 866.84 561.30 867.52 569.70 866.33 577.99 C 865.27 587.68 864.19 597.41 861.87 606.90 C 861.05 609.94 860.07 613.41 857.08 615.01 C 852.71 617.50 848.32 620.07 844.64 623.53 C 842.23 626.31 840.28 629.46 837.79 632.19 C 847.04 596.37 851.17 559.15 848.69 522.19 C 844.86 454.74 820.03 388.74 778.73 335.30 C 737.68 281.76 680.44 240.78 616.38 219.53 C 564.24 201.94 507.86 197.76 453.56 206.22 C 457.88 201.14 464.24 198.59 468.95 193.95 C 471.01 192.08 472.72 189.86 474.33 187.60 C 490.91 187.91 507.48 188.05 524.06 187.61 C 530.43 187.33 536.82 188.12 543.18 187.41 C 546.08 187.11 547.98 184.65 550.07 182.89 Z" />
<path fill="#a5a6ac" opacity="1.00" d=" M 165.51 444.65 C 172.97 440.55 179.25 434.78 186.14 429.88 C 161.90 498.88 160.49 575.67 182.53 645.43 C 192.54 677.48 207.42 708.00 226.35 735.74 C 220.25 735.95 214.13 735.60 208.07 736.41 C 202.22 729.63 197.43 722.03 192.26 714.75 C 193.04 720.32 196.73 724.90 199.17 729.84 C 201.61 734.94 205.25 739.38 207.32 744.67 C 210.44 751.48 214.99 757.50 218.81 763.92 C 218.34 763.95 217.39 764.02 216.92 764.06 C 170.82 703.87 144.67 628.81 142.95 553.04 C 142.27 527.15 144.33 501.20 149.08 475.74 L 149.26 475.87 C 149.59 476.13 150.25 476.65 150.59 476.91 C 152.74 464.52 156.56 452.09 164.35 442.03 C 164.64 442.68 165.22 443.99 165.51 444.65 Z" />
<path fill="#a5a6ac" opacity="1.00" d=" M 636.59 859.43 C 644.93 855.87 653.18 852.11 661.37 848.22 C 663.23 849.10 665.11 849.91 667.02 850.70 C 666.73 854.44 664.12 857.28 662.30 860.37 C 659.72 864.32 657.57 868.81 653.59 871.57 C 644.24 877.81 633.61 881.79 622.89 884.97 C 604.95 891.36 586.30 895.31 567.96 900.32 C 551.74 905.07 534.77 905.96 518.02 907.25 C 507.37 907.43 496.71 907.47 486.07 907.19 C 483.87 907.16 481.70 907.48 479.54 907.78 C 423.03 903.82 367.58 885.69 319.18 856.28 C 319.72 855.88 320.80 855.07 321.34 854.67 C 379.81 889.50 448.46 906.83 516.44 904.62 C 522.97 905.61 529.58 904.86 536.12 904.37 C 545.85 903.35 555.81 902.65 564.97 898.92 C 571.55 896.84 573.32 889.09 574.03 883.02 C 566.60 882.17 559.25 883.91 551.85 884.20 C 558.08 881.78 564.89 882.03 571.35 880.55 C 583.96 877.84 596.61 875.27 609.15 872.23 C 615.23 870.70 620.85 867.88 626.71 865.72 C 629.93 864.35 633.37 863.26 636.20 861.14 C 636.30 860.72 636.49 859.86 636.59 859.43 Z" />
<path fill="#a5a6ac" opacity="1.00" d=" M 411.87 870.72 C 428.50 875.13 445.31 879.06 462.39 881.35 C 460.60 881.63 458.79 881.98 456.98 881.80 C 447.17 881.02 437.60 878.63 427.96 876.87 C 422.51 875.12 416.34 874.59 411.87 870.72 Z" />
</g>
<g id="#7f8087ff">
<path fill="#7f8087" opacity="1.00" d=" M 459.76 187.34 C 463.14 187.33 466.50 186.94 469.85 186.49 C 477.46 185.84 485.11 186.16 492.74 185.79 C 506.15 186.20 519.59 185.62 532.98 186.60 C 536.37 186.99 539.76 187.42 543.18 187.41 C 536.82 188.12 530.43 187.33 524.06 187.61 C 507.48 188.05 490.91 187.91 474.33 187.60 C 469.47 187.58 464.60 187.86 459.76 187.34 Z" />
<path fill="#7f8087" opacity="1.00" d=" M 239.85 778.79 C 243.65 777.28 247.47 775.78 251.14 773.97 C 255.82 777.02 260.78 779.66 265.98 781.72 L 265.17 782.31 C 269.19 786.87 273.57 791.15 278.17 795.13 C 273.25 797.59 270.18 802.09 267.59 806.76 C 265.01 806.13 262.73 804.64 260.24 803.76 C 263.70 807.90 267.35 811.87 271.07 815.79 C 270.54 815.85 269.47 815.98 268.93 816.04 C 265.35 813.03 261.05 810.73 258.37 806.78 C 256.50 803.97 254.08 801.62 251.63 799.34 C 247.90 795.88 245.09 791.58 241.38 788.11 C 239.10 783.40 235.30 779.64 233.09 774.89 C 235.40 776.08 237.65 777.40 239.85 778.79 Z" />
</g>
<g id="#acacb2ff">
<path fill="#acacb2" opacity="1.00" d=" M 445.06 199.04 C 448.96 194.64 454.09 191.59 458.01 187.22 C 458.45 187.25 459.32 187.31 459.76 187.34 C 464.60 187.86 469.47 187.58 474.33 187.60 C 472.72 189.86 471.01 192.08 468.95 193.95 C 464.24 198.59 457.88 201.14 453.56 206.22 C 446.57 207.45 439.61 208.86 432.64 210.21 C 437.22 207.00 441.42 203.28 445.06 199.04 Z" />
</g>
<g id="#b5b5b9ff">
<path fill="#b5b5b9" opacity="1.00" d=" M 576.50 187.46 C 602.77 192.46 628.43 200.51 652.96 211.15 C 688.03 226.45 720.45 247.63 749.13 272.91 C 753.41 276.63 757.08 281.01 761.56 284.51 C 764.36 286.70 766.65 289.42 768.88 292.16 C 825.75 350.52 861.79 428.79 868.87 510.00 C 870.05 520.65 869.89 531.37 870.65 542.05 C 870.23 557.72 869.76 573.44 867.66 589.01 C 865.82 601.81 864.31 614.97 858.88 626.85 C 856.11 633.61 849.70 637.73 845.82 643.74 C 842.35 648.12 839.77 653.09 836.66 657.71 C 832.22 663.13 829.08 669.63 823.55 674.11 C 828.81 660.32 833.89 646.44 837.79 632.19 C 840.28 629.46 842.23 626.31 844.64 623.53 C 848.32 620.07 852.71 617.50 857.08 615.01 C 860.07 613.41 861.05 609.94 861.87 606.90 C 864.19 597.41 865.27 587.68 866.33 577.99 C 867.52 569.70 866.84 561.30 867.77 552.99 C 868.71 542.30 867.30 531.65 867.17 520.97 C 864.97 487.62 858.10 454.60 846.98 423.08 C 828.33 371.92 798.71 324.45 759.27 286.73 C 754.32 281.69 749.40 276.62 743.84 272.25 C 693.92 228.48 631.59 199.09 566.06 188.44 C 569.56 188.33 573.03 187.92 576.50 187.46 Z" />
</g>
<g id="#d4d4d7ff">
<path fill="#d4d4d7" opacity="1.00" d=" M 396.43 195.64 C 406.06 192.27 415.97 189.45 425.99 187.56 C 431.30 188.01 436.63 188.10 441.95 188.31 C 432.25 194.98 424.15 203.61 415.44 211.46 C 414.02 212.69 412.85 214.15 411.78 215.68 C 407.17 217.08 402.60 218.63 398.02 220.12 C 397.58 219.97 396.68 219.67 396.24 219.52 C 406.65 212.02 416.84 203.86 425.02 193.93 C 424.96 193.51 424.84 192.68 424.78 192.27 C 415.14 190.26 405.97 195.60 396.43 195.64 Z" />
</g>
<g id="#e2e2e4ff">
<path fill="#e2e2e4" opacity="1.00" d=" M 396.43 195.64 C 405.97 195.60 415.14 190.26 424.78 192.27 C 424.84 192.68 424.96 193.51 425.02 193.93 C 416.84 203.86 406.65 212.02 396.24 219.52 C 396.68 219.67 397.58 219.97 398.02 220.12 C 390.51 222.56 383.25 225.68 375.85 228.42 C 377.76 226.43 379.92 224.71 382.33 223.35 C 394.56 216.02 406.82 208.09 415.94 196.94 C 415.65 196.47 415.06 195.53 414.77 195.05 C 398.96 196.77 384.07 202.82 369.32 208.44 C 360.93 211.80 352.74 215.65 344.60 219.55 C 342.36 220.77 339.80 220.65 337.36 220.36 C 339.43 219.26 341.52 218.20 343.63 217.16 C 344.04 216.96 344.86 216.55 345.27 216.35 C 361.77 208.21 378.81 200.94 396.43 195.64 Z" />
</g>
<g id="#f0f0f1ff">
<path fill="#f0f0f1" opacity="1.00" d=" M 369.32 208.44 C 384.07 202.82 398.96 196.77 414.77 195.05 C 415.06 195.53 415.65 196.47 415.94 196.94 C 406.82 208.09 394.56 216.02 382.33 223.35 C 379.92 224.71 377.76 226.43 375.85 228.42 C 363.32 233.95 351.00 239.99 339.09 246.76 C 338.07 247.32 337.06 247.89 336.07 248.48 C 338.77 243.18 344.07 240.11 349.60 238.50 C 352.65 237.77 353.15 234.10 355.68 232.62 C 359.33 230.21 363.31 228.35 366.90 225.84 C 371.25 222.72 376.25 220.69 380.70 217.72 C 387.54 213.71 394.03 209.13 400.17 204.11 C 401.52 203.06 402.42 201.58 403.29 200.14 C 400.87 200.30 398.45 200.56 396.11 201.17 C 380.58 205.19 365.99 212.00 351.34 218.40 C 345.79 220.76 340.75 224.39 334.80 225.74 C 331.54 226.44 328.39 227.55 325.49 229.21 C 324.89 229.04 323.69 228.69 323.08 228.52 L 322.98 228.07 C 323.49 227.92 324.50 227.62 325.01 227.47 C 327.60 225.60 330.43 224.10 333.22 222.54 C 334.59 221.79 335.96 221.05 337.36 220.36 C 339.80 220.65 342.36 220.77 344.60 219.55 C 352.74 215.65 360.93 211.80 369.32 208.44 Z" />
</g>
<g id="#0e0e0e0e">
<path fill="#0e0e0e" opacity="0.05" d=" M 314.86 208.85 C 317.24 204.61 315.88 198.56 320.00 195.13 C 323.62 198.34 323.19 203.61 324.24 207.95 C 324.42 210.27 327.29 210.40 329.00 211.08 C 332.03 211.72 334.67 213.36 337.16 215.14 C 339.56 214.04 342.07 213.09 344.75 213.02 C 344.88 213.85 345.14 215.52 345.27 216.35 C 344.86 216.55 344.04 216.96 343.63 217.16 C 342.92 216.01 342.01 214.62 340.53 215.63 C 337.95 216.61 335.77 218.68 332.98 219.05 C 330.11 218.66 327.46 217.40 324.78 216.37 C 324.15 214.83 323.53 213.30 322.90 211.77 C 322.56 213.59 322.21 215.42 321.95 217.25 C 321.83 220.89 322.73 224.45 322.98 228.07 C 322.42 226.57 321.43 225.12 321.56 223.47 C 321.85 218.83 321.48 214.19 321.46 209.54 L 320.53 209.46 C 320.51 206.25 320.40 203.04 320.02 199.85 C 319.63 203.26 319.65 206.73 318.70 210.05 C 317.52 213.15 317.29 216.46 316.96 219.73 C 316.18 220.62 315.38 221.50 314.57 222.37 C 309.44 223.37 304.60 221.74 299.86 219.98 C 300.97 222.06 302.35 224.00 303.36 226.14 C 303.91 228.41 303.65 230.84 303.13 233.09 C 298.25 235.70 292.43 235.17 287.07 235.43 C 286.82 232.84 289.63 232.51 291.19 231.25 C 293.73 226.82 295.09 221.85 295.75 216.82 C 298.07 214.92 301.48 215.70 303.87 213.86 C 307.16 211.40 311.54 211.15 314.86 208.85 Z" />
</g>
<g id="#c4c4c4c4">
<path fill="#c4c4c4" opacity="0.77" d=" M 318.70 210.05 C 319.65 206.73 319.63 203.26 320.02 199.85 C 320.40 203.04 320.51 206.25 320.53 209.46 L 321.46 209.54 C 321.48 214.19 321.85 218.83 321.56 223.47 C 321.43 225.12 322.42 226.57 322.98 228.07 L 323.08 228.52 C 321.99 228.42 320.90 228.31 319.82 228.17 C 316.80 233.44 310.55 235.20 306.21 239.11 L 305.32 239.49 C 304.26 239.51 303.21 239.51 302.16 239.48 C 301.51 238.67 300.86 237.87 300.22 237.07 C 303.78 236.50 307.27 235.60 310.68 234.43 C 310.57 232.37 310.46 230.31 310.35 228.25 C 312.07 228.78 313.79 229.32 315.52 229.87 C 318.45 225.80 318.51 220.65 319.37 215.91 C 319.81 213.92 319.42 211.92 318.70 210.05 Z" />
</g>
<g id="#747071ff">
<path fill="#747071" opacity="1.00" d=" M 453.56 206.22 C 507.86 197.76 564.24 201.94 616.38 219.53 C 680.44 240.78 737.68 281.76 778.73 335.30 C 820.03 388.74 844.86 454.74 848.69 522.19 C 851.17 559.15 847.04 596.37 837.79 632.19 C 833.89 646.44 828.81 660.32 823.55 674.11 C 820.30 681.45 816.87 688.70 813.46 695.96 C 811.68 699.49 809.81 702.97 807.91 706.44 C 807.10 704.49 806.25 702.57 805.26 700.72 C 802.55 705.40 802.87 710.94 802.21 716.13 C 801.64 717.13 801.05 718.12 800.48 719.12 C 795.53 720.31 791.87 724.68 786.45 724.27 C 787.76 728.98 785.68 733.98 782.01 737.01 C 778.15 738.74 773.84 739.04 769.83 740.32 C 773.96 742.56 778.76 743.25 782.73 745.86 C 769.77 763.43 754.98 779.57 739.13 794.57 C 733.63 799.16 728.34 803.99 722.82 808.56 C 711.32 817.31 699.91 826.27 687.42 833.61 C 678.86 838.68 670.31 843.82 661.37 848.22 C 653.18 852.11 644.93 855.87 636.59 859.43 C 600.11 874.33 561.00 882.22 521.71 884.30 C 515.57 883.63 509.39 884.35 503.25 883.83 C 503.73 883.43 504.69 882.62 505.18 882.22 C 509.49 882.28 513.81 882.26 518.10 881.66 C 527.03 880.44 536.11 880.61 544.98 878.88 C 576.89 874.47 608.56 866.60 638.02 853.40 L 636.80 852.33 C 661.29 842.45 684.34 829.18 705.58 813.51 C 713.22 807.54 721.13 801.86 727.77 794.76 C 734.83 789.18 740.88 782.52 747.28 776.24 C 752.24 771.51 756.32 765.97 761.20 761.15 C 765.82 755.64 770.72 750.13 773.96 743.67 C 771.24 742.94 768.53 742.24 765.83 741.50 C 767.72 737.32 772.85 738.66 776.47 737.56 C 780.35 736.78 781.67 732.55 783.59 729.61 C 785.13 727.48 784.61 724.85 784.36 722.44 C 785.93 721.94 787.79 721.97 789.16 720.98 C 789.98 719.59 790.49 718.03 791.15 716.57 C 791.26 716.32 791.49 715.84 791.60 715.60 C 792.50 715.49 793.41 715.40 794.33 715.31 C 796.88 710.92 800.06 706.86 801.95 702.12 C 803.63 697.70 806.65 693.99 808.59 689.71 C 813.07 679.73 817.90 669.90 821.60 659.59 C 834.50 625.28 841.45 588.74 842.19 552.10 C 843.65 511.96 837.43 471.60 824.39 433.64 C 823.13 428.44 819.68 424.20 817.93 419.20 C 813.87 408.61 808.68 398.51 803.39 388.49 C 788.80 361.32 770.96 335.80 749.61 313.51 C 743.97 306.43 736.72 300.97 730.31 294.67 C 701.66 269.08 668.65 248.39 633.12 233.77 C 608.94 223.58 583.36 217.07 557.53 212.72 C 550.29 210.26 542.53 210.33 535.00 209.51 C 522.71 208.06 510.32 208.71 497.97 208.63 C 488.42 209.32 478.85 210.02 469.44 211.84 C 459.39 211.72 449.73 215.00 440.03 217.19 C 438.32 216.45 436.49 215.70 434.64 216.44 C 423.09 219.91 411.23 222.43 400.02 226.98 C 385.52 231.98 371.20 237.59 357.51 244.52 C 353.65 247.38 349.31 249.34 344.81 250.95 C 344.08 252.78 343.94 254.77 343.59 256.69 C 337.32 256.68 332.55 260.94 327.08 263.29 C 324.07 264.21 323.93 267.79 322.92 270.28 C 323.06 266.70 323.32 263.09 324.58 259.70 C 328.17 258.48 331.37 256.42 334.75 254.74 C 337.05 254.04 339.52 254.70 341.88 254.77 C 340.98 252.09 340.05 249.42 339.09 246.76 C 351.00 239.99 363.32 233.95 375.85 228.42 C 383.25 225.68 390.51 222.56 398.02 220.12 C 402.60 218.63 407.17 217.08 411.78 215.68 C 418.73 213.84 425.66 211.90 432.64 210.21 C 439.61 208.86 446.57 207.45 453.56 206.22 Z" />
<path fill="#747071" opacity="1.00" d=" M 449.37 232.30 C 458.88 231.32 468.44 230.30 478.02 231.02 C 477.31 231.69 476.61 232.36 475.92 233.03 C 424.03 238.27 373.58 256.95 330.77 286.72 C 279.58 322.08 239.31 373.06 217.05 431.19 C 192.03 495.80 189.62 568.82 210.05 635.00 C 211.95 641.60 214.57 647.96 216.53 654.54 C 213.60 652.56 210.77 650.43 208.04 648.18 C 208.52 649.26 209.00 650.32 209.49 651.41 C 212.31 659.32 218.08 665.67 223.90 671.53 C 231.67 688.89 241.17 705.46 251.99 721.09 C 246.58 719.21 241.18 717.24 236.01 714.75 C 235.03 710.62 232.36 707.26 230.33 703.62 C 210.96 669.88 197.55 632.63 191.70 594.13 C 189.52 579.51 187.62 564.78 188.04 549.97 C 186.63 505.45 194.96 460.56 212.53 419.61 C 214.11 415.77 216.31 412.14 217.12 408.01 C 217.93 402.89 221.53 398.78 222.28 393.64 C 228.44 383.35 234.51 372.99 241.13 362.99 C 248.85 352.80 256.23 342.31 264.68 332.70 C 270.91 324.93 278.54 318.46 285.10 310.99 C 293.15 303.44 301.35 296.02 309.95 289.08 C 312.81 286.86 315.73 284.31 316.78 280.69 C 317.83 277.91 316.91 274.99 316.17 272.27 C 312.64 273.41 308.93 274.46 306.15 277.07 C 301.73 281.13 295.76 283.23 291.91 287.94 C 289.49 291.10 285.29 291.80 282.37 294.35 C 275.82 299.10 270.53 305.25 264.33 310.40 C 260.59 313.94 256.88 317.51 253.26 321.16 C 250.49 324.06 246.77 326.06 244.79 329.66 C 244.25 329.46 243.17 329.05 242.63 328.84 C 243.28 327.94 243.94 327.05 244.61 326.17 C 248.20 322.09 251.75 317.98 255.28 313.85 C 260.95 307.93 266.60 302.00 272.47 296.29 C 286.08 283.55 300.55 271.71 315.92 261.16 C 319.13 267.43 317.29 274.87 320.38 281.14 C 321.11 280.04 321.85 278.93 322.59 277.83 C 322.80 279.60 323.09 281.37 323.38 283.15 C 327.72 281.09 331.29 277.81 335.42 275.38 C 339.37 272.98 343.37 270.65 347.31 268.22 C 354.87 263.52 363.09 260.04 370.99 255.97 C 395.69 244.10 422.17 235.86 449.37 232.30 Z" />
</g>
<g id="#57575eff">
<path fill="#57575e" opacity="1.00" d=" M 469.44 211.84 C 478.85 210.02 488.42 209.32 497.97 208.63 C 510.32 208.71 522.71 208.06 535.00 209.51 C 542.53 210.33 550.29 210.26 557.53 212.72 C 551.76 213.30 546.05 212.13 540.33 211.63 C 532.90 210.90 525.44 211.16 518.00 211.09 C 508.54 211.10 498.77 210.95 489.72 214.08 C 498.23 217.18 506.98 219.62 515.99 220.71 C 541.77 223.76 567.41 228.36 592.39 235.49 C 619.89 243.70 646.64 254.81 671.19 269.75 C 692.60 283.09 712.81 298.52 730.46 316.58 C 734.58 321.42 739.46 325.52 743.63 330.31 C 752.18 340.52 761.36 350.28 768.45 361.62 C 783.62 382.72 795.85 405.93 804.55 430.43 C 810.16 444.58 814.56 459.18 818.31 473.93 C 824.14 491.00 825.56 509.14 827.15 526.99 C 828.35 536.61 828.12 546.30 828.13 555.97 C 826.44 586.63 820.87 617.07 811.56 646.34 C 810.38 652.49 805.87 657.30 804.71 663.45 C 803.98 666.41 803.46 669.47 803.67 672.54 C 805.16 669.82 806.54 667.05 808.17 664.41 C 808.58 665.88 809.46 667.39 809.02 668.97 C 807.36 675.44 804.24 681.66 803.78 688.38 C 807.37 684.81 809.49 680.10 812.11 675.84 C 814.16 668.41 818.08 661.69 820.49 654.38 C 822.88 648.62 824.29 642.50 827.00 636.87 C 829.05 632.84 828.75 628.18 829.98 623.91 C 835.41 603.04 838.55 581.59 839.48 560.04 C 841.28 539.70 839.64 519.27 837.50 499.02 C 836.17 490.46 835.48 481.71 832.69 473.47 C 828.97 454.33 823.15 435.59 815.58 417.62 C 812.00 408.56 807.81 399.75 803.03 391.26 C 803.12 390.57 803.30 389.19 803.39 388.49 C 808.68 398.51 813.87 408.61 817.93 419.20 C 819.68 424.20 823.13 428.44 824.39 433.64 C 837.43 471.60 843.65 511.96 842.19 552.10 C 841.45 588.74 834.50 625.28 821.60 659.59 C 817.90 669.90 813.07 679.73 808.59 689.71 C 806.65 693.99 803.63 697.70 801.95 702.12 C 800.06 706.86 796.88 710.92 794.33 715.31 C 793.41 715.40 792.50 715.49 791.60 715.60 C 791.49 715.84 791.26 716.32 791.15 716.57 C 789.68 717.56 788.25 718.64 786.61 719.34 C 784.82 719.25 783.12 718.65 781.40 718.25 C 780.03 721.66 778.43 725.11 775.51 727.49 C 771.42 730.81 769.42 736.51 764.12 738.28 C 767.25 732.23 771.84 727.11 775.17 721.17 C 780.39 711.46 787.07 702.55 791.29 692.31 C 792.41 689.18 793.50 686.03 794.95 683.04 C 798.00 676.72 799.72 669.88 802.43 663.42 C 805.89 654.15 808.57 644.62 811.07 635.06 C 814.93 622.59 817.06 609.69 819.90 596.98 C 822.15 579.75 824.97 562.43 823.95 545.00 C 824.68 527.14 820.99 509.56 818.00 492.06 C 817.31 489.08 816.49 486.13 815.70 483.18 C 815.38 483.43 814.74 483.93 814.41 484.18 C 802.52 421.67 770.75 363.22 724.93 319.09 C 678.89 274.30 618.68 244.44 555.16 234.87 C 554.01 232.32 551.13 231.80 548.72 231.22 C 539.23 229.37 529.72 227.45 520.08 226.70 C 514.68 226.62 509.36 225.47 503.95 225.58 C 497.09 225.69 490.23 225.52 483.37 225.77 C 483.86 225.09 484.35 224.42 484.86 223.74 C 473.87 224.88 462.25 223.67 452.89 217.33 C 458.24 215.00 463.91 213.64 469.44 211.84 Z" />
</g>
<g id="#79797979">
<path fill="#797979" opacity="0.47" d=" M 316.96 219.73 C 317.29 216.46 317.52 213.15 318.70 210.05 C 319.42 211.92 319.81 213.92 319.37 215.91 C 318.51 220.65 318.45 225.80 315.52 229.87 C 313.79 229.32 312.07 228.78 310.35 228.25 C 310.46 230.31 310.57 232.37 310.68 234.43 C 307.27 235.60 303.78 236.50 300.22 237.07 C 300.86 237.87 301.51 238.67 302.16 239.48 C 297.48 239.19 292.84 238.45 288.14 238.60 C 288.15 238.30 288.16 237.68 288.17 237.37 C 294.04 236.47 300.33 236.57 305.75 233.89 C 309.66 231.54 306.25 227.16 305.02 224.24 C 308.24 225.01 312.11 227.86 315.13 225.22 C 317.01 224.06 316.59 221.59 316.96 219.73 Z" />
<path fill="#797979" opacity="0.47" d=" M 802.86 760.21 C 803.16 759.75 803.75 758.82 804.05 758.36 C 804.66 761.40 805.27 764.44 805.52 767.55 C 806.18 766.86 806.86 766.19 807.55 765.54 C 807.70 769.24 807.29 772.94 806.69 776.60 C 806.47 777.16 806.02 778.30 805.80 778.87 C 805.32 777.78 804.83 776.68 804.40 775.60 C 804.12 770.44 803.24 765.35 802.86 760.21 Z" />
</g>
<g id="#44454cff">
<path fill="#44454c" opacity="1.00" d=" M 489.72 214.08 C 498.77 210.95 508.54 211.10 518.00 211.09 C 525.44 211.16 532.90 210.90 540.33 211.63 C 546.05 212.13 551.76 213.30 557.53 212.72 C 583.36 217.07 608.94 223.58 633.12 233.77 C 668.65 248.39 701.66 269.08 730.31 294.67 C 736.72 300.97 743.97 306.43 749.61 313.51 C 770.96 335.80 788.80 361.32 803.39 388.49 C 803.30 389.19 803.12 390.57 803.03 391.26 C 796.34 379.62 789.79 367.86 782.16 356.79 C 773.59 343.93 763.88 331.88 753.72 320.27 C 746.93 313.39 740.03 306.63 733.26 299.73 C 716.79 284.56 698.75 271.12 679.66 259.43 C 649.07 241.12 615.87 226.79 580.93 219.30 C 575.39 217.92 569.66 217.96 564.04 217.10 C 559.94 216.47 555.81 215.83 551.65 216.19 C 556.75 219.99 563.22 220.83 569.07 222.95 C 582.02 226.84 594.93 230.92 607.76 235.20 C 613.31 236.81 618.81 238.63 624.12 240.94 C 629.59 243.37 635.46 244.72 641.02 246.93 C 649.42 250.39 657.66 254.20 665.74 258.35 C 675.06 263.46 683.89 269.40 692.84 275.13 C 697.70 277.78 701.34 282.04 705.86 285.16 C 710.36 288.30 713.73 292.73 718.16 295.96 C 724.80 300.87 729.69 307.62 735.76 313.16 C 739.26 316.34 742.19 320.08 745.62 323.33 C 752.48 329.50 758.01 336.93 764.13 343.80 C 771.94 353.74 780.48 363.25 786.47 374.47 C 789.69 380.54 794.13 385.94 796.64 392.39 C 800.41 401.34 805.33 409.88 807.74 419.34 C 814.03 435.14 820.25 451.09 824.34 467.62 C 829.76 481.30 831.86 495.97 835.56 510.15 C 837.07 502.74 835.14 495.29 834.41 487.92 C 833.96 483.08 832.21 478.37 832.69 473.47 C 835.48 481.71 836.17 490.46 837.50 499.02 C 839.64 519.27 841.28 539.70 839.48 560.04 C 838.55 581.59 835.41 603.04 829.98 623.91 C 828.75 628.18 829.05 632.84 827.00 636.87 C 824.29 642.50 822.88 648.62 820.49 654.38 C 818.08 661.69 814.16 668.41 812.11 675.84 C 809.49 680.10 807.37 684.81 803.78 688.38 C 804.24 681.66 807.36 675.44 809.02 668.97 C 809.46 667.39 808.58 665.88 808.17 664.41 C 806.54 667.05 805.16 669.82 803.67 672.54 C 803.46 669.47 803.98 666.41 804.71 663.45 C 805.87 657.30 810.38 652.49 811.56 646.34 C 820.87 617.07 826.44 586.63 828.13 555.97 C 828.12 546.30 828.35 536.61 827.15 526.99 C 825.56 509.14 824.14 491.00 818.31 473.93 C 814.56 459.18 810.16 444.58 804.55 430.43 C 795.85 405.93 783.62 382.72 768.45 361.62 C 761.36 350.28 752.18 340.52 743.63 330.31 C 739.46 325.52 734.58 321.42 730.46 316.58 C 712.81 298.52 692.60 283.09 671.19 269.75 C 646.64 254.81 619.89 243.70 592.39 235.49 C 567.41 228.36 541.77 223.76 515.99 220.71 C 506.98 219.62 498.23 217.18 489.72 214.08 Z" />
</g>
<g id="#20202020">
<path fill="#202020" opacity="0.13" d=" M 322.90 211.77 C 323.53 213.30 324.15 214.83 324.78 216.37 C 327.46 217.40 330.11 218.66 332.98 219.05 C 335.77 218.68 337.95 216.61 340.53 215.63 C 342.01 214.62 342.92 216.01 343.63 217.16 C 341.52 218.20 339.43 219.26 337.36 220.36 C 335.96 221.05 334.59 221.79 333.22 222.54 C 328.70 223.03 324.53 220.93 321.95 217.25 C 322.21 215.42 322.56 213.59 322.90 211.77 Z" />
</g>
<g id="#636570ff">
<path fill="#636570" opacity="1.00" d=" M 440.03 217.19 C 449.73 215.00 459.39 211.72 469.44 211.84 C 463.91 213.64 458.24 215.00 452.89 217.33 C 462.25 223.67 473.87 224.88 484.86 223.74 C 484.35 224.42 483.86 225.09 483.37 225.77 C 490.23 225.52 497.09 225.69 503.95 225.58 C 509.36 225.47 514.68 226.62 520.08 226.70 C 529.72 227.45 539.23 229.37 548.72 231.22 C 551.13 231.80 554.01 232.32 555.16 234.87 C 528.95 230.98 502.27 230.35 475.92 233.03 C 476.61 232.36 477.31 231.69 478.02 231.02 C 468.44 230.30 458.88 231.32 449.37 232.30 C 422.17 235.86 395.69 244.10 370.99 255.97 C 363.09 260.04 354.87 263.52 347.31 268.22 C 343.37 270.65 339.37 272.98 335.42 275.38 C 331.29 277.81 327.72 281.09 323.38 283.15 C 323.09 281.37 322.80 279.60 322.59 277.83 C 322.48 275.30 322.68 272.79 322.92 270.28 C 323.93 267.79 324.07 264.21 327.08 263.29 C 332.55 260.94 337.32 256.68 343.59 256.69 C 343.94 254.77 344.08 252.78 344.81 250.95 C 349.31 249.34 353.65 247.38 357.51 244.52 C 371.20 237.59 385.52 231.98 400.02 226.98 C 411.23 222.43 423.09 219.91 434.64 216.44 C 436.49 215.70 438.32 216.45 440.03 217.19 Z" />
</g>
<g id="#47474747">
<path fill="#474747" opacity="0.28" d=" M 321.95 217.25 C 324.53 220.93 328.70 223.03 333.22 222.54 C 330.43 224.10 327.60 225.60 325.01 227.47 C 324.50 227.62 323.49 227.92 322.98 228.07 C 322.73 224.45 321.83 220.89 321.95 217.25 Z" />
<path fill="#474747" opacity="0.28" d=" M 299.86 219.98 C 304.60 221.74 309.44 223.37 314.57 222.37 C 315.38 221.50 316.18 220.62 316.96 219.73 C 316.59 221.59 317.01 224.06 315.13 225.22 C 312.11 227.86 308.24 225.01 305.02 224.24 C 306.25 227.16 309.66 231.54 305.75 233.89 C 300.33 236.57 294.04 236.47 288.17 237.37 C 288.16 237.68 288.15 238.30 288.14 238.60 C 292.84 238.45 297.48 239.19 302.16 239.48 C 303.21 239.51 304.26 239.51 305.32 239.49 C 303.78 240.49 302.30 241.57 300.80 242.61 C 298.41 240.01 294.70 240.10 291.50 239.42 C 290.19 242.47 291.30 245.64 292.57 248.48 C 292.05 248.86 291.53 249.24 291.01 249.62 C 290.33 247.91 289.57 246.23 288.63 244.64 C 287.94 246.12 287.26 247.61 286.67 249.13 C 286.82 246.14 287.32 243.11 286.92 240.12 C 285.79 239.11 284.51 238.28 283.28 237.41 C 284.54 236.74 285.79 236.06 287.07 235.43 C 292.43 235.17 298.25 235.70 303.13 233.09 C 303.65 230.84 303.91 228.41 303.36 226.14 C 302.35 224.00 300.97 222.06 299.86 219.98 Z" />
</g>
<g id="#1c1c1c1d">
<path fill="#1c1c1c" opacity="0.11" d=" M 278.89 237.71 C 280.94 235.34 284.12 234.90 287.07 235.43 C 285.79 236.06 284.54 236.74 283.28 237.41 C 284.51 238.28 285.79 239.11 286.92 240.12 C 287.32 243.11 286.82 246.14 286.67 249.13 C 286.53 249.67 286.23 250.73 286.09 251.26 C 283.64 251.31 281.18 251.30 278.73 251.23 C 278.33 253.24 279.38 256.05 277.58 257.49 C 274.10 258.61 270.44 259.09 266.99 260.36 C 269.44 261.17 271.92 261.92 274.40 262.66 C 273.57 263.39 272.75 264.12 271.91 264.83 C 270.00 262.47 266.81 262.53 264.12 261.74 C 264.26 260.74 264.41 259.73 264.55 258.73 C 267.94 257.82 272.91 258.32 274.45 254.40 C 275.64 252.28 273.20 249.06 275.27 247.51 C 279.77 248.30 284.80 246.51 286.30 241.84 C 284.24 239.79 281.28 239.25 278.89 237.71 Z" />
</g>
<g id="#11111111">
<path fill="#111111" opacity="0.07" d=" M 292.57 248.48 C 291.30 245.64 290.19 242.47 291.50 239.42 C 294.70 240.10 298.41 240.01 300.80 242.61 C 298.03 244.53 295.28 246.49 292.57 248.48 Z" />
</g>
<g id="#80808081">
<path fill="#808080" opacity="0.51" d=" M 288.63 244.64 C 289.57 246.23 290.33 247.91 291.01 249.62 C 290.53 249.98 289.58 250.68 289.10 251.03 C 286.46 253.02 283.89 255.10 281.25 257.07 C 281.27 255.90 281.30 254.73 281.33 253.56 C 282.72 253.25 284.11 252.97 285.50 252.62 C 285.65 252.28 285.94 251.60 286.09 251.26 C 286.23 250.73 286.53 249.67 286.67 249.13 C 287.26 247.61 287.94 246.12 288.63 244.64 Z" />
</g>
<g id="#8f8f95ff">
<path fill="#8f8f95" opacity="1.00" d=" M 336.07 248.48 C 337.06 247.89 338.07 247.32 339.09 246.76 C 340.05 249.42 340.98 252.09 341.88 254.77 C 339.52 254.70 337.05 254.04 334.75 254.74 C 331.37 256.42 328.17 258.48 324.58 259.70 C 323.32 263.09 323.06 266.70 322.92 270.28 C 322.68 272.79 322.48 275.30 322.59 277.83 C 321.85 278.93 321.11 280.04 320.38 281.14 C 317.29 274.87 319.13 267.43 315.92 261.16 C 316.70 260.63 317.49 260.11 318.30 259.61 C 318.83 262.59 319.51 265.56 320.67 268.36 C 321.74 264.80 322.22 261.09 322.04 257.37 C 326.48 254.04 331.39 251.44 336.07 248.48 Z" />
</g>
<g id="#4b4b4b4b">
<path fill="#4b4b4b" opacity="0.29" d=" M 278.73 251.23 C 281.18 251.30 283.64 251.31 286.09 251.26 C 285.94 251.60 285.65 252.28 285.50 252.62 C 284.11 252.97 282.72 253.25 281.33 253.56 C 281.30 254.73 281.27 255.90 281.25 257.07 C 280.44 257.67 279.64 258.28 278.85 258.89 C 277.28 260.05 275.83 261.35 274.40 262.66 C 271.92 261.92 269.44 261.17 266.99 260.36 C 270.44 259.09 274.10 258.61 277.58 257.49 C 279.38 256.05 278.33 253.24 278.73 251.23 Z" />
</g>
<g id="#cccccdff">
<path fill="#cccccd" opacity="1.00" d=" M 318.30 259.61 C 319.54 258.85 320.80 258.13 322.04 257.37 C 322.22 261.09 321.74 264.80 320.67 268.36 C 319.51 265.56 318.83 262.59 318.30 259.61 Z" />
</g>
<g id="#5e5f6aff">
<path fill="#5e5f6a" opacity="1.00" d=" M 306.15 277.07 C 308.93 274.46 312.64 273.41 316.17 272.27 C 316.91 274.99 317.83 277.91 316.78 280.69 C 315.73 284.31 312.81 286.86 309.95 289.08 C 301.35 296.02 293.15 303.44 285.10 310.99 C 278.54 318.46 270.91 324.93 264.68 332.70 C 256.23 342.31 248.85 352.80 241.13 362.99 C 234.51 372.99 228.44 383.35 222.28 393.64 C 220.78 394.57 219.25 395.46 217.72 396.35 C 217.60 396.98 217.49 397.61 217.37 398.25 C 212.81 401.62 210.12 406.68 207.65 411.65 C 190.75 444.94 182.37 481.97 179.11 519.00 C 179.21 525.35 178.05 531.63 177.99 537.97 C 177.97 574.98 183.85 612.09 195.93 647.12 C 197.42 652.64 200.63 657.68 200.96 663.50 C 196.74 656.14 194.72 647.83 191.93 639.88 C 186.73 623.83 183.07 607.33 180.28 590.71 C 179.31 585.15 178.78 579.52 177.44 574.04 C 177.34 577.19 177.11 580.34 176.85 583.49 C 174.01 569.85 175.11 555.83 174.88 542.01 C 174.16 510.33 179.62 478.78 188.35 448.40 C 192.50 433.99 197.63 419.87 201.50 405.38 C 204.00 399.75 205.81 393.85 208.21 388.18 C 208.98 386.45 207.04 384.94 206.56 383.39 C 216.77 364.09 228.95 345.86 242.63 328.84 C 243.17 329.05 244.25 329.46 244.79 329.66 C 246.77 326.06 250.49 324.06 253.26 321.16 C 256.88 317.51 260.59 313.94 264.33 310.40 C 270.53 305.25 275.82 299.10 282.37 294.35 C 285.29 291.80 289.49 291.10 291.91 287.94 C 295.76 283.23 301.73 281.13 306.15 277.07 Z" />
</g>
<g id="#e5e5e7ff">
<path fill="#e5e5e7" opacity="1.00" d=" M 240.58 323.57 C 245.41 320.22 249.85 316.22 255.28 313.85 C 251.75 317.98 248.20 322.09 244.61 326.17 C 235.98 331.41 229.18 339.12 222.86 346.87 C 210.25 361.38 202.39 379.11 192.35 395.34 C 188.11 401.96 183.05 408.05 177.38 413.48 C 176.28 414.72 174.52 414.52 173.04 414.78 C 171.96 416.45 171.06 418.29 169.62 419.70 C 168.05 420.95 166.00 420.65 164.18 420.34 C 165.73 415.68 167.53 411.12 169.35 406.57 C 170.28 408.18 171.20 409.78 172.14 411.39 C 174.77 408.70 176.50 405.35 178.13 402.01 C 178.63 402.94 179.14 403.88 179.64 404.83 C 188.95 394.17 195.65 381.65 202.36 369.29 C 209.17 357.21 217.53 346.06 226.83 335.78 C 230.95 331.21 235.53 327.09 240.58 323.57 Z" />
</g>
<g id="#d1d1d4ff">
<path fill="#d1d1d4" opacity="1.00" d=" M 222.86 346.87 C 229.18 339.12 235.98 331.41 244.61 326.17 C 243.94 327.05 243.28 327.94 242.63 328.84 C 228.95 345.86 216.77 364.09 206.56 383.39 C 202.50 390.73 199.02 398.36 195.46 405.95 C 189.38 413.32 182.73 420.24 175.42 426.41 C 173.01 428.34 170.48 430.49 167.23 430.59 C 164.89 433.25 162.71 436.10 159.92 438.32 C 159.50 438.34 158.68 438.37 158.27 438.39 C 159.94 432.28 162.03 426.31 164.08 420.32 L 164.18 420.34 C 166.00 420.65 168.05 420.95 169.62 419.70 C 171.06 418.29 171.96 416.45 173.04 414.78 C 174.52 414.52 176.28 414.72 177.38 413.48 C 183.05 408.05 188.11 401.96 192.35 395.34 C 202.39 379.11 210.25 361.38 222.86 346.87 Z" />
</g>
<g id="#676771ff">
<path fill="#676771" opacity="1.00" d=" M 195.46 405.95 C 199.02 398.36 202.50 390.73 206.56 383.39 C 207.04 384.94 208.98 386.45 208.21 388.18 C 205.81 393.85 204.00 399.75 201.50 405.38 C 197.63 419.87 192.50 433.99 188.35 448.40 C 179.62 478.78 174.16 510.33 174.88 542.01 C 175.11 555.83 174.01 569.85 176.85 583.49 C 179.66 602.62 182.81 621.80 188.61 640.30 C 201.74 684.92 225.20 726.30 255.87 761.21 C 259.01 764.37 262.12 767.63 264.36 771.52 C 259.79 770.91 255.36 769.63 251.02 768.09 C 248.42 764.32 245.47 760.82 242.48 757.36 C 236.77 750.40 231.61 743.03 226.35 735.74 C 207.42 708.00 192.54 677.48 182.53 645.43 C 160.49 575.67 161.90 498.88 186.14 429.88 C 188.89 421.77 192.41 413.95 195.46 405.95 Z" />
</g>
<g id="#636571ff">
<path fill="#636571" opacity="1.00" d=" M 217.72 396.35 C 219.25 395.46 220.78 394.57 222.28 393.64 C 221.53 398.78 217.93 402.89 217.12 408.01 C 216.31 412.14 214.11 415.77 212.53 419.61 C 194.96 460.56 186.63 505.45 188.04 549.97 C 187.62 564.78 189.52 579.51 191.70 594.13 C 197.55 632.63 210.96 669.88 230.33 703.62 C 232.36 707.26 235.03 710.62 236.01 714.75 C 230.97 712.42 226.04 709.84 221.38 706.80 C 219.19 701.16 215.72 696.15 213.24 690.65 C 208.69 681.81 204.55 672.77 200.96 663.50 C 200.63 657.68 197.42 652.64 195.93 647.12 C 183.85 612.09 177.97 574.98 177.99 537.97 C 178.05 531.63 179.21 525.35 179.11 519.00 C 182.37 481.97 190.75 444.94 207.65 411.65 C 210.12 406.68 212.81 401.62 217.37 398.25 C 217.49 397.61 217.60 396.98 217.72 396.35 Z" />
</g>
<g id="#b6b7bcff">
<path fill="#b6b7bc" opacity="1.00" d=" M 175.42 426.41 C 182.73 420.24 189.38 413.32 195.46 405.95 C 192.41 413.95 188.89 421.77 186.14 429.88 C 179.25 434.78 172.97 440.55 165.51 444.65 C 165.22 443.99 164.64 442.68 164.35 442.03 C 156.56 452.09 152.74 464.52 150.59 476.91 C 150.25 476.65 149.59 476.13 149.26 475.87 C 151.22 463.18 154.65 450.75 158.12 438.39 L 158.27 438.39 C 158.68 438.37 159.50 438.34 159.92 438.32 C 162.71 436.10 164.89 433.25 167.23 430.59 C 170.48 430.49 173.01 428.34 175.42 426.41 Z" />
</g>
<g id="#5f606aff">
<path fill="#5f606a" opacity="1.00" d=" M 814.41 484.18 C 814.74 483.93 815.38 483.43 815.70 483.18 C 816.49 486.13 817.31 489.08 818.00 492.06 C 820.99 509.56 824.68 527.14 823.95 545.00 C 824.97 562.43 822.15 579.75 819.90 596.98 C 817.06 609.69 814.93 622.59 811.07 635.06 C 808.57 644.62 805.89 654.15 802.43 663.42 C 799.72 669.88 798.00 676.72 794.95 683.04 C 793.50 686.03 792.41 689.18 791.29 692.31 C 787.07 702.55 780.39 711.46 775.17 721.17 C 771.84 727.11 767.25 732.23 764.12 738.28 C 769.42 736.51 771.42 730.81 775.51 727.49 C 778.43 725.11 780.03 721.66 781.40 718.25 C 783.12 718.65 784.82 719.25 786.61 719.34 C 788.25 718.64 789.68 717.56 791.15 716.57 C 790.49 718.03 789.98 719.59 789.16 720.98 C 787.79 721.97 785.93 721.94 784.36 722.44 C 784.61 724.85 785.13 727.48 783.59 729.61 C 781.67 732.55 780.35 736.78 776.47 737.56 C 772.85 738.66 767.72 737.32 765.83 741.50 C 768.53 742.24 771.24 742.94 773.96 743.67 C 770.72 750.13 765.82 755.64 761.20 761.15 C 756.32 765.97 752.24 771.51 747.28 776.24 C 740.88 782.52 734.83 789.18 727.77 794.76 C 721.13 801.86 713.22 807.54 705.58 813.51 C 684.34 829.18 661.29 842.45 636.80 852.33 C 629.58 853.40 623.26 857.34 616.31 859.34 C 607.76 861.77 599.33 864.73 590.59 866.43 C 579.08 867.85 567.72 870.14 556.26 871.86 C 555.88 871.61 555.12 871.12 554.75 870.87 C 552.45 871.31 550.04 871.68 547.82 870.70 C 550.43 867.93 553.04 864.98 556.56 863.35 C 562.69 860.32 569.80 860.74 576.15 858.31 C 592.18 852.64 608.84 848.66 624.38 841.63 C 627.51 840.26 631.13 839.46 633.29 836.57 C 662.05 823.84 688.21 805.94 712.29 785.86 C 719.26 784.22 726.47 783.13 732.93 779.87 C 739.05 776.70 745.48 773.40 749.57 767.63 C 750.35 766.80 751.14 765.98 751.94 765.17 C 741.48 769.42 730.47 772.50 719.15 773.05 C 730.10 762.34 740.90 751.43 750.46 739.44 C 756.71 731.44 763.23 723.52 768.22 714.64 C 768.33 714.45 768.56 714.06 768.67 713.86 C 769.06 713.40 769.83 712.49 770.22 712.03 L 770.29 710.60 L 771.14 710.16 C 776.83 702.54 781.12 693.96 785.62 685.60 C 817.45 624.19 827.44 552.04 814.41 484.18 Z" />
</g>
<g id="#55555dff">
<path fill="#55555d" opacity="1.00" d=" M 177.44 574.04 C 178.78 579.52 179.31 585.15 180.28 590.71 C 183.07 607.33 186.73 623.83 191.93 639.88 C 194.72 647.83 196.74 656.14 200.96 663.50 C 204.55 672.77 208.69 681.81 213.24 690.65 C 215.72 696.15 219.19 701.16 221.38 706.80 C 221.80 707.65 222.26 708.49 222.76 709.33 C 224.60 712.88 227.17 715.95 229.85 718.90 C 238.08 733.81 249.15 746.94 259.96 760.03 C 263.43 764.51 268.20 767.83 271.26 772.65 C 268.96 772.27 266.66 771.88 264.36 771.52 C 262.12 767.63 259.01 764.37 255.87 761.21 C 225.20 726.30 201.74 684.92 188.61 640.30 C 182.81 621.80 179.66 602.62 176.85 583.49 C 177.11 580.34 177.34 577.19 177.44 574.04 Z" />
</g>
<g id="#ccf1f9ff">
<path fill="#ccf1f9" opacity="1.00" d=" M 209.49 651.41 C 209.00 650.32 208.52 649.26 208.04 648.18 C 210.77 650.43 213.60 652.56 216.53 654.54 C 236.06 668.40 258.99 678.23 283.04 680.02 C 291.44 680.79 299.54 683.92 306.46 688.72 C 318.66 697.22 327.07 709.93 334.01 722.84 C 338.31 730.55 341.65 738.84 346.85 746.02 C 349.87 750.47 352.13 755.37 354.82 760.02 C 363.19 775.07 373.67 788.99 386.23 800.80 C 411.50 824.91 443.78 840.47 477.06 850.17 C 485.62 852.47 494.53 855.91 503.49 853.74 C 530.13 847.17 556.18 837.34 579.43 822.63 C 601.60 808.71 620.82 789.94 634.49 767.57 C 639.75 759.36 643.61 750.32 649.35 742.43 C 655.41 732.04 660.09 720.87 666.82 710.87 C 674.73 698.70 685.39 687.44 699.41 682.60 C 707.26 679.62 715.79 680.16 723.89 678.37 C 746.71 673.78 767.88 662.65 785.96 648.17 C 785.07 650.13 784.19 652.10 783.27 654.06 L 783.41 652.18 C 774.65 659.87 766.15 668.00 756.01 673.91 C 743.96 681.79 729.76 685.27 717.33 692.43 C 704.54 699.29 693.35 708.91 684.19 720.12 C 671.20 735.78 661.09 753.54 648.70 769.64 C 630.76 793.25 608.82 814.07 583.22 829.18 C 557.35 844.65 528.01 853.98 498.13 857.47 C 493.69 857.87 489.38 856.49 485.02 855.92 C 450.84 850.49 417.94 836.72 390.46 815.62 C 367.34 798.10 348.28 775.76 332.27 751.69 C 321.46 735.83 311.00 719.34 296.55 706.46 C 285.04 696.10 271.11 688.82 256.74 683.27 C 242.01 677.57 228.58 668.77 217.04 658.04 C 214.65 655.68 212.17 653.41 209.49 651.41 Z" />
<path fill="#ccf1f9" opacity="1.00" d=" M 221.38 706.80 C 226.04 709.84 230.97 712.42 236.01 714.75 C 241.18 717.24 246.58 719.21 251.99 721.09 C 259.73 723.69 267.80 725.27 275.93 726.00 C 283.88 726.82 291.99 725.51 299.81 727.60 C 306.47 738.04 312.86 748.68 320.37 758.55 C 340.42 785.64 365.44 809.22 394.43 826.52 C 423.79 844.14 457.01 855.26 491.06 858.81 C 483.47 860.25 475.69 859.47 468.03 859.31 C 460.30 859.21 452.65 857.98 445.12 856.35 C 417.86 851.10 392.48 838.30 370.48 821.60 C 355.42 810.57 341.83 797.16 324.72 789.20 C 310.76 782.03 294.77 780.72 279.39 779.39 C 266.87 777.31 254.96 772.48 243.76 766.63 C 243.17 766.07 242.59 765.51 242.01 764.96 C 245.02 765.97 248.01 767.05 251.02 768.09 C 255.36 769.63 259.79 770.91 264.36 771.52 C 266.66 771.88 268.96 772.27 271.26 772.65 C 280.35 774.23 289.65 774.16 298.81 773.36 C 303.17 772.61 307.45 771.42 311.81 770.65 C 317.75 770.25 323.63 771.53 329.20 773.48 C 320.81 763.68 312.10 753.85 301.25 746.69 C 294.93 742.37 287.99 739.06 280.92 736.18 C 271.81 732.56 261.94 731.23 252.98 727.19 C 244.63 723.56 236.59 719.16 229.31 713.69 C 227.22 712.10 224.99 710.70 222.76 709.33 C 222.26 708.49 221.80 707.65 221.38 706.80 Z" />
<path fill="#ccf1f9" opacity="1.00" d=" M 708.00 726.47 C 730.95 727.06 753.21 718.84 772.68 707.21 C 772.15 708.18 771.64 709.17 771.14 710.16 L 770.29 710.60 C 768.38 711.51 766.54 712.57 764.86 713.86 C 757.05 719.81 748.26 724.37 739.24 728.19 C 733.57 730.59 727.52 731.79 721.65 733.55 C 705.35 738.32 690.00 746.90 678.15 759.15 C 673.88 763.81 669.24 768.15 665.44 773.23 C 670.95 771.80 676.59 770.50 682.33 770.84 C 694.31 773.68 706.96 775.52 719.15 773.05 C 730.47 772.50 741.48 769.42 751.94 765.17 C 751.14 765.98 750.35 766.80 749.57 767.63 C 744.83 769.34 740.52 772.03 735.75 773.66 C 727.72 776.47 719.58 779.48 711.01 779.98 C 703.27 780.56 695.52 781.33 687.95 783.13 C 670.42 786.36 655.32 796.73 641.69 807.72 C 634.85 812.85 628.48 818.58 621.44 823.43 C 595.20 843.16 563.76 856.39 530.92 859.27 C 520.96 859.78 510.99 860.03 501.04 859.34 C 507.27 858.01 513.66 857.65 519.90 856.36 C 564.21 848.53 605.90 827.39 638.94 796.93 C 660.81 777.10 678.58 753.21 693.70 727.96 C 698.37 726.78 703.18 726.23 708.00 726.47 Z" />
</g>
<g id="#7e9ae3ff">
<path fill="#7e9ae3" opacity="1.00" d=" M 209.49 651.41 C 212.17 653.41 214.65 655.68 217.04 658.04 C 228.58 668.77 242.01 677.57 256.74 683.27 C 271.11 688.82 285.04 696.10 296.55 706.46 C 311.00 719.34 321.46 735.83 332.27 751.69 C 348.28 775.76 367.34 798.10 390.46 815.62 C 417.94 836.72 450.84 850.49 485.02 855.92 C 489.38 856.49 493.69 857.87 498.13 857.47 C 528.01 853.98 557.35 844.65 583.22 829.18 C 608.82 814.07 630.76 793.25 648.70 769.64 C 661.09 753.54 671.20 735.78 684.19 720.12 C 693.35 708.91 704.54 699.29 717.33 692.43 C 729.76 685.27 743.96 681.79 756.01 673.91 C 766.15 668.00 774.65 659.87 783.41 652.18 L 783.27 654.06 C 779.56 661.64 773.84 668.09 767.52 673.63 C 756.35 683.55 742.19 688.89 729.55 696.57 C 715.68 704.48 702.62 714.51 693.70 727.96 C 678.58 753.21 660.81 777.10 638.94 796.93 C 605.90 827.39 564.21 848.53 519.90 856.36 C 513.66 857.65 507.27 858.01 501.04 859.34 C 510.99 860.03 520.96 859.78 530.92 859.27 C 563.76 856.39 595.20 843.16 621.44 823.43 C 628.48 818.58 634.85 812.85 641.69 807.72 C 655.32 796.73 670.42 786.36 687.95 783.13 C 695.52 781.33 703.27 780.56 711.01 779.98 C 719.58 779.48 727.72 776.47 735.75 773.66 C 740.52 772.03 744.83 769.34 749.57 767.63 C 745.48 773.40 739.05 776.70 732.93 779.87 C 726.47 783.13 719.26 784.22 712.29 785.86 C 708.56 786.54 704.83 787.23 701.16 788.16 C 693.18 789.33 685.48 791.88 678.11 795.10 C 671.28 797.70 665.45 802.28 659.81 806.82 C 650.49 815.55 640.14 823.08 629.60 830.24 C 617.57 837.82 604.93 844.42 591.71 849.66 C 586.69 851.41 581.61 852.98 576.66 854.91 C 569.69 856.92 562.54 858.16 555.45 859.64 C 541.85 862.38 527.88 862.62 514.06 862.32 C 506.52 862.30 499.05 860.31 491.51 861.28 C 462.68 864.25 433.18 860.76 405.97 850.72 C 379.23 840.92 354.79 825.34 333.76 806.22 C 322.18 795.97 307.26 790.40 292.22 787.72 C 283.49 785.62 274.53 784.49 265.98 781.72 C 260.78 779.66 255.82 777.02 251.14 773.97 C 248.28 771.95 245.99 769.29 243.76 766.63 C 254.96 772.48 266.87 777.31 279.39 779.39 C 294.77 780.72 310.76 782.03 324.72 789.20 C 341.83 797.16 355.42 810.57 370.48 821.60 C 392.48 838.30 417.86 851.10 445.12 856.35 C 452.65 857.98 460.30 859.21 468.03 859.31 C 475.69 859.47 483.47 860.25 491.06 858.81 C 457.01 855.26 423.79 844.14 394.43 826.52 C 365.44 809.22 340.42 785.64 320.37 758.55 C 312.86 748.68 306.47 738.04 299.81 727.60 C 291.25 714.74 278.84 705.03 265.62 697.32 C 251.69 688.76 235.93 682.94 223.90 671.53 C 218.08 665.67 212.31 659.32 209.49 651.41 Z" />
<path fill="#7e9ae3" opacity="1.00" d=" M 222.76 709.33 C 224.99 710.70 227.22 712.10 229.31 713.69 C 236.59 719.16 244.63 723.56 252.98 727.19 C 261.94 731.23 271.81 732.56 280.92 736.18 C 287.99 739.06 294.93 742.37 301.25 746.69 C 312.10 753.85 320.81 763.68 329.20 773.48 C 323.63 771.53 317.75 770.25 311.81 770.65 C 300.46 754.78 282.85 744.99 264.87 738.42 C 252.23 733.93 239.72 728.23 229.85 718.90 C 227.17 715.95 224.60 712.88 222.76 709.33 Z" />
<path fill="#7e9ae3" opacity="1.00" d=" M 764.86 713.86 C 766.54 712.57 768.38 711.51 770.29 710.60 L 770.22 712.03 C 769.83 712.49 769.06 713.40 768.67 713.86 C 768.56 714.06 768.33 714.45 768.22 714.64 C 759.84 724.77 748.14 731.41 735.99 735.99 C 722.06 741.21 707.96 746.81 696.28 756.26 C 690.99 760.46 686.45 765.51 682.33 770.84 C 676.59 770.50 670.95 771.80 665.44 773.23 C 669.24 768.15 673.88 763.81 678.15 759.15 C 690.00 746.90 705.35 738.32 721.65 733.55 C 727.52 731.79 733.57 730.59 739.24 728.19 C 748.26 724.37 757.05 719.81 764.86 713.86 Z" />
</g>
<g id="#fefefeff">
<path fill="#fefefe" opacity="1.00" d=" M 818.20 708.14 C 822.30 703.85 827.02 700.24 831.54 696.41 C 831.93 701.86 828.56 706.61 826.46 711.40 C 822.32 718.79 819.25 726.69 815.31 734.18 C 813.70 736.41 815.81 738.69 816.51 740.83 C 813.32 746.17 808.96 750.70 805.97 756.17 C 804.69 755.35 803.44 754.50 802.09 753.83 C 798.87 756.02 796.92 759.51 794.45 762.43 C 786.74 771.70 779.34 781.27 770.82 789.83 C 765.61 796.25 759.72 802.08 753.32 807.31 C 745.89 814.59 737.93 821.32 729.60 827.56 C 726.57 829.90 723.19 831.71 719.68 833.21 C 717.54 830.40 719.25 827.02 720.18 824.11 C 724.33 812.97 733.79 805.00 739.13 794.57 C 754.98 779.57 769.77 763.43 782.73 745.86 C 783.30 745.05 783.88 744.26 784.47 743.47 C 785.93 741.38 787.42 739.31 788.92 737.25 L 789.49 736.41 C 791.52 733.50 793.38 730.46 795.36 727.52 C 795.64 727.12 796.20 726.32 796.48 725.92 C 801.17 723.70 803.14 718.82 804.92 714.30 C 806.19 714.80 807.43 715.42 808.80 715.69 C 812.47 713.95 815.34 710.95 818.20 708.14 Z" />
</g>
<g id="#9e9b9bff">
<path fill="#9e9b9b" opacity="1.00" d=" M 805.26 700.72 C 806.25 702.57 807.10 704.49 807.91 706.44 C 806.00 709.67 804.06 712.87 802.21 716.13 C 802.87 710.94 802.55 705.40 805.26 700.72 Z" />
</g>
<g id="#566281bd">
<path fill="#566281" opacity="0.74" d=" M 768.67 713.86 C 769.06 713.40 769.83 712.49 770.22 712.03 C 769.83 712.49 769.06 713.40 768.67 713.86 Z" />
</g>
<g id="#97989eff">
<path fill="#97989e" opacity="1.00" d=" M 199.17 729.84 C 196.73 724.90 193.04 720.32 192.26 714.75 C 197.43 722.03 202.22 729.63 208.07 736.41 C 214.13 735.60 220.25 735.95 226.35 735.74 C 231.61 743.03 236.77 750.40 242.48 757.36 C 237.63 759.42 232.27 759.57 227.12 760.36 C 225.04 760.86 223.31 759.40 221.85 758.15 C 219.52 756.05 217.33 753.80 214.86 751.87 C 216.10 758.80 220.99 764.35 225.40 769.56 C 226.90 771.73 228.00 774.21 230.07 775.94 C 234.30 779.60 236.49 785.16 241.38 788.11 C 245.09 791.58 247.90 795.88 251.63 799.34 C 254.08 801.62 256.50 803.97 258.37 806.78 C 261.05 810.73 265.35 813.03 268.93 816.04 C 270.26 817.37 271.52 818.78 272.94 820.04 C 280.91 826.46 288.75 833.09 297.30 838.75 C 305.02 844.50 313.46 849.16 321.34 854.67 C 320.80 855.07 319.72 855.88 319.18 856.28 L 319.09 856.35 C 279.71 832.29 244.62 801.01 216.92 764.06 C 217.39 764.02 218.34 763.95 218.81 763.92 C 214.99 757.50 210.44 751.48 207.32 744.67 C 205.25 739.38 201.61 734.94 199.17 729.84 Z" />
</g>
<g id="#696971ff">
<path fill="#696971" opacity="1.00" d=" M 229.85 718.90 C 239.72 728.23 252.23 733.93 264.87 738.42 C 274.45 750.01 284.61 761.13 295.58 771.41 C 296.34 772.15 297.21 772.74 298.20 773.16 L 298.81 773.36 C 289.65 774.16 280.35 774.23 271.26 772.65 C 268.20 767.83 263.43 764.51 259.96 760.03 C 249.15 746.94 238.08 733.81 229.85 718.90 Z" />
</g>
<g id="#898585ff">
<path fill="#898585" opacity="1.00" d=" M 786.45 724.27 C 791.87 724.68 795.53 720.31 800.48 719.12 C 799.14 721.38 797.84 723.67 796.48 725.92 C 796.20 726.32 795.64 727.12 795.36 727.52 C 792.97 726.52 790.53 725.69 788.03 725.05 C 789.16 728.71 790.95 732.55 789.49 736.41 L 788.92 737.25 C 784.24 738.40 779.44 739.07 774.90 740.72 C 778.06 741.71 781.27 742.56 784.47 743.47 C 783.88 744.26 783.30 745.05 782.73 745.86 C 778.76 743.25 773.96 742.56 769.83 740.32 C 773.84 739.04 778.15 738.74 782.01 737.01 C 785.68 733.98 787.76 728.98 786.45 724.27 Z" />
</g>
<g id="#a7a5a5ff">
<path fill="#a7a5a5" opacity="1.00" d=" M 788.03 725.05 C 790.53 725.69 792.97 726.52 795.36 727.52 C 793.38 730.46 791.52 733.50 789.49 736.41 C 790.95 732.55 789.16 728.71 788.03 725.05 Z" />
</g>
<g id="#1f1f1f1f">
<path fill="#1f1f1f" opacity="0.12" d=" M 822.67 730.18 C 822.98 729.66 823.60 728.64 823.91 728.12 C 826.49 730.83 826.68 736.24 831.08 736.66 C 835.41 738.07 841.37 736.63 844.27 740.90 C 837.76 743.41 830.81 742.11 824.07 741.81 C 829.26 741.39 834.38 740.11 839.62 740.22 C 839.61 740.10 839.59 739.86 839.58 739.74 C 838.58 739.71 837.59 739.70 836.61 739.70 C 833.30 736.88 828.46 738.49 824.96 736.14 C 823.01 734.82 822.56 732.36 822.67 730.18 Z" />
</g>
<g id="#3e3e3e3e">
<path fill="#3e3e3e" opacity="0.24" d=" M 820.54 733.52 C 821.24 732.40 821.97 731.29 822.67 730.18 C 822.56 732.36 823.01 734.82 824.96 736.14 C 828.46 738.49 833.30 736.88 836.61 739.70 C 830.68 739.96 824.90 738.49 819.12 737.43 C 819.28 736.79 819.58 735.52 819.74 734.89 C 819.94 734.54 820.34 733.86 820.54 733.52 Z" />
</g>
<g id="#c0c0c0c0">
<path fill="#c0c0c0" opacity="0.75" d=" M 816.51 740.83 C 817.59 738.84 818.56 736.81 819.74 734.89 C 819.58 735.52 819.28 736.79 819.12 737.43 C 824.90 738.49 830.68 739.96 836.61 739.70 C 837.59 739.70 838.58 739.71 839.58 739.74 C 839.59 739.86 839.61 740.10 839.62 740.22 C 834.38 740.11 829.26 741.39 824.07 741.81 L 823.62 741.90 C 821.51 742.39 818.86 742.32 817.53 744.35 C 817.43 746.73 818.18 749.03 818.71 751.34 C 815.67 751.27 812.61 751.52 809.81 752.79 C 809.09 754.48 808.28 756.15 807.79 757.94 C 807.51 760.45 807.52 763.00 807.55 765.54 C 806.86 766.19 806.18 766.86 805.52 767.55 C 805.27 764.44 804.66 761.40 804.05 758.36 L 804.17 757.94 C 804.79 757.37 805.39 756.78 805.97 756.17 C 808.96 750.70 813.32 746.17 816.51 740.83 Z" />
</g>
<g id="#b9b7b7ff">
<path fill="#b9b7b7" opacity="1.00" d=" M 774.90 740.72 C 779.44 739.07 784.24 738.40 788.92 737.25 C 787.42 739.31 785.93 741.38 784.47 743.47 C 781.27 742.56 778.06 741.71 774.90 740.72 Z" />
</g>
<g id="#5e5e5e5e">
<path fill="#5e5e5e" opacity="0.37" d=" M 817.53 744.35 C 818.86 742.32 821.51 742.39 823.62 741.90 C 823.77 742.07 824.08 742.43 824.23 742.60 C 822.96 745.13 821.72 748.06 822.64 750.93 C 823.56 752.86 824.80 754.63 825.97 756.44 C 819.73 755.64 812.85 756.29 808.21 761.00 C 808.10 760.24 807.90 758.70 807.79 757.94 C 808.28 756.15 809.09 754.48 809.81 752.79 C 812.61 751.52 815.67 751.27 818.71 751.34 C 818.18 749.03 817.43 746.73 817.53 744.35 Z" />
</g>
<g id="#22222223">
<path fill="#222222" opacity="0.14" d=" M 824.23 742.60 C 826.72 743.08 829.28 743.02 831.81 743.07 C 826.23 746.19 826.24 754.11 828.76 759.29 C 826.54 759.26 824.32 759.05 822.11 759.11 C 819.48 760.25 817.35 762.33 814.61 763.27 C 812.44 763.98 810.39 765.03 808.93 766.83 C 808.76 764.87 808.50 762.93 808.21 761.00 C 812.85 756.29 819.73 755.64 825.97 756.44 C 824.80 754.63 823.56 752.86 822.64 750.93 C 821.72 748.06 822.96 745.13 824.23 742.60 Z" />
</g>
<g id="#8d8d93ff">
<path fill="#8d8d93" opacity="1.00" d=" M 214.86 751.87 C 217.33 753.80 219.52 756.05 221.85 758.15 C 223.31 759.40 225.04 760.86 227.12 760.36 C 232.27 759.57 237.63 759.42 242.48 757.36 C 245.47 760.82 248.42 764.32 251.02 768.09 C 248.01 767.05 245.02 765.97 242.01 764.96 C 242.59 765.51 243.17 766.07 243.76 766.63 C 245.99 769.29 248.28 771.95 251.14 773.97 C 247.47 775.78 243.65 777.28 239.85 778.79 C 237.65 777.40 235.40 776.08 233.09 774.89 C 235.30 779.64 239.10 783.40 241.38 788.11 C 236.49 785.16 234.30 779.60 230.07 775.94 C 228.00 774.21 226.90 771.73 225.40 769.56 C 220.99 764.35 216.10 758.80 214.86 751.87 Z" />
</g>
<g id="#edeeefff">
<path fill="#edeeef" opacity="1.00" d=" M 794.45 762.43 C 796.92 759.51 798.87 756.02 802.09 753.83 C 803.44 754.50 804.69 755.35 805.97 756.17 C 805.39 756.78 804.79 757.37 804.17 757.94 C 799.07 757.74 796.63 762.49 793.75 765.82 C 780.20 782.74 765.81 799.11 749.37 813.29 C 738.25 823.40 726.50 832.98 713.41 840.48 C 708.32 843.32 703.71 847.43 697.78 848.39 C 699.64 844.32 703.05 841.38 706.00 838.14 C 710.05 833.74 710.47 827.47 713.28 822.39 C 715.82 817.36 719.74 813.24 722.82 808.56 C 728.34 803.99 733.63 799.16 739.13 794.57 C 733.79 805.00 724.33 812.97 720.18 824.11 C 719.25 827.02 717.54 830.40 719.68 833.21 C 723.19 831.71 726.57 829.90 729.60 827.56 C 737.93 821.32 745.89 814.59 753.32 807.31 C 759.72 802.08 765.61 796.25 770.82 789.83 C 779.34 781.27 786.74 771.70 794.45 762.43 Z" />
</g>
<g id="#d6d5d6ff">
<path fill="#d6d5d6" opacity="1.00" d=" M 793.75 765.82 C 796.63 762.49 799.07 757.74 804.17 757.94 L 804.05 758.36 C 803.75 758.82 803.16 759.75 802.86 760.21 C 801.57 761.95 800.19 763.62 798.89 765.35 C 757.48 819.60 700.66 862.07 636.64 885.82 C 636.63 885.38 636.62 884.51 636.61 884.07 C 641.75 881.11 647.66 879.70 652.51 876.19 C 651.90 876.10 650.67 875.91 650.06 875.81 C 654.19 872.15 660.27 872.93 664.48 869.49 C 668.04 867.06 670.95 863.83 673.30 860.24 C 676.89 854.89 681.07 849.98 684.91 844.82 C 687.52 841.60 685.93 837.24 687.42 833.61 C 699.91 826.27 711.32 817.31 722.82 808.56 C 719.74 813.24 715.82 817.36 713.28 822.39 C 710.47 827.47 710.05 833.74 706.00 838.14 C 703.05 841.38 699.64 844.32 697.78 848.39 C 703.71 847.43 708.32 843.32 713.41 840.48 C 726.50 832.98 738.25 823.40 749.37 813.29 C 765.81 799.11 780.20 782.74 793.75 765.82 Z" />
</g>
<g id="#19191919">
<path fill="#191919" opacity="0.10" d=" M 807.55 765.54 C 807.52 763.00 807.51 760.45 807.79 757.94 C 807.90 758.70 808.10 760.24 808.21 761.00 C 808.50 762.93 808.76 764.87 808.93 766.83 C 809.16 769.64 809.21 772.47 809.04 775.30 C 808.50 779.18 808.02 783.09 806.85 786.84 C 806.17 786.83 804.82 786.83 804.14 786.82 C 802.26 780.82 802.91 774.40 801.43 768.33 C 800.84 767.14 799.72 766.32 798.89 765.35 C 800.19 763.62 801.57 761.95 802.86 760.21 C 803.24 765.35 804.12 770.44 804.40 775.60 C 804.03 778.26 804.08 780.97 805.03 783.52 C 807.23 781.75 807.14 779.13 806.69 776.60 C 807.29 772.94 807.70 769.24 807.55 765.54 Z" />
</g>
<g id="#3a3a3a3a">
<path fill="#3a3a3a" opacity="0.23" d=" M 804.40 775.60 C 804.83 776.68 805.32 777.78 805.80 778.87 C 806.02 778.30 806.47 777.16 806.69 776.60 C 807.14 779.13 807.23 781.75 805.03 783.52 C 804.08 780.97 804.03 778.26 804.40 775.60 Z" />
</g>
<g id="#646671ff">
<path fill="#646671" opacity="1.00" d=" M 265.17 782.31 L 265.98 781.72 C 274.53 784.49 283.49 785.62 292.22 787.72 C 307.26 790.40 322.18 795.97 333.76 806.22 C 354.79 825.34 379.23 840.92 405.97 850.72 C 433.18 860.76 462.68 864.25 491.51 861.28 C 499.05 860.31 506.52 862.30 514.06 862.32 C 527.88 862.62 541.85 862.38 555.45 859.64 C 562.54 858.16 569.69 856.92 576.66 854.91 C 578.48 854.68 580.33 854.58 582.12 854.14 C 593.14 851.01 604.08 847.59 614.88 843.77 C 621.07 841.51 626.90 838.29 633.29 836.57 C 631.13 839.46 627.51 840.26 624.38 841.63 C 608.84 848.66 592.18 852.64 576.15 858.31 C 569.80 860.74 562.69 860.32 556.56 863.35 C 553.04 864.98 550.43 867.93 547.82 870.70 C 550.04 871.68 552.45 871.31 554.75 870.87 C 555.12 871.12 555.88 871.61 556.26 871.86 C 567.72 870.14 579.08 867.85 590.59 866.43 C 599.33 864.73 607.76 861.77 616.31 859.34 C 623.26 857.34 629.58 853.40 636.80 852.33 L 638.02 853.40 C 608.56 866.60 576.89 874.47 544.98 878.88 C 536.11 880.61 527.03 880.44 518.10 881.66 C 513.81 882.26 509.49 882.28 505.18 882.22 C 504.69 882.62 503.73 883.43 503.25 883.83 C 493.91 883.91 484.57 883.59 475.30 882.34 C 471.01 881.85 466.72 880.90 462.39 881.35 C 445.31 879.06 428.50 875.13 411.87 870.72 C 407.56 868.41 402.66 867.63 398.17 865.78 C 353.81 850.97 312.68 826.69 278.17 795.13 C 273.57 791.15 269.19 786.87 265.17 782.31 Z" />
</g>
<g id="#6d6b70ff">
<path fill="#6d6b70" opacity="1.00" d=" M 701.16 788.16 C 704.83 787.23 708.56 786.54 712.29 785.86 C 688.21 805.94 662.05 823.84 633.29 836.57 C 626.90 838.29 621.07 841.51 614.88 843.77 C 604.08 847.59 593.14 851.01 582.12 854.14 C 580.33 854.58 578.48 854.68 576.66 854.91 C 581.61 852.98 586.69 851.41 591.71 849.66 C 604.93 844.42 617.57 837.82 629.60 830.24 C 655.38 819.93 679.24 805.14 701.16 788.16 Z" />
</g>
<g id="#777880ff">
<path fill="#777880" opacity="1.00" d=" M 278.17 795.13 C 312.68 826.69 353.81 850.97 398.17 865.78 C 402.66 867.63 407.56 868.41 411.87 870.72 C 416.34 874.59 422.51 875.12 427.96 876.87 C 437.60 878.63 447.17 881.02 456.98 881.80 C 458.79 881.98 460.60 881.63 462.39 881.35 C 466.72 880.90 471.01 881.85 475.30 882.34 C 473.69 882.60 472.08 882.91 470.49 883.27 C 478.03 886.19 486.22 884.78 494.04 886.01 C 504.04 887.02 514.13 885.69 524.14 886.76 C 532.10 887.63 540.19 886.71 548.09 888.20 C 550.55 888.53 552.26 890.57 553.77 892.36 C 555.49 894.28 554.55 897.03 554.59 899.35 C 547.74 900.70 540.99 902.77 533.95 902.88 C 528.13 903.75 522.14 903.03 516.44 904.62 C 448.46 906.83 379.81 889.50 321.34 854.67 C 313.46 849.16 305.02 844.50 297.30 838.75 C 288.75 833.09 280.91 826.46 272.94 820.04 C 271.52 818.78 270.26 817.37 268.93 816.04 C 269.47 815.98 270.54 815.85 271.07 815.79 C 267.35 811.87 263.70 807.90 260.24 803.76 C 262.73 804.64 265.01 806.13 267.59 806.76 C 270.18 802.09 273.25 797.59 278.17 795.13 Z" />
</g>
<g id="#b7b7bcff">
<path fill="#b7b7bc" opacity="1.00" d=" M 661.37 848.22 C 670.31 843.82 678.86 838.68 687.42 833.61 C 685.93 837.24 687.52 841.60 684.91 844.82 C 681.07 849.98 676.89 854.89 673.30 860.24 C 670.95 863.83 668.04 867.06 664.48 869.49 C 660.27 872.93 654.19 872.15 650.06 875.81 C 639.69 881.67 628.18 885.19 616.96 889.04 C 602.19 893.95 586.90 897.02 571.86 900.98 C 566.68 902.34 561.48 903.60 556.23 904.62 C 556.44 904.87 556.85 905.38 557.06 905.64 L 557.24 905.87 C 531.51 909.11 505.39 910.17 479.54 907.78 C 481.70 907.48 483.87 907.16 486.07 907.19 C 496.71 907.47 507.37 907.43 518.02 907.25 C 534.77 905.96 551.74 905.07 567.96 900.32 C 586.30 895.31 604.95 891.36 622.89 884.97 C 633.61 881.79 644.24 877.81 653.59 871.57 C 657.57 868.81 659.72 864.32 662.30 860.37 C 664.12 857.28 666.73 854.44 667.02 850.70 C 665.11 849.91 663.23 849.10 661.37 848.22 Z" />
</g>
<g id="#b5b6bbff">
<path fill="#b5b6bb" opacity="1.00" d=" M 521.71 884.30 C 561.00 882.22 600.11 874.33 636.59 859.43 C 636.49 859.86 636.30 860.72 636.20 861.14 C 633.37 863.26 629.93 864.35 626.71 865.72 C 620.85 867.88 615.23 870.70 609.15 872.23 C 596.61 875.27 583.96 877.84 571.35 880.55 C 564.89 882.03 558.08 881.78 551.85 884.20 C 547.27 884.85 542.64 884.76 538.04 884.69 C 532.60 884.55 527.12 885.13 521.71 884.30 Z" />
</g>
<g id="#c6c4c6ff">
<path fill="#c6c4c6" opacity="1.00" d=" M 616.96 889.04 C 628.18 885.19 639.69 881.67 650.06 875.81 C 650.67 875.91 651.90 876.10 652.51 876.19 C 647.66 879.70 641.75 881.11 636.61 884.07 C 636.62 884.51 636.63 885.38 636.64 885.82 L 636.64 885.94 C 610.97 895.40 584.25 902.49 557.06 905.64 C 556.85 905.38 556.44 904.87 556.23 904.62 C 561.48 903.60 566.68 902.34 571.86 900.98 C 586.90 897.02 602.19 893.95 616.96 889.04 Z" />
</g>
<g id="#8b8c93ff">
<path fill="#8b8c93" opacity="1.00" d=" M 470.49 883.27 C 472.08 882.91 473.69 882.60 475.30 882.34 C 484.57 883.59 493.91 883.91 503.25 883.83 C 509.39 884.35 515.57 883.63 521.71 884.30 C 527.12 885.13 532.60 884.55 538.04 884.69 C 542.64 884.76 547.27 884.85 551.85 884.20 C 559.25 883.91 566.60 882.17 574.03 883.02 C 573.32 889.09 571.55 896.84 564.97 898.92 C 555.81 902.65 545.85 903.35 536.12 904.37 C 529.58 904.86 522.97 905.61 516.44 904.62 C 522.14 903.03 528.13 903.75 533.95 902.88 C 540.99 902.77 547.74 900.70 554.59 899.35 C 554.55 897.03 555.49 894.28 553.77 892.36 C 552.26 890.57 550.55 888.53 548.09 888.20 C 540.19 886.71 532.10 887.63 524.14 886.76 C 514.13 885.69 504.04 887.02 494.04 886.01 C 486.22 884.78 478.03 886.19 470.49 883.27 Z" />
</g>
</svg>
